<?xml version="1.0" encoding="UTF-8" standalone="no"?><!DOCTYPE svg PUBLIC "-//W3C//DTD SVG 1.1//EN" "http://www.w3.org/Graphics/SVG/1.1/DTD/svg11.dtd"><svg width="100%" height="100%" viewBox="0 0 128 128" version="1.1" xmlns="http://www.w3.org/2000/svg" xmlns:xlink="http://www.w3.org/1999/xlink" xml:space="preserve" xmlns:serif="http://www.serif.com/" style="fill-rule:evenodd;clip-rule:evenodd;stroke-linejoin:round;stroke-miterlimit:1.5;"><g><path d="M106.473,13.494c0.126,-2.146 -1.192,-4.115 -3.225,-4.815c-27.126,-9.242 -53.496,-9.069 -78.582,-0.04c-1.988,0.725 -3.265,2.669 -3.142,4.783c1.165,16.757 8.128,87.629 42.476,87.629c34.299,0 41.291,-70.669 42.473,-87.557Z" style="fill:#42ce8c;"/><path d="M64,88.274c0,0 11.186,24.431 15.6,34.072c0.386,0.841 0.316,1.819 -0.184,2.598c-0.499,0.778 -1.361,1.249 -2.285,1.249l-26.262,0c-0.924,0 -1.786,-0.471 -2.285,-1.249c-0.5,-0.779 -0.57,-1.757 -0.184,-2.598c4.414,-9.641 15.6,-34.072 15.6,-34.072Z" style="fill:#42ce8c;"/><path d="M98.302,26.495c11.828,0 21.779,-1.951 25.644,2.206c3.818,4.106 -9.764,30.184 -17.26,39.622c-4.29,5.404 -16.802,8.908 -25.325,8.459" style="fill:none;stroke:#42ce8c;stroke-width:5.66px;"/><path d="M29.698,26.495c-11.828,0 -21.779,-1.951 -25.644,2.206c-3.818,4.106 9.764,30.184 17.26,39.622c4.29,5.404 16.802,8.908 25.325,8.459" style="fill:none;stroke:#42ce8c;stroke-width:5.66px;"/></g></svg>