<?xml version="1.0" encoding="UTF-8" standalone="no"?><!DOCTYPE svg PUBLIC "-//W3C//DTD SVG 1.1//EN" "http://www.w3.org/Graphics/SVG/1.1/DTD/svg11.dtd"><svg width="100%" height="100%" viewBox="0 0 500 500" version="1.1" xmlns="http://www.w3.org/2000/svg" xmlns:xlink="http://www.w3.org/1999/xlink" xml:space="preserve" xmlns:serif="http://www.serif.com/" style="fill-rule:evenodd;clip-rule:evenodd;stroke-linejoin:round;stroke-miterlimit:1.41421;"><rect id="logo1" x="0" y="0" width="500" height="500" style="fill:none;"/><clipPath id="_clip1"><rect id="logo11" serif:id="logo1" x="0" y="0" width="500" height="500"/></clipPath><g clip-path="url(#_clip1)"><path d="M50.905,448.37l0,-5.278c0.001,-19.571 15.827,-35.474 35.368,-35.598l0.23,0c0.077,0 0.153,0 0.23,0c14.565,-0.006 46.573,-11.434 49.584,-14.775l0,0.235c16.998,-10.016 37.002,-23.263 38.687,-33.297c8.021,-47.767 -4.443,-72.989 -7.537,-77.387c-1.118,8.527 -7.412,7.936 -12.156,4.622c-4.471,-3.123 -3.717,-15.104 -9.579,-26.268c-5.862,-11.163 -11.96,-18.808 -13.256,-25.405c-1.377,-7.008 -1.354,-16.2 1.41,-17.415c4.125,-1.812 6.448,-0.691 9.518,3.324c-10.365,-88.681 27.812,-118.674 31.6,-122.051c2.594,-2.312 10.346,4.967 8.957,6.186c-36.538,51.399 -8.036,129.08 66.039,129.949c74.075,-0.869 102.577,-78.55 66.039,-129.949c-1.389,-1.219 6.363,-8.498 8.957,-6.186c3.788,3.377 41.965,33.37 31.6,122.051c3.07,-4.015 5.393,-5.136 9.518,-3.324c2.764,1.215 2.787,10.407 1.41,17.415c-1.296,6.597 -7.394,14.242 -13.256,25.405c-5.862,11.164 -5.108,23.145 -9.579,26.268c-4.744,3.314 -11.038,3.905 -12.156,-4.622c-3.094,4.398 -15.558,29.62 -7.537,77.387c1.685,10.034 21.689,23.281 38.687,33.297l0,-0.235c3.011,3.341 35.019,14.769 49.584,14.775c0.077,0 0.153,0 0.23,0l0.23,0c19.541,0.124 35.367,16.027 35.368,35.598l0,5.308c-132.338,35.485 -264.97,35.168 -398.19,-0.03Z"/><circle cx="255.284" cy="143.071" r="51.216"/><circle cx="286.21" cy="47.138" r="23.257"/><circle cx="240.635" cy="14.58" r="9.3"/></g></svg>