<?xml version="1.0" encoding="UTF-8" standalone="no"?>
<!DOCTYPE svg PUBLIC "-//W3C//DTD SVG 1.1//EN" "http://www.w3.org/Graphics/SVG/1.1/DTD/svg11.dtd">
        <svg width="100%" height="100%" viewBox="0 0 40 37" version="1.1" xmlns="http://www.w3.org/2000/svg" xmlns:xlink="http://www.w3.org/1999/xlink" xml:space="preserve" xmlns:serif="http://www.serif.com/" style="fill-rule:evenodd;clip-rule:evenodd;stroke-linejoin:round;stroke-miterlimit:1.41421;">
            <path d="M29.98,31.478c-2.919,1.428 -6.317,2.247 -9.943,2.247c-10.874,0 -19.703,-7.368 -19.703,-16.443c0,-9.075 8.829,-16.443 19.703,-16.443c10.874,0 19.703,7.368 19.703,16.443c0,3.896 -1.627,7.478 -4.346,10.297c0.629,3.209 1.983,6.056 3.575,8.784c0.092,0.155 0.068,0.353 -0.059,0.482c-0.126,0.129 -0.323,0.157 -0.48,0.069c-3.067,-1.737 -5.92,-3.538 -8.45,-5.436Zm-17.574,-17.007c1.551,0 2.811,1.26 2.811,2.811c0,1.551 -1.26,2.811 -2.811,2.811c-1.551,0 -2.811,-1.26 -2.811,-2.811c0,-1.551 1.26,-2.811 2.811,-2.811Zm7.631,0c1.551,0 2.811,1.26 2.811,2.811c0,1.551 -1.26,2.811 -2.811,2.811c-1.551,0 -2.811,-1.26 -2.811,-2.811c0,-1.551 1.26,-2.811 2.811,-2.811Zm7.631,0c1.551,0 2.811,1.26 2.811,2.811c0,1.551 -1.26,2.811 -2.811,2.811c-1.551,0 -2.811,-1.26 -2.811,-2.811c0,-1.551 1.26,-2.811 2.811,-2.811Z" style="fill:#09a47c;"/>
        </svg>