<?xml version="1.0" encoding="UTF-8" standalone="no"?><!DOCTYPE svg PUBLIC "-//W3C//DTD SVG 1.1//EN" "http://www.w3.org/Graphics/SVG/1.1/DTD/svg11.dtd"><svg width="100%" height="100%" viewBox="0 0 36 36" version="1.1" xmlns="http://www.w3.org/2000/svg" xmlns:xlink="http://www.w3.org/1999/xlink" xml:space="preserve" xmlns:serif="http://www.serif.com/" style="fill-rule:evenodd;clip-rule:evenodd;stroke-linejoin:round;stroke-miterlimit:1.41421;"><g><path d="M18.055,0.305c-9.834,0 -17.817,7.984 -17.817,17.817c0,9.833 7.983,17.817 17.817,17.817c9.833,0 17.816,-7.984 17.816,-17.817c0,-9.833 -7.983,-17.817 -17.816,-17.817Zm-4.587,17.839l9.702,-5.601c0.485,-0.28 0.651,-0.902 0.371,-1.387c-0.28,-0.485 -0.901,-0.651 -1.386,-0.371l-11.205,6.469c-0.008,0.005 -0.016,0.01 -0.024,0.015c-0.147,0.085 -0.275,0.21 -0.366,0.368c-0.28,0.485 -0.114,1.106 0.371,1.386l11.205,6.469c0.485,0.28 1.106,0.114 1.387,-0.371c0.28,-0.485 0.113,-1.107 -0.372,-1.387l-9.683,-5.59Z" style="fill:#fff;"/></g></svg>