<?xml version="1.0" encoding="UTF-8" standalone="no"?><!DOCTYPE svg PUBLIC "-//W3C//DTD SVG 1.1//EN" "http://www.w3.org/Graphics/SVG/1.1/DTD/svg11.dtd"><svg width="100%" height="100%" viewBox="0 0 37 36" version="1.1" xmlns="http://www.w3.org/2000/svg" xmlns:xlink="http://www.w3.org/1999/xlink" xml:space="preserve" xmlns:serif="http://www.serif.com/" style="fill-rule:evenodd;clip-rule:evenodd;stroke-linejoin:round;stroke-miterlimit:1.41421;"><g><path d="M18.44,0.305c9.834,0 17.817,7.984 17.817,17.817c0,9.833 -7.983,17.817 -17.817,17.817c-9.833,0 -17.816,-7.984 -17.816,-17.817c0,-9.833 7.983,-17.817 17.816,-17.817Zm4.587,17.839l-9.702,-5.601c-0.485,-0.28 -0.651,-0.902 -0.371,-1.387c0.28,-0.485 0.901,-0.651 1.386,-0.371l11.205,6.469c0.008,0.005 0.016,0.01 0.024,0.015c0.147,0.085 0.275,0.21 0.366,0.368c0.28,0.485 0.114,1.106 -0.371,1.386l-11.205,6.469c-0.485,0.28 -1.106,0.114 -1.386,-0.371c-0.28,-0.485 -0.114,-1.107 0.371,-1.387l9.683,-5.59Z" style="fill:#fff;"/></g></svg>