<svg width="100%" height="100%" viewBox="0 0 773 325" version="1.1" xmlns="http://www.w3.org/2000/svg" xmlns:xlink="http://www.w3.org/1999/xlink" xml:space="preserve" xmlns:serif="http://www.serif.com/" style="fill-rule:evenodd;clip-rule:evenodd;stroke-miterlimit:3;">
    <g id="citations-graph" serif:id="citations graph">
        <rect x="33.722" y="0" width="734" height="291" style="fill:#d0d0d0;"/>
        <path d="M690.769,323.534l0,0.966l-6.412,0l0,-0.868l3.486,-3.864c0.467,-0.523 0.807,-0.994 1.022,-1.414c0.215,-0.42 0.322,-0.84 0.322,-1.26c0,-0.551 -0.159,-0.973 -0.476,-1.267c-0.317,-0.294 -0.77,-0.441 -1.358,-0.441c-0.952,0 -1.895,0.383 -2.828,1.148l-0.434,-0.882c0.392,-0.373 0.887,-0.672 1.484,-0.896c0.597,-0.224 1.199,-0.336 1.806,-0.336c0.915,0 1.638,0.236 2.17,0.707c0.532,0.471 0.798,1.108 0.798,1.911c0,0.569 -0.128,1.118 -0.385,1.645c-0.257,0.527 -0.684,1.118 -1.281,1.771l-2.842,3.08l4.928,0Z" style="fill:#959595;fill-rule:nonzero;"/>
        <path d="M695.795,324.612c-1.139,0 -2.004,-0.432 -2.597,-1.295c-0.593,-0.863 -0.889,-2.13 -0.889,-3.801c0,-1.671 0.296,-2.938 0.889,-3.801c0.593,-0.863 1.458,-1.295 2.597,-1.295c1.139,0 2.004,0.432 2.597,1.295c0.593,0.863 0.889,2.126 0.889,3.787c0,1.671 -0.296,2.94 -0.889,3.808c-0.593,0.868 -1.458,1.302 -2.597,1.302Zm0,-0.966c0.793,0 1.379,-0.336 1.757,-1.008c0.378,-0.672 0.567,-1.717 0.567,-3.136c0,-1.409 -0.187,-2.445 -0.56,-3.108c-0.373,-0.663 -0.961,-0.994 -1.764,-0.994c-0.793,0 -1.379,0.331 -1.757,0.994c-0.378,0.663 -0.567,1.699 -0.567,3.108c0,1.409 0.189,2.452 0.567,3.129c0.378,0.677 0.964,1.015 1.757,1.015Z" style="fill:#959595;fill-rule:nonzero;"/>
        <path d="M705.147,323.534l2.198,0l0,0.966l-5.558,0l0,-0.966l2.198,0l0,-7.574l-2.044,1.302l0,-1.106l2.548,-1.624l0.658,0l0,9.002Z" style="fill:#959595;fill-rule:nonzero;"/>
        <path d="M709.305,314.532l6.58,0l0,0.854l-4.676,9.114l-1.232,0l4.648,-9.002l-5.32,0l0,-0.966Z" style="fill:#959595;fill-rule:nonzero;"/>
        <path d="M623.951,323.534l0,0.966l-6.412,0l0,-0.868l3.486,-3.864c0.467,-0.523 0.807,-0.994 1.022,-1.414c0.215,-0.42 0.322,-0.84 0.322,-1.26c0,-0.551 -0.159,-0.973 -0.476,-1.267c-0.317,-0.294 -0.77,-0.441 -1.358,-0.441c-0.952,0 -1.895,0.383 -2.828,1.148l-0.434,-0.882c0.392,-0.373 0.887,-0.672 1.484,-0.896c0.597,-0.224 1.199,-0.336 1.806,-0.336c0.915,0 1.638,0.236 2.17,0.707c0.532,0.471 0.798,1.108 0.798,1.911c0,0.569 -0.128,1.118 -0.385,1.645c-0.257,0.527 -0.684,1.118 -1.281,1.771l-2.842,3.08l4.928,0Z" style="fill:#959595;fill-rule:nonzero;"/>
        <path d="M628.977,324.612c-1.139,0 -2.004,-0.432 -2.597,-1.295c-0.593,-0.863 -0.889,-2.13 -0.889,-3.801c0,-1.671 0.296,-2.938 0.889,-3.801c0.593,-0.863 1.458,-1.295 2.597,-1.295c1.139,0 2.004,0.432 2.597,1.295c0.593,0.863 0.889,2.126 0.889,3.787c0,1.671 -0.296,2.94 -0.889,3.808c-0.593,0.868 -1.458,1.302 -2.597,1.302Zm0,-0.966c0.793,0 1.379,-0.336 1.757,-1.008c0.378,-0.672 0.567,-1.717 0.567,-3.136c0,-1.409 -0.187,-2.445 -0.56,-3.108c-0.373,-0.663 -0.961,-0.994 -1.764,-0.994c-0.793,0 -1.379,0.331 -1.757,0.994c-0.378,0.663 -0.567,1.699 -0.567,3.108c0,1.409 0.189,2.452 0.567,3.129c0.378,0.677 0.964,1.015 1.757,1.015Z" style="fill:#959595;fill-rule:nonzero;"/>
        <path d="M638.329,323.534l2.198,0l0,0.966l-5.558,0l0,-0.966l2.198,0l0,-7.574l-2.044,1.302l0,-1.106l2.548,-1.624l0.658,0l0,9.002Z" style="fill:#959595;fill-rule:nonzero;"/>
        <path d="M646.197,318.242c0.607,0 1.146,0.133 1.617,0.399c0.471,0.266 0.838,0.639 1.099,1.12c0.261,0.481 0.392,1.029 0.392,1.645c0,0.616 -0.138,1.167 -0.413,1.652c-0.275,0.485 -0.656,0.866 -1.141,1.141c-0.485,0.275 -1.036,0.413 -1.652,0.413c-1.204,0 -2.133,-0.42 -2.786,-1.26c-0.653,-0.84 -0.98,-2.035 -0.98,-3.584c0,-1.12 0.152,-2.081 0.455,-2.884c0.303,-0.803 0.742,-1.414 1.316,-1.834c0.574,-0.42 1.262,-0.63 2.065,-0.63c0.579,0 1.141,0.107 1.687,0.322c0.546,0.215 1.024,0.518 1.435,0.91l-0.434,0.882c-0.467,-0.392 -0.915,-0.681 -1.344,-0.868c-0.429,-0.187 -0.868,-0.28 -1.316,-0.28c-0.859,0 -1.526,0.383 -2.002,1.148c-0.476,0.765 -0.714,1.839 -0.714,3.22l0,0.21c0.215,-0.532 0.565,-0.952 1.05,-1.26c0.485,-0.308 1.041,-0.462 1.666,-0.462Zm-0.154,5.404c0.635,0 1.148,-0.203 1.54,-0.609c0.392,-0.406 0.588,-0.945 0.588,-1.617c0,-0.663 -0.198,-1.197 -0.595,-1.603c-0.397,-0.406 -0.912,-0.609 -1.547,-0.609c-0.653,0 -1.185,0.205 -1.596,0.616c-0.411,0.411 -0.616,0.943 -0.616,1.596c0,0.663 0.205,1.199 0.616,1.61c0.411,0.411 0.947,0.616 1.61,0.616Z" style="fill:#959595;fill-rule:nonzero;"/>
        <path d="M557.133,323.534l0,0.966l-6.412,0l0,-0.868l3.486,-3.864c0.467,-0.523 0.808,-0.994 1.022,-1.414c0.215,-0.42 0.322,-0.84 0.322,-1.26c0,-0.551 -0.158,-0.973 -0.476,-1.267c-0.317,-0.294 -0.77,-0.441 -1.358,-0.441c-0.952,0 -1.894,0.383 -2.828,1.148l-0.434,-0.882c0.392,-0.373 0.887,-0.672 1.484,-0.896c0.598,-0.224 1.2,-0.336 1.806,-0.336c0.915,0 1.638,0.236 2.17,0.707c0.532,0.471 0.798,1.108 0.798,1.911c0,0.569 -0.128,1.118 -0.385,1.645c-0.256,0.527 -0.683,1.118 -1.281,1.771l-2.842,3.08l4.928,0Z" style="fill:#959595;fill-rule:nonzero;"/>
        <path d="M562.159,324.612c-1.138,0 -2.004,-0.432 -2.597,-1.295c-0.592,-0.863 -0.889,-2.13 -0.889,-3.801c0,-1.671 0.297,-2.938 0.889,-3.801c0.593,-0.863 1.459,-1.295 2.597,-1.295c1.139,0 2.005,0.432 2.597,1.295c0.593,0.863 0.889,2.126 0.889,3.787c0,1.671 -0.296,2.94 -0.889,3.808c-0.592,0.868 -1.458,1.302 -2.597,1.302Zm0,-0.966c0.794,0 1.379,-0.336 1.757,-1.008c0.378,-0.672 0.567,-1.717 0.567,-3.136c0,-1.409 -0.186,-2.445 -0.56,-3.108c-0.373,-0.663 -0.961,-0.994 -1.764,-0.994c-0.793,0 -1.379,0.331 -1.757,0.994c-0.378,0.663 -0.567,1.699 -0.567,3.108c0,1.409 0.189,2.452 0.567,3.129c0.378,0.677 0.964,1.015 1.757,1.015Z" style="fill:#959595;fill-rule:nonzero;"/>
        <path d="M571.511,323.534l2.198,0l0,0.966l-5.558,0l0,-0.966l2.198,0l0,-7.574l-2.044,1.302l0,-1.106l2.548,-1.624l0.658,0l0,9.002Z" style="fill:#959595;fill-rule:nonzero;"/>
        <path d="M579.379,318.242c0.626,0 1.174,0.133 1.645,0.399c0.472,0.266 0.833,0.637 1.085,1.113c0.252,0.476 0.378,1.027 0.378,1.652c0,0.625 -0.137,1.181 -0.413,1.666c-0.275,0.485 -0.667,0.861 -1.176,1.127c-0.508,0.266 -1.103,0.399 -1.785,0.399c-0.606,0 -1.204,-0.11 -1.792,-0.329c-0.588,-0.219 -1.082,-0.52 -1.484,-0.903l0.434,-0.882c0.924,0.765 1.872,1.148 2.842,1.148c0.7,0 1.249,-0.198 1.645,-0.595c0.397,-0.397 0.595,-0.936 0.595,-1.617c0,-0.663 -0.196,-1.197 -0.588,-1.603c-0.392,-0.406 -0.914,-0.609 -1.568,-0.609c-0.952,0 -1.712,0.387 -2.282,1.162l-0.798,0l0,-5.838l5.978,0l0,0.952l-4.83,0l0,3.556c0.551,-0.532 1.256,-0.798 2.114,-0.798Z" style="fill:#959595;fill-rule:nonzero;"/>
        <path d="M490.105,323.534l0,0.966l-6.412,0l0,-0.868l3.486,-3.864c0.467,-0.523 0.808,-0.994 1.022,-1.414c0.215,-0.42 0.322,-0.84 0.322,-1.26c0,-0.551 -0.158,-0.973 -0.476,-1.267c-0.317,-0.294 -0.77,-0.441 -1.358,-0.441c-0.952,0 -1.894,0.383 -2.828,1.148l-0.434,-0.882c0.392,-0.373 0.887,-0.672 1.484,-0.896c0.598,-0.224 1.2,-0.336 1.806,-0.336c0.915,0 1.638,0.236 2.17,0.707c0.532,0.471 0.798,1.108 0.798,1.911c0,0.569 -0.128,1.118 -0.385,1.645c-0.256,0.527 -0.683,1.118 -1.281,1.771l-2.842,3.08l4.928,0Z" style="fill:#959595;fill-rule:nonzero;"/>
        <path d="M495.131,324.612c-1.138,0 -2.004,-0.432 -2.597,-1.295c-0.592,-0.863 -0.889,-2.13 -0.889,-3.801c0,-1.671 0.297,-2.938 0.889,-3.801c0.593,-0.863 1.459,-1.295 2.597,-1.295c1.139,0 2.005,0.432 2.597,1.295c0.593,0.863 0.889,2.126 0.889,3.787c0,1.671 -0.296,2.94 -0.889,3.808c-0.592,0.868 -1.458,1.302 -2.597,1.302Zm0,-0.966c0.794,0 1.379,-0.336 1.757,-1.008c0.378,-0.672 0.567,-1.717 0.567,-3.136c0,-1.409 -0.186,-2.445 -0.56,-3.108c-0.373,-0.663 -0.961,-0.994 -1.764,-0.994c-0.793,0 -1.379,0.331 -1.757,0.994c-0.378,0.663 -0.567,1.699 -0.567,3.108c0,1.409 0.189,2.452 0.567,3.129c0.378,0.677 0.964,1.015 1.757,1.015Z" style="fill:#959595;fill-rule:nonzero;"/>
        <path d="M504.483,323.534l2.198,0l0,0.966l-5.558,0l0,-0.966l2.198,0l0,-7.574l-2.044,1.302l0,-1.106l2.548,-1.624l0.658,0l0,9.002Z" style="fill:#959595;fill-rule:nonzero;"/>
        <path d="M515.669,321.378l0,0.952l-1.512,0l0,2.17l-1.148,0l0,-2.17l-4.592,0l0,-0.868l4.802,-6.93l0.938,0l0,6.846l1.512,0Zm-6.062,0l3.402,0l0,-4.9l-3.402,4.9Z" style="fill:#959595;fill-rule:nonzero;"/>
        <path d="M423.637,323.534l0,0.966l-6.412,0l0,-0.868l3.486,-3.864c0.467,-0.523 0.808,-0.994 1.022,-1.414c0.215,-0.42 0.322,-0.84 0.322,-1.26c0,-0.551 -0.158,-0.973 -0.476,-1.267c-0.317,-0.294 -0.77,-0.441 -1.358,-0.441c-0.952,0 -1.894,0.383 -2.828,1.148l-0.434,-0.882c0.392,-0.373 0.887,-0.672 1.484,-0.896c0.598,-0.224 1.2,-0.336 1.806,-0.336c0.915,0 1.638,0.236 2.17,0.707c0.532,0.471 0.798,1.108 0.798,1.911c0,0.569 -0.128,1.118 -0.385,1.645c-0.256,0.527 -0.683,1.118 -1.281,1.771l-2.842,3.08l4.928,0Z" style="fill:#959595;fill-rule:nonzero;"/>
        <path d="M428.663,324.612c-1.138,0 -2.004,-0.432 -2.597,-1.295c-0.592,-0.863 -0.889,-2.13 -0.889,-3.801c0,-1.671 0.297,-2.938 0.889,-3.801c0.593,-0.863 1.459,-1.295 2.597,-1.295c1.139,0 2.005,0.432 2.597,1.295c0.593,0.863 0.889,2.126 0.889,3.787c0,1.671 -0.296,2.94 -0.889,3.808c-0.592,0.868 -1.458,1.302 -2.597,1.302Zm0,-0.966c0.794,0 1.379,-0.336 1.757,-1.008c0.378,-0.672 0.567,-1.717 0.567,-3.136c0,-1.409 -0.186,-2.445 -0.56,-3.108c-0.373,-0.663 -0.961,-0.994 -1.764,-0.994c-0.793,0 -1.379,0.331 -1.757,0.994c-0.378,0.663 -0.567,1.699 -0.567,3.108c0,1.409 0.189,2.452 0.567,3.129c0.378,0.677 0.964,1.015 1.757,1.015Z" style="fill:#959595;fill-rule:nonzero;"/>
        <path d="M438.015,323.534l2.198,0l0,0.966l-5.558,0l0,-0.966l2.198,0l0,-7.574l-2.044,1.302l0,-1.106l2.548,-1.624l0.658,0l0,9.002Z" style="fill:#959595;fill-rule:nonzero;"/>
        <path d="M446.835,319.376c0.588,0.168 1.036,0.457 1.344,0.868c0.308,0.411 0.462,0.929 0.462,1.554c0,0.868 -0.294,1.552 -0.882,2.051c-0.588,0.499 -1.386,0.749 -2.394,0.749c-0.644,0 -1.262,-0.107 -1.855,-0.322c-0.592,-0.215 -1.094,-0.518 -1.505,-0.91l0.448,-0.882c0.924,0.765 1.886,1.148 2.884,1.148c0.71,0 1.249,-0.159 1.617,-0.476c0.369,-0.317 0.553,-0.784 0.553,-1.4c0,-1.223 -0.765,-1.834 -2.296,-1.834l-1.148,0l0,-0.966l0.924,0c0.738,0 1.302,-0.163 1.694,-0.49c0.392,-0.327 0.588,-0.793 0.588,-1.4c0,-0.541 -0.161,-0.957 -0.483,-1.246c-0.322,-0.289 -0.777,-0.434 -1.365,-0.434c-0.952,0 -1.894,0.383 -2.828,1.148l-0.434,-0.882c0.402,-0.383 0.894,-0.684 1.477,-0.903c0.584,-0.219 1.193,-0.329 1.827,-0.329c0.896,0 1.613,0.229 2.149,0.686c0.537,0.457 0.805,1.073 0.805,1.848c0,0.569 -0.14,1.069 -0.42,1.498c-0.28,0.429 -0.667,0.737 -1.162,0.924Z" style="fill:#959595;fill-rule:nonzero;"/>
        <path d="M356.973,323.534l0,0.966l-6.412,0l0,-0.868l3.486,-3.864c0.467,-0.523 0.808,-0.994 1.022,-1.414c0.215,-0.42 0.322,-0.84 0.322,-1.26c0,-0.551 -0.158,-0.973 -0.476,-1.267c-0.317,-0.294 -0.77,-0.441 -1.358,-0.441c-0.952,0 -1.894,0.383 -2.828,1.148l-0.434,-0.882c0.392,-0.373 0.887,-0.672 1.484,-0.896c0.598,-0.224 1.2,-0.336 1.806,-0.336c0.915,0 1.638,0.236 2.17,0.707c0.532,0.471 0.798,1.108 0.798,1.911c0,0.569 -0.128,1.118 -0.385,1.645c-0.256,0.527 -0.683,1.118 -1.281,1.771l-2.842,3.08l4.928,0Z" style="fill:#959595;fill-rule:nonzero;"/>
        <path d="M361.999,324.612c-1.138,0 -2.004,-0.432 -2.597,-1.295c-0.592,-0.863 -0.889,-2.13 -0.889,-3.801c0,-1.671 0.297,-2.938 0.889,-3.801c0.593,-0.863 1.459,-1.295 2.597,-1.295c1.139,0 2.005,0.432 2.597,1.295c0.593,0.863 0.889,2.126 0.889,3.787c0,1.671 -0.296,2.94 -0.889,3.808c-0.592,0.868 -1.458,1.302 -2.597,1.302Zm0,-0.966c0.794,0 1.379,-0.336 1.757,-1.008c0.378,-0.672 0.567,-1.717 0.567,-3.136c0,-1.409 -0.186,-2.445 -0.56,-3.108c-0.373,-0.663 -0.961,-0.994 -1.764,-0.994c-0.793,0 -1.379,0.331 -1.757,0.994c-0.378,0.663 -0.567,1.699 -0.567,3.108c0,1.409 0.189,2.452 0.567,3.129c0.378,0.677 0.964,1.015 1.757,1.015Z" style="fill:#959595;fill-rule:nonzero;"/>
        <path d="M371.351,323.534l2.198,0l0,0.966l-5.558,0l0,-0.966l2.198,0l0,-7.574l-2.044,1.302l0,-1.106l2.548,-1.624l0.658,0l0,9.002Z" style="fill:#959595;fill-rule:nonzero;"/>
        <path d="M382.173,323.534l0,0.966l-6.412,0l0,-0.868l3.486,-3.864c0.467,-0.523 0.808,-0.994 1.022,-1.414c0.215,-0.42 0.322,-0.84 0.322,-1.26c0,-0.551 -0.158,-0.973 -0.476,-1.267c-0.317,-0.294 -0.77,-0.441 -1.358,-0.441c-0.952,0 -1.894,0.383 -2.828,1.148l-0.434,-0.882c0.392,-0.373 0.887,-0.672 1.484,-0.896c0.598,-0.224 1.2,-0.336 1.806,-0.336c0.915,0 1.638,0.236 2.17,0.707c0.532,0.471 0.798,1.108 0.798,1.911c0,0.569 -0.128,1.118 -0.385,1.645c-0.256,0.527 -0.683,1.118 -1.281,1.771l-2.842,3.08l4.928,0Z" style="fill:#959595;fill-rule:nonzero;"/>
        <path d="M290.534,323.534l0,0.966l-6.412,0l0,-0.868l3.486,-3.864c0.466,-0.523 0.807,-0.994 1.022,-1.414c0.214,-0.42 0.322,-0.84 0.322,-1.26c0,-0.551 -0.159,-0.973 -0.476,-1.267c-0.318,-0.294 -0.77,-0.441 -1.358,-0.441c-0.952,0 -1.895,0.383 -2.828,1.148l-0.434,-0.882c0.392,-0.373 0.886,-0.672 1.484,-0.896c0.597,-0.224 1.199,-0.336 1.806,-0.336c0.914,0 1.638,0.236 2.17,0.707c0.532,0.471 0.798,1.108 0.798,1.911c0,0.569 -0.129,1.118 -0.385,1.645c-0.257,0.527 -0.684,1.118 -1.281,1.771l-2.842,3.08l4.928,0Z" style="fill:#959595;fill-rule:nonzero;"/>
        <path d="M295.56,324.612c-1.139,0 -2.005,-0.432 -2.597,-1.295c-0.593,-0.863 -0.889,-2.13 -0.889,-3.801c0,-1.671 0.296,-2.938 0.889,-3.801c0.592,-0.863 1.458,-1.295 2.597,-1.295c1.138,0 2.004,0.432 2.597,1.295c0.592,0.863 0.889,2.126 0.889,3.787c0,1.671 -0.297,2.94 -0.889,3.808c-0.593,0.868 -1.459,1.302 -2.597,1.302Zm0,-0.966c0.793,0 1.379,-0.336 1.757,-1.008c0.378,-0.672 0.567,-1.717 0.567,-3.136c0,-1.409 -0.187,-2.445 -0.56,-3.108c-0.374,-0.663 -0.962,-0.994 -1.764,-0.994c-0.794,0 -1.379,0.331 -1.757,0.994c-0.378,0.663 -0.567,1.699 -0.567,3.108c0,1.409 0.189,2.452 0.567,3.129c0.378,0.677 0.963,1.015 1.757,1.015Z" style="fill:#959595;fill-rule:nonzero;"/>
        <path d="M304.912,323.534l2.198,0l0,0.966l-5.558,0l0,-0.966l2.198,0l0,-7.574l-2.044,1.302l0,-1.106l2.548,-1.624l0.658,0l0,9.002Z" style="fill:#959595;fill-rule:nonzero;"/>
        <path d="M313.312,323.534l2.198,0l0,0.966l-5.558,0l0,-0.966l2.198,0l0,-7.574l-2.044,1.302l0,-1.106l2.548,-1.624l0.658,0l0,9.002Z" style="fill:#959595;fill-rule:nonzero;"/>
        <path d="M223.758,323.534l0,0.966l-6.412,0l0,-0.868l3.486,-3.864c0.466,-0.523 0.807,-0.994 1.022,-1.414c0.214,-0.42 0.322,-0.84 0.322,-1.26c0,-0.551 -0.159,-0.973 -0.476,-1.267c-0.318,-0.294 -0.77,-0.441 -1.358,-0.441c-0.952,0 -1.895,0.383 -2.828,1.148l-0.434,-0.882c0.392,-0.373 0.886,-0.672 1.484,-0.896c0.597,-0.224 1.199,-0.336 1.806,-0.336c0.914,0 1.638,0.236 2.17,0.707c0.532,0.471 0.798,1.108 0.798,1.911c0,0.569 -0.129,1.118 -0.385,1.645c-0.257,0.527 -0.684,1.118 -1.281,1.771l-2.842,3.08l4.928,0Z" style="fill:#959595;fill-rule:nonzero;"/>
        <path d="M228.784,324.612c-1.139,0 -2.005,-0.432 -2.597,-1.295c-0.593,-0.863 -0.889,-2.13 -0.889,-3.801c0,-1.671 0.296,-2.938 0.889,-3.801c0.592,-0.863 1.458,-1.295 2.597,-1.295c1.138,0 2.004,0.432 2.597,1.295c0.592,0.863 0.889,2.126 0.889,3.787c0,1.671 -0.297,2.94 -0.889,3.808c-0.593,0.868 -1.459,1.302 -2.597,1.302Zm0,-0.966c0.793,0 1.379,-0.336 1.757,-1.008c0.378,-0.672 0.567,-1.717 0.567,-3.136c0,-1.409 -0.187,-2.445 -0.56,-3.108c-0.374,-0.663 -0.962,-0.994 -1.764,-0.994c-0.794,0 -1.379,0.331 -1.757,0.994c-0.378,0.663 -0.567,1.699 -0.567,3.108c0,1.409 0.189,2.452 0.567,3.129c0.378,0.677 0.963,1.015 1.757,1.015Z" style="fill:#959595;fill-rule:nonzero;"/>
        <path d="M238.136,323.534l2.198,0l0,0.966l-5.558,0l0,-0.966l2.198,0l0,-7.574l-2.044,1.302l0,-1.106l2.548,-1.624l0.658,0l0,9.002Z" style="fill:#959595;fill-rule:nonzero;"/>
        <path d="M245.584,324.612c-1.139,0 -2.005,-0.432 -2.597,-1.295c-0.593,-0.863 -0.889,-2.13 -0.889,-3.801c0,-1.671 0.296,-2.938 0.889,-3.801c0.592,-0.863 1.458,-1.295 2.597,-1.295c1.138,0 2.004,0.432 2.597,1.295c0.592,0.863 0.889,2.126 0.889,3.787c0,1.671 -0.297,2.94 -0.889,3.808c-0.593,0.868 -1.459,1.302 -2.597,1.302Zm0,-0.966c0.793,0 1.379,-0.336 1.757,-1.008c0.378,-0.672 0.567,-1.717 0.567,-3.136c0,-1.409 -0.187,-2.445 -0.56,-3.108c-0.374,-0.663 -0.962,-0.994 -1.764,-0.994c-0.794,0 -1.379,0.331 -1.757,0.994c-0.378,0.663 -0.567,1.699 -0.567,3.108c0,1.409 0.189,2.452 0.567,3.129c0.378,0.677 0.963,1.015 1.757,1.015Z" style="fill:#959595;fill-rule:nonzero;"/>
        <path d="M157.01,323.534l0,0.966l-6.412,0l0,-0.868l3.486,-3.864c0.466,-0.523 0.807,-0.994 1.022,-1.414c0.214,-0.42 0.322,-0.84 0.322,-1.26c0,-0.551 -0.159,-0.973 -0.476,-1.267c-0.318,-0.294 -0.77,-0.441 -1.358,-0.441c-0.952,0 -1.895,0.383 -2.828,1.148l-0.434,-0.882c0.392,-0.373 0.886,-0.672 1.484,-0.896c0.597,-0.224 1.199,-0.336 1.806,-0.336c0.914,0 1.638,0.236 2.17,0.707c0.532,0.471 0.798,1.108 0.798,1.911c0,0.569 -0.129,1.118 -0.385,1.645c-0.257,0.527 -0.684,1.118 -1.281,1.771l-2.842,3.08l4.928,0Z" style="fill:#959595;fill-rule:nonzero;"/>
        <path d="M162.036,324.612c-1.139,0 -2.005,-0.432 -2.597,-1.295c-0.593,-0.863 -0.889,-2.13 -0.889,-3.801c0,-1.671 0.296,-2.938 0.889,-3.801c0.592,-0.863 1.458,-1.295 2.597,-1.295c1.138,0 2.004,0.432 2.597,1.295c0.592,0.863 0.889,2.126 0.889,3.787c0,1.671 -0.297,2.94 -0.889,3.808c-0.593,0.868 -1.459,1.302 -2.597,1.302Zm0,-0.966c0.793,0 1.379,-0.336 1.757,-1.008c0.378,-0.672 0.567,-1.717 0.567,-3.136c0,-1.409 -0.187,-2.445 -0.56,-3.108c-0.374,-0.663 -0.962,-0.994 -1.764,-0.994c-0.794,0 -1.379,0.331 -1.757,0.994c-0.378,0.663 -0.567,1.699 -0.567,3.108c0,1.409 0.189,2.452 0.567,3.129c0.378,0.677 0.963,1.015 1.757,1.015Z" style="fill:#959595;fill-rule:nonzero;"/>
        <path d="M170.436,324.612c-1.139,0 -2.005,-0.432 -2.597,-1.295c-0.593,-0.863 -0.889,-2.13 -0.889,-3.801c0,-1.671 0.296,-2.938 0.889,-3.801c0.592,-0.863 1.458,-1.295 2.597,-1.295c1.138,0 2.004,0.432 2.597,1.295c0.592,0.863 0.889,2.126 0.889,3.787c0,1.671 -0.297,2.94 -0.889,3.808c-0.593,0.868 -1.459,1.302 -2.597,1.302Zm0,-0.966c0.793,0 1.379,-0.336 1.757,-1.008c0.378,-0.672 0.567,-1.717 0.567,-3.136c0,-1.409 -0.187,-2.445 -0.56,-3.108c-0.374,-0.663 -0.962,-0.994 -1.764,-0.994c-0.794,0 -1.379,0.331 -1.757,0.994c-0.378,0.663 -0.567,1.699 -0.567,3.108c0,1.409 0.189,2.452 0.567,3.129c0.378,0.677 0.963,1.015 1.757,1.015Z" style="fill:#959595;fill-rule:nonzero;"/>
        <path d="M178.528,314.42c1.204,0 2.132,0.42 2.786,1.26c0.653,0.84 0.98,2.035 0.98,3.584c0,1.689 -0.339,3.003 -1.015,3.941c-0.677,0.938 -1.622,1.407 -2.835,1.407c-0.57,0 -1.127,-0.107 -1.673,-0.322c-0.546,-0.215 -1.029,-0.518 -1.449,-0.91l0.448,-0.882c0.476,0.401 0.928,0.693 1.358,0.875c0.429,0.182 0.863,0.273 1.302,0.273c0.858,0 1.523,-0.383 1.995,-1.148c0.471,-0.765 0.707,-1.839 0.707,-3.22l0,-0.182c-0.215,0.523 -0.565,0.936 -1.05,1.239c-0.486,0.303 -1.041,0.455 -1.666,0.455c-0.607,0 -1.144,-0.133 -1.61,-0.399c-0.467,-0.266 -0.831,-0.639 -1.092,-1.12c-0.262,-0.481 -0.392,-1.029 -0.392,-1.645c0,-0.616 0.137,-1.167 0.413,-1.652c0.275,-0.485 0.655,-0.866 1.141,-1.141c0.485,-0.275 1.036,-0.413 1.652,-0.413Zm0.07,5.404c0.653,0 1.185,-0.205 1.596,-0.616c0.41,-0.411 0.616,-0.943 0.616,-1.596c0,-0.663 -0.206,-1.199 -0.616,-1.61c-0.411,-0.411 -0.948,-0.616 -1.61,-0.616c-0.635,0 -1.148,0.203 -1.54,0.609c-0.392,0.406 -0.588,0.945 -0.588,1.617c0,0.663 0.196,1.197 0.588,1.603c0.392,0.406 0.91,0.609 1.554,0.609Z" style="fill:#959595;fill-rule:nonzero;"/>
        <path d="M90.15,323.534l0,0.966l-6.412,0l0,-0.868l3.486,-3.864c0.467,-0.523 0.807,-0.994 1.022,-1.414c0.215,-0.42 0.322,-0.84 0.322,-1.26c0,-0.551 -0.159,-0.973 -0.476,-1.267c-0.317,-0.294 -0.77,-0.441 -1.358,-0.441c-0.952,0 -1.895,0.383 -2.828,1.148l-0.434,-0.882c0.392,-0.373 0.887,-0.672 1.484,-0.896c0.597,-0.224 1.199,-0.336 1.806,-0.336c0.915,0 1.638,0.236 2.17,0.707c0.532,0.471 0.798,1.108 0.798,1.911c0,0.569 -0.128,1.118 -0.385,1.645c-0.257,0.527 -0.684,1.118 -1.281,1.771l-2.842,3.08l4.928,0Z" style="fill:#959595;fill-rule:nonzero;"/>
        <path d="M95.176,324.612c-1.139,0 -2.004,-0.432 -2.597,-1.295c-0.593,-0.863 -0.889,-2.13 -0.889,-3.801c0,-1.671 0.296,-2.938 0.889,-3.801c0.593,-0.863 1.458,-1.295 2.597,-1.295c1.139,0 2.004,0.432 2.597,1.295c0.593,0.863 0.889,2.126 0.889,3.787c0,1.671 -0.296,2.94 -0.889,3.808c-0.593,0.868 -1.458,1.302 -2.597,1.302Zm0,-0.966c0.793,0 1.379,-0.336 1.757,-1.008c0.378,-0.672 0.567,-1.717 0.567,-3.136c0,-1.409 -0.187,-2.445 -0.56,-3.108c-0.373,-0.663 -0.961,-0.994 -1.764,-0.994c-0.793,0 -1.379,0.331 -1.757,0.994c-0.378,0.663 -0.567,1.699 -0.567,3.108c0,1.409 0.189,2.452 0.567,3.129c0.378,0.677 0.964,1.015 1.757,1.015Z" style="fill:#959595;fill-rule:nonzero;"/>
        <path d="M103.576,324.612c-1.139,0 -2.004,-0.432 -2.597,-1.295c-0.593,-0.863 -0.889,-2.13 -0.889,-3.801c0,-1.671 0.296,-2.938 0.889,-3.801c0.593,-0.863 1.458,-1.295 2.597,-1.295c1.139,0 2.004,0.432 2.597,1.295c0.593,0.863 0.889,2.126 0.889,3.787c0,1.671 -0.296,2.94 -0.889,3.808c-0.593,0.868 -1.458,1.302 -2.597,1.302Zm0,-0.966c0.793,0 1.379,-0.336 1.757,-1.008c0.378,-0.672 0.567,-1.717 0.567,-3.136c0,-1.409 -0.187,-2.445 -0.56,-3.108c-0.373,-0.663 -0.961,-0.994 -1.764,-0.994c-0.793,0 -1.379,0.331 -1.757,0.994c-0.378,0.663 -0.567,1.699 -0.567,3.108c0,1.409 0.189,2.452 0.567,3.129c0.378,0.677 0.964,1.015 1.757,1.015Z" style="fill:#959595;fill-rule:nonzero;"/>
        <path d="M113.488,319.376c0.653,0.177 1.16,0.483 1.519,0.917c0.359,0.434 0.539,0.954 0.539,1.561c0,0.849 -0.322,1.519 -0.966,2.009c-0.644,0.49 -1.512,0.735 -2.604,0.735c-1.092,0 -1.96,-0.245 -2.604,-0.735c-0.644,-0.49 -0.966,-1.16 -0.966,-2.009c0,-0.607 0.184,-1.129 0.553,-1.568c0.369,-0.439 0.875,-0.742 1.519,-0.91c-0.597,-0.177 -1.055,-0.469 -1.372,-0.875c-0.317,-0.406 -0.476,-0.884 -0.476,-1.435c0,-0.532 0.14,-0.996 0.42,-1.393c0.28,-0.397 0.674,-0.705 1.183,-0.924c0.509,-0.219 1.09,-0.329 1.743,-0.329c0.653,0 1.234,0.11 1.743,0.329c0.509,0.219 0.903,0.527 1.183,0.924c0.28,0.397 0.42,0.861 0.42,1.393c0,0.551 -0.161,1.029 -0.483,1.435c-0.322,0.406 -0.772,0.698 -1.351,0.875Zm-3.71,-2.226c0,0.532 0.198,0.964 0.595,1.295c0.397,0.331 0.931,0.534 1.603,0.609c0.672,-0.075 1.206,-0.278 1.603,-0.609c0.397,-0.331 0.595,-0.763 0.595,-1.295c0,-0.551 -0.194,-0.985 -0.581,-1.302c-0.387,-0.317 -0.926,-0.476 -1.617,-0.476c-0.691,0 -1.23,0.159 -1.617,0.476c-0.387,0.317 -0.581,0.751 -0.581,1.302Zm2.198,6.496c0.784,0 1.386,-0.159 1.806,-0.476c0.42,-0.317 0.63,-0.779 0.63,-1.386c0,-0.551 -0.222,-0.992 -0.665,-1.323c-0.443,-0.331 -1.034,-0.534 -1.771,-0.609c-0.737,0.075 -1.328,0.278 -1.771,0.609c-0.443,0.331 -0.665,0.772 -0.665,1.323c0,0.607 0.21,1.069 0.63,1.386c0.42,0.317 1.022,0.476 1.806,0.476Z" style="fill:#959595;fill-rule:nonzero;"/>
        <path d="M23.57,323.534l0,0.966l-6.412,0l0,-0.868l3.486,-3.864c0.467,-0.523 0.807,-0.994 1.022,-1.414c0.215,-0.42 0.322,-0.84 0.322,-1.26c0,-0.551 -0.159,-0.973 -0.476,-1.267c-0.317,-0.294 -0.77,-0.441 -1.358,-0.441c-0.952,0 -1.895,0.383 -2.828,1.148l-0.434,-0.882c0.392,-0.373 0.887,-0.672 1.484,-0.896c0.597,-0.224 1.199,-0.336 1.806,-0.336c0.915,0 1.638,0.236 2.17,0.707c0.532,0.471 0.798,1.108 0.798,1.911c0,0.569 -0.128,1.118 -0.385,1.645c-0.257,0.527 -0.684,1.118 -1.281,1.771l-2.842,3.08l4.928,0Z" style="fill:#959595;fill-rule:nonzero;"/>
        <path d="M28.596,324.612c-1.139,0 -2.004,-0.432 -2.597,-1.295c-0.593,-0.863 -0.889,-2.13 -0.889,-3.801c0,-1.671 0.296,-2.938 0.889,-3.801c0.593,-0.863 1.458,-1.295 2.597,-1.295c1.139,0 2.004,0.432 2.597,1.295c0.593,0.863 0.889,2.126 0.889,3.787c0,1.671 -0.296,2.94 -0.889,3.808c-0.593,0.868 -1.458,1.302 -2.597,1.302Zm0,-0.966c0.793,0 1.379,-0.336 1.757,-1.008c0.378,-0.672 0.567,-1.717 0.567,-3.136c0,-1.409 -0.187,-2.445 -0.56,-3.108c-0.373,-0.663 -0.961,-0.994 -1.764,-0.994c-0.793,0 -1.379,0.331 -1.757,0.994c-0.378,0.663 -0.567,1.699 -0.567,3.108c0,1.409 0.189,2.452 0.567,3.129c0.378,0.677 0.964,1.015 1.757,1.015Z" style="fill:#959595;fill-rule:nonzero;"/>
        <path d="M36.996,324.612c-1.139,0 -2.004,-0.432 -2.597,-1.295c-0.593,-0.863 -0.889,-2.13 -0.889,-3.801c0,-1.671 0.296,-2.938 0.889,-3.801c0.593,-0.863 1.458,-1.295 2.597,-1.295c1.139,0 2.004,0.432 2.597,1.295c0.593,0.863 0.889,2.126 0.889,3.787c0,1.671 -0.296,2.94 -0.889,3.808c-0.593,0.868 -1.458,1.302 -2.597,1.302Zm0,-0.966c0.793,0 1.379,-0.336 1.757,-1.008c0.378,-0.672 0.567,-1.717 0.567,-3.136c0,-1.409 -0.187,-2.445 -0.56,-3.108c-0.373,-0.663 -0.961,-0.994 -1.764,-0.994c-0.793,0 -1.379,0.331 -1.757,0.994c-0.378,0.663 -0.567,1.699 -0.567,3.108c0,1.409 0.189,2.452 0.567,3.129c0.378,0.677 0.964,1.015 1.757,1.015Z" style="fill:#959595;fill-rule:nonzero;"/>
        <path d="M42.106,314.532l6.58,0l0,0.854l-4.676,9.114l-1.232,0l4.648,-9.002l-5.32,0l0,-0.966Z" style="fill:#959595;fill-rule:nonzero;"/>
        <path d="M11.522,296.397c-1.139,0 -2.004,-0.432 -2.597,-1.295c-0.593,-0.863 -0.889,-2.13 -0.889,-3.801c0,-1.671 0.296,-2.938 0.889,-3.801c0.593,-0.863 1.458,-1.295 2.597,-1.295c1.139,0 2.004,0.432 2.597,1.295c0.593,0.863 0.889,2.126 0.889,3.787c0,1.671 -0.296,2.94 -0.889,3.808c-0.593,0.868 -1.458,1.302 -2.597,1.302Zm0,-0.966c0.793,0 1.379,-0.336 1.757,-1.008c0.378,-0.672 0.567,-1.717 0.567,-3.136c0,-1.409 -0.187,-2.445 -0.56,-3.108c-0.373,-0.663 -0.961,-0.994 -1.764,-0.994c-0.793,0 -1.379,0.331 -1.757,0.994c-0.378,0.663 -0.567,1.699 -0.567,3.108c0,1.409 0.189,2.452 0.567,3.129c0.378,0.677 0.964,1.015 1.757,1.015Z" style="fill:#959595;fill-rule:nonzero;"/>
        <path d="M3.542,144.527c0.625,0 1.174,0.133 1.645,0.399c0.471,0.266 0.833,0.637 1.085,1.113c0.252,0.476 0.378,1.027 0.378,1.652c0,0.625 -0.138,1.181 -0.413,1.666c-0.275,0.485 -0.667,0.861 -1.176,1.127c-0.509,0.266 -1.104,0.399 -1.785,0.399c-0.607,0 -1.204,-0.11 -1.792,-0.329c-0.588,-0.219 -1.083,-0.52 -1.484,-0.903l0.434,-0.882c0.924,0.765 1.871,1.148 2.842,1.148c0.7,0 1.248,-0.198 1.645,-0.595c0.397,-0.397 0.595,-0.936 0.595,-1.617c0,-0.663 -0.196,-1.197 -0.588,-1.603c-0.392,-0.406 -0.915,-0.609 -1.568,-0.609c-0.952,0 -1.713,0.387 -2.282,1.162l-0.798,0l0,-5.838l5.978,0l0,0.952l-4.83,0l0,3.556c0.551,-0.532 1.255,-0.798 2.114,-0.798Z" style="fill:#959595;fill-rule:nonzero;"/>
        <path d="M11.522,150.897c-1.139,0 -2.004,-0.432 -2.597,-1.295c-0.593,-0.863 -0.889,-2.13 -0.889,-3.801c0,-1.671 0.296,-2.938 0.889,-3.801c0.593,-0.863 1.458,-1.295 2.597,-1.295c1.139,0 2.004,0.432 2.597,1.295c0.593,0.863 0.889,2.126 0.889,3.787c0,1.671 -0.296,2.94 -0.889,3.808c-0.593,0.868 -1.458,1.302 -2.597,1.302Zm0,-0.966c0.793,0 1.379,-0.336 1.757,-1.008c0.378,-0.672 0.567,-1.717 0.567,-3.136c0,-1.409 -0.187,-2.445 -0.56,-3.108c-0.373,-0.663 -0.961,-0.994 -1.764,-0.994c-0.793,0 -1.379,0.331 -1.757,0.994c-0.378,0.663 -0.567,1.699 -0.567,3.108c0,1.409 0.189,2.452 0.567,3.129c0.378,0.677 0.964,1.015 1.757,1.015Z" style="fill:#959595;fill-rule:nonzero;"/>
        <path d="M33.722,145.5l734,0" style="fill-rule:nonzero;stroke:#b5b5b5;stroke-width:1px;"/>
        <path d="M33.722,291l0,8.015" style="fill-rule:nonzero;stroke:#b5b5b5;stroke-width:1px;"/>
        <path d="M100.449,291l0,8.015" style="fill-rule:nonzero;stroke:#b5b5b5;stroke-width:1px;"/>
        <path d="M167.177,291l0,8.015" style="fill-rule:nonzero;stroke:#b5b5b5;stroke-width:1px;"/>
        <path d="M233.904,290.361l0,8.015" style="fill-rule:nonzero;stroke:#b5b5b5;stroke-width:1px;"/>
        <path d="M300.631,290.361l0,8.015" style="fill-rule:nonzero;stroke:#b5b5b5;stroke-width:1px;"/>
        <path d="M367.358,290.361l0,8.015" style="fill-rule:nonzero;stroke:#b5b5b5;stroke-width:1px;"/>
        <path d="M434.086,290.361l0,8.015" style="fill-rule:nonzero;stroke:#b5b5b5;stroke-width:1px;"/>
        <path d="M500.813,290.361l0,8.015" style="fill-rule:nonzero;stroke:#b5b5b5;stroke-width:1px;"/>
        <path d="M567.54,290.361l0,8.015" style="fill-rule:nonzero;stroke:#b5b5b5;stroke-width:1px;"/>
        <path d="M634.267,290.361l0,8.015" style="fill-rule:nonzero;stroke:#b5b5b5;stroke-width:1px;"/>
        <path d="M700.995,290.361l0,8.015" style="fill-rule:nonzero;stroke:#b5b5b5;stroke-width:1px;"/>
        <path d="M767.722,291l0,8.015" style="fill-rule:nonzero;stroke:#b5b5b5;stroke-width:1px;"/>
        <path d="M767.722,291l-734,0" style="fill-rule:nonzero;stroke:#b5b5b5;stroke-width:1px;"/>
        <path d="M33.722,254.43l67,18l67,-7l67,-44l66,-20l67,-19l67,-57l66,-49l67,39l67,10l67,6l66,14l0,144.931l-734,0l0,-35.931Z" style="fill:#09a47b;fill-opacity:0.2;fill-rule:nonzero;"/>
        <path d="M33.722,254.43l67,18l67,-7l67,-44l66,-20l67,-19l67,-57l66,-49l67,39l67,10l67,6l66,14" style="fill:none;stroke:#09a47b;stroke-width:3px;"/>
        <path class="stats__marker" data-marker-value="13" id="13" d="M28.327,253.825c0,-2.978 2.417,-5.395 5.395,-5.395c2.978,0 5.395,2.417 5.395,5.395c0,2.978 -2.417,5.395 -5.395,5.395c-2.978,0 -5.395,-2.417 -5.395,-5.395Z" style="fill:#09a47b;fill-rule:nonzero;"/>
        <path class="stats__marker" data-marker-value="7" id="7" d="M95.054,271.825c0,-2.978 2.418,-5.395 5.395,-5.395c2.978,0 5.395,2.417 5.395,5.395c0,2.978 -2.417,5.395 -5.395,5.395c-2.977,0 -5.395,-2.417 -5.395,-5.395Z" style="fill:#09a47b;fill-rule:nonzero;"/>
        <path class="stats__marker" data-marker-value="9" id="9" d="M161.782,264.615c0,-2.978 2.417,-5.395 5.395,-5.395c2.977,0 5.395,2.417 5.395,5.395c0,2.978 -2.418,5.395 -5.395,5.395c-2.978,0 -5.395,-2.417 -5.395,-5.395Z" style="fill:#09a47b;fill-rule:nonzero;"/>
        <path class="stats__marker" data-marker-value="26" id="26" d="M228.509,221.825c0,-2.978 2.417,-5.395 5.395,-5.395c2.977,0 5.395,2.417 5.395,5.395c0,2.978 -2.418,5.395 -5.395,5.395c-2.978,0 -5.395,-2.417 -5.395,-5.395Z" style="fill:#09a47b;fill-rule:nonzero;"/>
        <path class="stats__marker" data-marker-value="33" id="33" d="M295.236,200.825c0,-2.978 2.418,-5.395 5.395,-5.395c2.978,0 5.395,2.417 5.395,5.395c0,2.978 -2.417,5.395 -5.395,5.395c-2.977,0 -5.395,-2.417 -5.395,-5.395Z" style="fill:#09a47b;fill-rule:nonzero;"/>
        <path class="stats__marker" data-marker-value="42" id="42" d="M361.963,181.825c0,-2.978 2.418,-5.395 5.395,-5.395c2.978,0 5.395,2.417 5.395,5.395c0,2.978 -2.417,5.395 -5.395,5.395c-2.977,0 -5.395,-2.417 -5.395,-5.395Z" style="fill:#09a47b;fill-rule:nonzero;"/>
        <path class="stats__marker" data-marker-value="58" id="58" d="M428.691,125.43c0,-2.978 2.417,-5.395 5.395,-5.395c2.977,0 5.395,2.417 5.395,5.395c0,2.978 -2.418,5.395 -5.395,5.395c-2.978,0 -5.395,-2.417 -5.395,-5.395Z" style="fill:#09a47b;fill-rule:nonzero;"/>
        <path class="stats__marker" data-marker-value="76" id="76" d="M495.418,76.035c0,-2.978 2.417,-5.395 5.395,-5.395c2.977,0 5.395,2.417 5.395,5.395c0,2.978 -2.418,5.395 -5.395,5.395c-2.978,0 -5.395,-2.417 -5.395,-5.395Z" style="fill:#09a47b;fill-rule:nonzero;"/>
        <path class="stats__marker" data-marker-value="62" id="62" d="M562.145,114.64c0,-2.978 2.418,-5.395 5.395,-5.395c2.978,0 5.395,2.417 5.395,5.395c0,2.978 -2.417,5.395 -5.395,5.395c-2.977,0 -5.395,-2.417 -5.395,-5.395Z" style="fill:#09a47b;fill-rule:nonzero;"/>
        <path class="stats__marker" data-marker-value="57" id="57" d="M628.872,125.43c0,-2.978 2.418,-5.395 5.395,-5.395c2.978,0 5.395,2.417 5.395,5.395c0,2.978 -2.417,5.395 -5.395,5.395c-2.977,0 -5.395,-2.417 -5.395,-5.395Z" style="fill:#09a47b;fill-rule:nonzero;"/>
        <path class="stats__marker" data-marker-value="54" id="54" d="M695.6,131.32c0,-2.978 2.417,-5.395 5.395,-5.395c2.977,0 5.395,2.417 5.395,5.395c0,2.978 -2.418,5.395 -5.395,5.395c-2.978,0 -5.395,-2.417 -5.395,-5.395Z" style="fill:#09a47b;fill-rule:nonzero;"/>
    </g>
</svg>
