<?xml version="1.0" encoding="UTF-8" standalone="no"?><!DOCTYPE svg PUBLIC "-//W3C//DTD SVG 1.1//EN" "http://www.w3.org/Graphics/SVG/1.1/DTD/svg11.dtd"><svg width="100%" height="100%" viewBox="0 0 300 301" version="1.1" xmlns="http://www.w3.org/2000/svg" xmlns:xlink="http://www.w3.org/1999/xlink" xml:space="preserve" xmlns:serif="http://www.serif.com/" style="fill-rule:evenodd;clip-rule:evenodd;stroke-linejoin:round;stroke-miterlimit:1.41421;"><g id="contact-thumbnail"><rect x="0" y="0.781" width="300" height="300" style="fill:#b2b2b2;"/><g><g><g><path d="M205.731,216.519l-111.462,0l0,-11.687c0,-5.479 4.43,-9.93 9.9,-9.965l0.065,0c0.021,0 0.042,0 0.064,0c4.077,-0.002 13.037,-3.201 13.88,-4.136l0,0.066c4.758,-2.804 10.357,-6.512 10.829,-9.321c2.245,-13.371 -1.244,-20.431 -2.11,-21.662c-0.313,2.387 -2.075,2.222 -3.403,1.294c-1.251,-0.874 -1.04,-4.228 -2.681,-7.353c-1.641,-3.125 -3.348,-5.265 -3.711,-7.111c-0.385,-1.962 -0.379,-4.535 0.395,-4.875c1.155,-0.508 1.805,-0.194 2.664,0.93c-2.901,-24.824 7.785,-33.22 8.846,-34.165c0.726,-0.647 2.896,1.391 2.507,1.732c-10.228,14.388 -2.249,36.132 18.486,36.376c20.735,-0.244 28.714,-21.988 18.486,-36.376c-0.389,-0.341 1.781,-2.379 2.507,-1.732c1.061,0.945 11.747,9.341 8.846,34.165c0.859,-1.124 1.509,-1.438 2.664,-0.93c0.774,0.34 0.78,2.913 0.395,4.875c-0.363,1.846 -2.07,3.986 -3.711,7.111c-1.641,3.125 -1.43,6.479 -2.681,7.353c-1.328,0.928 -3.09,1.093 -3.403,-1.294c-0.866,1.231 -4.355,8.291 -2.11,21.662c0.472,2.809 6.071,6.517 10.829,9.321l0,-0.066c0.843,0.935 9.803,4.134 13.88,4.136c0.022,0 0.043,0 0.064,0l0.065,0c5.47,0.035 9.9,4.486 9.9,9.965l0,11.687Z" style="fill:#04263e;"/><path d="M207.733,205.771c-38.371,10.664 -76.83,10.568 -115.466,0l1.963,13.513l111.54,0l1.963,-13.513Z" style="fill:#04263e;"/><g><circle cx="151.479" cy="120.849" r="14.337" style="fill:#04263e;"/><circle cx="160.136" cy="93.995" r="6.51" style="fill:#04263e;"/><circle cx="147.379" cy="84.882" r="2.603" style="fill:#04263e;"/></g></g></g></g></g></svg>