<?xml version="1.0" encoding="UTF-8" standalone="no"?><!DOCTYPE svg PUBLIC "-//W3C//DTD SVG 1.1//EN" "http://www.w3.org/Graphics/SVG/1.1/DTD/svg11.dtd"><svg width="100%" height="100%" viewBox="0 0 50 41" version="1.1" xmlns="http://www.w3.org/2000/svg" xmlns:xlink="http://www.w3.org/1999/xlink" xml:space="preserve" xmlns:serif="http://www.serif.com/" style="fill-rule:evenodd;clip-rule:evenodd;stroke-linecap:round;stroke-linejoin:round;stroke-miterlimit:1.5;"><g id="education-icon"><path d="M41.084,20.922c0,3.648 0,9.033 -0.002,10.977c0,0.452 -0.262,0.862 -0.673,1.052c-11.281,5.208 -21.237,4.426 -30.382,0.006c-0.399,-0.195 -0.652,-0.6 -0.652,-1.044l0,-10.141l13.673,6.911c0.74,0.375 2.089,0.301 3.009,-0.164l15.027,-7.597Z" style="fill:#42ce8c;"/><path d="M12.762,12.935c0.146,0.001 -9.165,1.076 -9.165,19.51" style="fill:none;stroke:#42ce8c;stroke-width:1.5px;"/><path d="M2.327,33.975c-0.777,-0.443 -1.301,-1.279 -1.301,-2.236c0,-1.419 1.152,-2.572 2.571,-2.572c1.42,0 2.572,1.153 2.572,2.572c0,0.957 -0.524,1.793 -1.301,2.236l1.213,5.783c0.021,0.103 -0.005,0.21 -0.071,0.292c-0.066,0.082 -0.166,0.129 -0.271,0.129l-4.283,0c-0.105,0 -0.205,-0.047 -0.271,-0.129c-0.067,-0.082 -0.093,-0.189 -0.071,-0.292l1.213,-5.783Z" style="fill:#42ce8c;"/><path d="M49.206,13.256c0.716,-0.358 0.832,-0.881 0.259,-1.167l-22.544,-11.272c-0.573,-0.286 -1.618,-0.228 -2.334,0.13l-23.333,11.666c-0.715,0.358 -0.832,0.881 -0.259,1.167l22.545,11.272c0.572,0.286 1.617,0.228 2.333,-0.129l23.333,-11.667Z" style="fill:#42ce8c;"/></g></svg>