<?xml version="1.0" encoding="UTF-8" standalone="no"?><!DOCTYPE svg PUBLIC "-//W3C//DTD SVG 1.1//EN" "http://www.w3.org/Graphics/SVG/1.1/DTD/svg11.dtd"><svg width="100%" height="100%" viewBox="0 0 39 26" version="1.1" xmlns="http://www.w3.org/2000/svg" xmlns:xlink="http://www.w3.org/1999/xlink" xml:space="preserve" xmlns:serif="http://www.serif.com/" style="fill-rule:evenodd;clip-rule:evenodd;stroke-linejoin:round;stroke-miterlimit:2;"><path d="M36.335,12.559c-0.211,-0.259 -0.398,-0.493 -0.591,-0.722c-1.946,-2.314 -4.11,-4.397 -6.578,-6.151c-1.739,-1.236 -3.596,-2.249 -5.633,-2.911c-2.675,-0.87 -5.358,-0.909 -8.052,-0.095c-2.368,0.714 -4.485,1.914 -6.458,3.381c-1.961,1.459 -3.74,3.122 -5.35,4.962c-0.435,0.496 -0.857,1.004 -1.285,1.508c0.049,0.065 0.08,0.11 0.113,0.152c1.46,1.812 3.063,3.487 4.833,4.998c1.857,1.584 3.849,2.963 6.087,3.96c1.505,0.669 3.066,1.131 4.712,1.294c1.978,0.197 3.89,-0.092 5.757,-0.74c2.553,-0.887 4.798,-2.312 6.882,-4.005c1.463,-1.191 2.822,-2.495 4.077,-3.906c0.503,-0.565 0.988,-1.145 1.486,-1.725m-16.978,12.578c-2.077,-0.016 -4.072,-0.444 -6.002,-1.201c-2.353,-0.922 -4.469,-2.244 -6.44,-3.811c-2.508,-1.995 -4.721,-4.278 -6.645,-6.84c-0.361,-0.48 -0.36,-0.947 0.001,-1.431c1.787,-2.398 3.846,-4.538 6.147,-6.445c1.917,-1.589 3.982,-2.942 6.272,-3.937c1.726,-0.749 3.517,-1.254 5.397,-1.417c2.288,-0.2 4.499,0.153 6.656,0.912c1.918,0.676 3.685,1.645 5.359,2.789c2.396,1.639 4.515,3.593 6.43,5.769c0.662,0.753 1.282,1.543 1.905,2.329c0.385,0.487 0.374,0.945 -0.004,1.442c-2.568,3.375 -5.559,6.303 -9.129,8.611c-1.915,1.238 -3.966,2.186 -6.181,2.748c-1.317,0.335 -2.609,0.482 -3.766,0.482" style="fill-rule:nonzero;"/><path d="M19.351,7.851c-2.585,0.006 -4.688,2.125 -4.672,4.704c0.018,2.608 2.106,4.69 4.69,4.677c2.593,-0.012 4.678,-2.116 4.664,-4.705c-0.014,-2.584 -2.116,-4.683 -4.682,-4.676m6.812,4.687c0.002,3.731 -2.994,6.834 -6.815,6.834c-3.766,-0.001 -6.812,-3.08 -6.8,-6.83c0.013,-3.76 3.013,-6.825 6.805,-6.823c3.843,0.002 6.8,3.107 6.81,6.819" style="fill-rule:nonzero;"/></svg>