<?xml version="1.0" encoding="UTF-8" standalone="no"?><!DOCTYPE svg PUBLIC "-//W3C//DTD SVG 1.1//EN" "http://www.w3.org/Graphics/SVG/1.1/DTD/svg11.dtd"><svg width="100%" height="100%" viewBox="0 0 200 200" version="1.1" xmlns="http://www.w3.org/2000/svg" xmlns:xlink="http://www.w3.org/1999/xlink" xml:space="preserve" xmlns:serif="http://www.serif.com/" style="fill-rule:evenodd;clip-rule:evenodd;stroke-linecap:round;stroke-linejoin:round;stroke-miterlimit:1.5;"><path d="M77.628,0l0.25,0.002l0.25,0.002l0.25,0.002l0.249,0.004l0.249,0.004l0.249,0.005l0.249,0.006l0.249,0.007l0.248,0.007l0.248,0.009l0.248,0.009l0.248,0.01l0.248,0.01l0.247,0.012l0.247,0.012l0.247,0.013l0.247,0.013l0.247,0.015l0.246,0.015l0.247,0.016l0.246,0.017l0.245,0.017l0.246,0.019l0.245,0.019l0.245,0.02l0.245,0.02l0.245,0.022l0.245,0.022l0.244,0.023l0.244,0.023l0.244,0.025l0.243,0.025l0.244,0.026l0.243,0.027l0.243,0.027l0.243,0.028l0.242,0.029l0.242,0.03l0.243,0.03l0.241,0.031l0.242,0.032l0.241,0.033l0.241,0.033l0.241,0.034l0.241,0.035l0.24,0.036l0.24,0.036l0.24,0.037l0.24,0.038l0.239,0.039l0.24,0.039l0.239,0.04l0.238,0.041l0.239,0.041l0.238,0.042l0.238,0.043l0.237,0.044l0.238,0.044l0.237,0.046l0.237,0.045l0.237,0.047l0.236,0.047l0.236,0.048l0.236,0.049l0.236,0.049l0.235,0.05l0.235,0.051l0.235,0.052l0.235,0.052l0.234,0.053l0.234,0.054l0.234,0.054l0.233,0.055l0.466,0.113l0.466,0.115l0.464,0.118l0.462,0.121l0.462,0.123l0.461,0.126l0.459,0.129l0.458,0.132l0.458,0.135l0.456,0.137l0.454,0.14l0.454,0.143l0.452,0.145l0.451,0.149l0.45,0.15l0.449,0.154l0.448,0.156l0.446,0.159l0.445,0.161l0.444,0.165l0.442,0.166l0.441,0.17l0.44,0.172l0.438,0.174l0.438,0.178l0.436,0.179l0.434,0.183l0.433,0.185l0.432,0.187l0.431,0.19l0.429,0.193l0.427,0.195l0.427,0.197l0.425,0.201l0.423,0.202l0.422,0.205l0.421,0.208l0.419,0.21l0.418,0.212l0.416,0.215l0.415,0.218l0.414,0.22l0.411,0.222l0.411,0.225l0.409,0.227l0.407,0.229l0.406,0.232l0.404,0.234l0.403,0.237l0.401,0.239l0.4,0.241l0.398,0.244l0.396,0.246l0.395,0.248l0.393,0.25l0.392,0.253l0.39,0.255l0.389,0.258l0.386,0.26l0.385,0.261l0.384,0.265l0.382,0.266l0.38,0.269l0.378,0.271l0.377,0.273l0.375,0.275l0.373,0.278l0.372,0.279l0.37,0.282l0.368,0.284l0.366,0.287l0.365,0.288l0.363,0.29l0.361,0.293l0.359,0.295l0.357,0.296l0.356,0.299l0.354,0.301l0.352,0.303l0.35,0.306l0.348,0.307l0.346,0.309l0.345,0.311l0.343,0.314l0.34,0.315l0.339,0.318l0.337,0.319l0.335,0.321l0.333,0.324l0.332,0.325l0.329,0.327l0.327,0.329l0.326,0.332l0.323,0.333l0.321,0.335l0.32,0.337l0.317,0.339l0.315,0.34l0.314,0.343l0.311,0.345l0.309,0.346l0.308,0.348l0.305,0.351l0.303,0.351l0.301,0.354l0.299,0.356l0.297,0.357l0.294,0.36l0.293,0.361l0.29,0.362l0.289,0.365l0.286,0.366l0.284,0.368l0.282,0.37l0.279,0.372l0.278,0.373l0.275,0.375l0.273,0.377l0.271,0.378l0.269,0.38l0.266,0.382l0.265,0.384l0.262,0.385l0.259,0.387l0.258,0.388l0.255,0.39l0.253,0.392l0.25,0.393l0.249,0.395l0.246,0.396l0.243,0.398l0.242,0.4l0.238,0.401l0.237,0.403l0.234,0.404l0.232,0.406l0.23,0.408l0.227,0.408l0.224,0.411l0.223,0.412l0.219,0.413l0.218,0.415l0.215,0.416l0.212,0.418l0.21,0.419l0.208,0.421l0.205,0.422l0.203,0.423l0.2,0.425l0.197,0.427l0.195,0.427l0.193,0.43l0.19,0.43l0.187,0.432l0.185,0.433l0.183,0.435l0.18,0.436l0.177,0.437l0.174,0.438l0.172,0.44l0.17,0.441l0.167,0.443l0.164,0.443l0.161,0.445l0.159,0.447l0.156,0.447l0.154,0.449l0.151,0.45l0.148,0.451l0.145,0.452l0.143,0.454l0.14,0.455l0.137,0.456l0.135,0.457l0.132,0.458l0.129,0.459l0.126,0.461l0.124,0.462l0.12,0.463l0.118,0.464l0.115,0.465l0.113,0.466l0.055,0.233l0.054,0.234l0.054,0.234l0.053,0.235l0.052,0.234l0.052,0.235l0.051,0.235l0.05,0.235l0.049,0.236l0.049,0.236l0.048,0.236l0.047,0.236l0.047,0.237l0.046,0.237l0.045,0.237l0.044,0.238l0.044,0.237l0.043,0.238l0.042,0.239l0.041,0.238l0.041,0.239l0.04,0.239l0.039,0.239l0.039,0.239l0.038,0.24l0.037,0.24l0.036,0.24l0.036,0.24l0.035,0.241l0.034,0.241l0.033,0.241l0.033,0.241l0.032,0.242l0.031,0.242l0.03,0.242l0.03,0.242l0.029,0.242l0.028,0.243l0.028,0.243l0.026,0.243l0.026,0.244l0.025,0.243l0.025,0.244l0.023,0.244l0.023,0.245l0.022,0.244l0.022,0.245l0.02,0.245l0.02,0.245l0.019,0.245l0.019,0.246l0.017,0.246l0.017,0.246l0.016,0.246l0.015,0.246l0.015,0.247l0.013,0.247l0.013,0.247l0.013,0.247l0.011,0.247l0.011,0.248l0.009,0.248l0.009,0.248l0.009,0.248l0.007,0.249l0.007,0.248l0.006,0.249l0.005,0.249l0.004,0.249l0.004,0.25l0.003,0.249l0.002,0.25l0.001,0.25l0,0.25l0,0.25l-0.001,0.25l-0.002,0.25l-0.003,0.25l-0.004,0.249l-0.004,0.249l-0.005,0.249l-0.006,0.249l-0.007,0.249l-0.007,0.248l-0.009,0.248l-0.009,0.248l-0.009,0.248l-0.011,0.248l-0.011,0.247l-0.013,0.247l-0.013,0.247l-0.013,0.247l-0.015,0.247l-0.015,0.246l-0.016,0.247l-0.017,0.246l-0.017,0.245l-0.019,0.246l-0.019,0.245l-0.02,0.245l-0.02,0.245l-0.022,0.245l-0.022,0.245l-0.023,0.244l-0.023,0.244l-0.025,0.244l-0.025,0.243l-0.026,0.244l-0.026,0.243l-0.028,0.243l-0.028,0.243l-0.029,0.242l-0.03,0.242l-0.03,0.243l-0.031,0.241l-0.032,0.242l-0.033,0.241l-0.033,0.241l-0.034,0.241l-0.035,0.241l-0.036,0.24l-0.036,0.24l-0.037,0.24l-0.038,0.24l-0.039,0.239l-0.039,0.24l-0.04,0.239l-0.041,0.238l-0.041,0.239l-0.042,0.238l-0.043,0.238l-0.044,0.237l-0.044,0.238l-0.045,0.237l-0.046,0.237l-0.047,0.237l-0.047,0.236l-0.048,0.236l-0.049,0.236l-0.049,0.236l-0.05,0.235l-0.051,0.235l-0.052,0.235l-0.052,0.235l-0.053,0.234l-0.054,0.234l-0.054,0.234l-0.055,0.233l-0.113,0.466l-0.115,0.466l-0.118,0.464l-0.12,0.462l-0.124,0.462l-0.126,0.461l-0.129,0.459l-0.132,0.458l-0.135,0.458l-0.137,0.456l-0.14,0.454l-0.143,0.454l-0.145,0.452l-0.148,0.451l-0.151,0.45l-0.154,0.449l-0.156,0.448l-0.159,0.446l-0.161,0.445l-0.164,0.444l-0.167,0.442l-0.17,0.441l-0.172,0.44l-0.174,0.438l-0.177,0.438l-0.18,0.436l-0.183,0.434l-0.185,0.433l-0.187,0.432l-0.19,0.431l-0.193,0.429l-0.195,0.427l-0.197,0.427l-0.2,0.425l-0.203,0.423l-0.205,0.422l-0.208,0.421l-0.21,0.419l-0.212,0.418l-0.215,0.416l-0.218,0.415l-0.219,0.414l-0.223,0.411l-0.224,0.411l-0.227,0.409l-0.23,0.407l-0.232,0.406l-0.234,0.404l-0.237,0.403l-0.238,0.401l-0.242,0.4l-0.243,0.398l-0.246,0.396l-0.249,0.395l-0.25,0.393l-0.253,0.392l-0.255,0.39l-0.258,0.389l-0.259,0.386l-0.262,0.385l-0.265,0.384l-0.266,0.382l-0.269,0.38l-0.271,0.378l-0.273,0.377l-0.275,0.375l-0.278,0.373l-0.279,0.372l-0.282,0.37l-0.284,0.368l-0.286,0.366l-0.289,0.365l-0.29,0.363l-0.293,0.361l-0.294,0.359l-0.297,0.357l-0.299,0.356l-0.301,0.354l-0.303,0.352l-0.305,0.35l-0.308,0.348l-0.309,0.346l-0.311,0.345l-0.314,0.343l-0.315,0.34l-0.317,0.339l-0.32,0.337l-0.321,0.335l-0.323,0.333l-0.326,0.332l-0.327,0.329l-0.329,0.327l-0.332,0.326l-0.333,0.323l-0.335,0.321l-0.337,0.32l-0.339,0.317l-0.34,0.315l-0.343,0.314l-0.345,0.311l-0.346,0.309l-0.348,0.308l-0.35,0.305l-0.352,0.303l-0.354,0.301l-0.356,0.299l-0.357,0.297l-0.359,0.294l-0.361,0.293l-0.363,0.29l-0.365,0.289l-0.366,0.286l-0.368,0.284l-0.37,0.282l-0.372,0.279l-0.373,0.278l-0.375,0.275l-0.377,0.273l-0.378,0.271l-0.38,0.269l-0.382,0.266l-0.384,0.265l-0.385,0.262l-0.386,0.259l-0.389,0.258l-0.39,0.255l-0.392,0.253l-0.393,0.25l-0.395,0.249l-0.396,0.246l-0.398,0.243l-0.4,0.242l-0.401,0.238l-0.403,0.237l-0.404,0.234l-0.406,0.232l-0.407,0.23l-0.409,0.227l-0.411,0.224l-0.411,0.223l-0.414,0.219l-0.415,0.218l-0.416,0.215l-0.418,0.212l-0.419,0.21l-0.421,0.208l-0.422,0.205l-0.423,0.203l-0.425,0.2l-0.427,0.197l-0.427,0.195l-0.429,0.193l-0.431,0.19l-0.432,0.187l-0.433,0.185l-0.434,0.183l-0.436,0.18l-0.438,0.177l-0.438,0.174l-0.44,0.172l-0.441,0.17l-0.442,0.167l-0.444,0.164l-0.445,0.161l-0.446,0.159l-0.448,0.156l-0.449,0.154l-0.45,0.151l-0.451,0.148l-0.452,0.145l-0.454,0.143l-0.454,0.14l-0.456,0.137l-0.458,0.135l-0.458,0.132l-0.459,0.129l-0.461,0.126l-0.462,0.124l-0.462,0.12l-0.464,0.118l-0.466,0.115l-0.466,0.113l-0.233,0.055l-0.234,0.054l-0.234,0.054l-0.234,0.053l-0.235,0.052l-0.235,0.052l-0.235,0.051l-0.235,0.05l-0.236,0.049l-0.236,0.049l-0.236,0.048l-0.236,0.047l-0.237,0.047l-0.237,0.046l-0.237,0.045l-0.238,0.044l-0.237,0.044l-0.238,0.043l-0.238,0.042l-0.239,0.041l-0.238,0.041l-0.239,0.04l-0.24,0.039l-0.239,0.039l-0.24,0.038l-0.24,0.037l-0.24,0.036l-0.24,0.036l-0.241,0.035l-0.241,0.034l-0.241,0.033l-0.241,0.033l-0.242,0.032l-0.241,0.031l-0.243,0.03l-0.242,0.03l-0.242,0.029l-0.243,0.028l-0.243,0.028l-0.243,0.026l-0.244,0.026l-0.243,0.025l-0.244,0.025l-0.244,0.023l-0.244,0.023l-0.245,0.022l-0.245,0.022l-0.245,0.02l-0.245,0.02l-0.245,0.019l-0.246,0.019l-0.245,0.017l-0.246,0.017l-0.247,0.016l-0.246,0.015l-0.247,0.015l-0.247,0.013l-0.247,0.013l-0.247,0.013l-0.247,0.011l-0.248,0.011l-0.248,0.009l-0.248,0.009l-0.248,0.009l-0.248,0.007l-0.249,0.007l-0.249,0.006l-0.249,0.005l-0.249,0.004l-0.249,0.004l-0.25,0.003l-0.25,0.002l-0.25,0.001l-0.25,0l-0.25,0l-0.25,-0.001l-0.25,-0.002l-0.249,-0.003l-0.25,-0.004l-0.249,-0.004l-0.249,-0.005l-0.249,-0.006l-0.248,-0.007l-0.249,-0.007l-0.248,-0.009l-0.248,-0.009l-0.248,-0.009l-0.248,-0.011l-0.247,-0.011l-0.247,-0.013l-0.247,-0.013l-0.247,-0.013l-0.247,-0.015l-0.246,-0.015l-0.246,-0.016l-0.246,-0.017l-0.246,-0.017l-0.246,-0.019l-0.245,-0.019l-0.245,-0.02l-0.245,-0.02l-0.245,-0.022l-0.244,-0.022l-0.245,-0.023l-0.244,-0.023l-0.244,-0.025l-0.243,-0.025l-0.244,-0.026l-0.243,-0.026l-0.243,-0.028l-0.243,-0.028l-0.242,-0.029l-0.242,-0.03l-0.242,-0.03l-0.242,-0.031l-0.242,-0.032l-0.241,-0.033l-0.241,-0.033l-0.241,-0.034l-0.241,-0.035l-0.24,-0.036l-0.24,-0.036l-0.24,-0.037l-0.24,-0.038l-0.239,-0.039l-0.239,-0.039l-0.239,-0.04l-0.239,-0.041l-0.238,-0.041l-0.239,-0.042l-0.238,-0.043l-0.237,-0.044l-0.238,-0.044l-0.237,-0.045l-0.237,-0.046l-0.237,-0.047l-0.236,-0.047l-0.236,-0.048l-0.236,-0.049l-0.236,-0.049l-0.235,-0.05l-0.235,-0.051l-0.235,-0.052l-0.234,-0.052l-0.235,-0.053l-0.234,-0.054l-0.234,-0.054l-0.233,-0.055l-0.466,-0.113l-0.465,-0.115l-0.464,-0.118l-0.463,-0.12l-0.462,-0.124l-0.461,-0.126l-0.459,-0.129l-0.458,-0.132l-0.457,-0.135l-0.456,-0.137l-0.455,-0.14l-0.454,-0.143l-0.452,-0.145l-0.451,-0.148l-0.45,-0.151l-0.449,-0.154l-0.447,-0.156l-0.447,-0.159l-0.445,-0.161l-0.443,-0.164l-0.443,-0.167l-0.441,-0.17l-0.44,-0.172l-0.438,-0.174l-0.437,-0.177l-0.436,-0.18l-0.435,-0.183l-0.433,-0.185l-0.432,-0.187l-0.43,-0.19l-0.43,-0.193l-0.427,-0.195l-0.427,-0.197l-0.425,-0.2l-0.423,-0.203l-0.422,-0.205l-0.421,-0.208l-0.419,-0.21l-0.418,-0.212l-0.416,-0.215l-0.415,-0.218l-0.413,-0.219l-0.412,-0.223l-0.411,-0.224l-0.408,-0.227l-0.408,-0.23l-0.406,-0.232l-0.404,-0.234l-0.403,-0.237l-0.401,-0.238l-0.4,-0.242l-0.398,-0.243l-0.396,-0.246l-0.395,-0.249l-0.393,-0.25l-0.392,-0.253l-0.39,-0.255l-0.388,-0.258l-0.387,-0.259l-0.385,-0.262l-0.384,-0.265l-0.382,-0.266l-0.38,-0.269l-0.378,-0.271l-0.377,-0.273l-0.375,-0.275l-0.373,-0.278l-0.372,-0.279l-0.37,-0.282l-0.368,-0.284l-0.366,-0.286l-0.365,-0.289l-0.362,-0.29l-0.361,-0.293l-0.36,-0.294l-0.357,-0.297l-0.356,-0.299l-0.354,-0.301l-0.351,-0.303l-0.351,-0.305l-0.348,-0.308l-0.346,-0.309l-0.345,-0.311l-0.343,-0.314l-0.34,-0.315l-0.339,-0.317l-0.337,-0.32l-0.335,-0.321l-0.333,-0.323l-0.332,-0.326l-0.329,-0.327l-0.327,-0.329l-0.325,-0.332l-0.324,-0.333l-0.321,-0.335l-0.319,-0.337l-0.318,-0.339l-0.315,-0.34l-0.314,-0.343l-0.311,-0.345l-0.309,-0.346l-0.307,-0.348l-0.306,-0.35l-0.303,-0.352l-0.301,-0.354l-0.299,-0.356l-0.296,-0.357l-0.295,-0.359l-0.293,-0.361l-0.29,-0.363l-0.288,-0.365l-0.287,-0.366l-0.284,-0.368l-0.282,-0.37l-0.279,-0.372l-0.278,-0.373l-0.275,-0.375l-0.273,-0.377l-0.271,-0.378l-0.269,-0.38l-0.266,-0.382l-0.265,-0.384l-0.261,-0.385l-0.26,-0.386l-0.258,-0.389l-0.255,-0.39l-0.253,-0.392l-0.25,-0.393l-0.248,-0.395l-0.246,-0.396l-0.244,-0.398l-0.241,-0.4l-0.239,-0.401l-0.237,-0.403l-0.234,-0.404l-0.232,-0.406l-0.229,-0.407l-0.227,-0.409l-0.225,-0.411l-0.222,-0.411l-0.22,-0.414l-0.218,-0.415l-0.215,-0.416l-0.212,-0.418l-0.21,-0.419l-0.208,-0.421l-0.205,-0.422l-0.202,-0.423l-0.201,-0.425l-0.197,-0.427l-0.195,-0.427l-0.193,-0.429l-0.19,-0.431l-0.187,-0.432l-0.185,-0.433l-0.183,-0.434l-0.179,-0.436l-0.178,-0.438l-0.174,-0.438l-0.172,-0.44l-0.17,-0.441l-0.166,-0.442l-0.165,-0.444l-0.161,-0.445l-0.159,-0.446l-0.156,-0.448l-0.154,-0.449l-0.15,-0.45l-0.149,-0.451l-0.145,-0.452l-0.143,-0.454l-0.14,-0.454l-0.137,-0.456l-0.135,-0.458l-0.132,-0.458l-0.129,-0.459l-0.126,-0.461l-0.123,-0.462l-0.121,-0.462l-0.118,-0.464l-0.115,-0.466l-0.113,-0.466l-0.055,-0.233l-0.054,-0.234l-0.054,-0.234l-0.053,-0.234l-0.052,-0.235l-0.052,-0.235l-0.051,-0.235l-0.05,-0.235l-0.049,-0.236l-0.049,-0.236l-0.048,-0.236l-0.047,-0.236l-0.047,-0.237l-0.045,-0.237l-0.046,-0.237l-0.044,-0.238l-0.044,-0.237l-0.043,-0.238l-0.042,-0.238l-0.041,-0.239l-0.041,-0.238l-0.04,-0.239l-0.039,-0.24l-0.039,-0.239l-0.038,-0.24l-0.037,-0.24l-0.036,-0.24l-0.036,-0.24l-0.035,-0.241l-0.034,-0.241l-0.033,-0.241l-0.033,-0.241l-0.032,-0.242l-0.031,-0.241l-0.03,-0.243l-0.03,-0.242l-0.029,-0.242l-0.028,-0.243l-0.027,-0.243l-0.027,-0.243l-0.026,-0.244l-0.025,-0.243l-0.025,-0.244l-0.023,-0.244l-0.023,-0.244l-0.022,-0.245l-0.022,-0.245l-0.02,-0.245l-0.02,-0.245l-0.019,-0.245l-0.019,-0.246l-0.017,-0.245l-0.017,-0.246l-0.016,-0.247l-0.015,-0.246l-0.015,-0.247l-0.013,-0.247l-0.013,-0.247l-0.012,-0.247l-0.012,-0.247l-0.01,-0.248l-0.01,-0.248l-0.009,-0.248l-0.009,-0.248l-0.007,-0.248l-0.007,-0.249l-0.006,-0.249l-0.005,-0.249l-0.004,-0.249l-0.004,-0.249l-0.002,-0.25l-0.002,-0.25l-0.002,-0.25l0,-0.25l0,-0.25l0.002,-0.25l0.002,-0.25l0.002,-0.249l0.004,-0.25l0.004,-0.249l0.005,-0.249l0.006,-0.249l0.007,-0.248l0.007,-0.249l0.009,-0.248l0.009,-0.248l0.01,-0.248l0.01,-0.248l0.012,-0.247l0.012,-0.247l0.013,-0.247l0.013,-0.247l0.015,-0.247l0.015,-0.246l0.016,-0.246l0.017,-0.246l0.017,-0.246l0.019,-0.246l0.019,-0.245l0.02,-0.245l0.02,-0.245l0.022,-0.245l0.022,-0.244l0.023,-0.245l0.023,-0.244l0.025,-0.244l0.025,-0.243l0.026,-0.244l0.027,-0.243l0.027,-0.243l0.028,-0.243l0.029,-0.242l0.03,-0.242l0.03,-0.242l0.031,-0.242l0.032,-0.242l0.033,-0.241l0.033,-0.241l0.034,-0.241l0.035,-0.241l0.036,-0.24l0.036,-0.24l0.037,-0.24l0.038,-0.24l0.039,-0.239l0.039,-0.239l0.04,-0.239l0.041,-0.239l0.041,-0.238l0.042,-0.239l0.043,-0.238l0.044,-0.237l0.044,-0.238l0.046,-0.237l0.045,-0.237l0.047,-0.237l0.047,-0.236l0.048,-0.236l0.049,-0.236l0.049,-0.236l0.05,-0.235l0.051,-0.235l0.052,-0.235l0.052,-0.234l0.053,-0.235l0.054,-0.234l0.054,-0.234l0.055,-0.233l0.113,-0.466l0.115,-0.465l0.118,-0.464l0.121,-0.463l0.123,-0.462l0.126,-0.461l0.129,-0.459l0.132,-0.458l0.135,-0.457l0.137,-0.456l0.14,-0.455l0.143,-0.454l0.145,-0.452l0.149,-0.451l0.15,-0.45l0.154,-0.449l0.156,-0.447l0.159,-0.447l0.161,-0.445l0.165,-0.443l0.166,-0.443l0.17,-0.441l0.172,-0.44l0.174,-0.438l0.178,-0.437l0.179,-0.436l0.183,-0.435l0.185,-0.433l0.187,-0.432l0.19,-0.43l0.193,-0.43l0.195,-0.427l0.197,-0.427l0.201,-0.425l0.202,-0.423l0.205,-0.422l0.208,-0.421l0.21,-0.419l0.212,-0.418l0.215,-0.416l0.218,-0.415l0.22,-0.413l0.222,-0.412l0.225,-0.411l0.227,-0.408l0.229,-0.408l0.232,-0.406l0.234,-0.404l0.237,-0.403l0.239,-0.401l0.241,-0.4l0.244,-0.398l0.246,-0.396l0.248,-0.395l0.25,-0.393l0.253,-0.392l0.255,-0.39l0.258,-0.388l0.26,-0.387l0.261,-0.385l0.265,-0.384l0.266,-0.382l0.269,-0.38l0.271,-0.378l0.273,-0.377l0.275,-0.375l0.278,-0.373l0.279,-0.372l0.282,-0.37l0.284,-0.368l0.287,-0.366l0.288,-0.365l0.29,-0.362l0.293,-0.361l0.295,-0.36l0.296,-0.357l0.299,-0.356l0.301,-0.354l0.303,-0.351l0.306,-0.351l0.307,-0.348l0.309,-0.346l0.311,-0.345l0.314,-0.343l0.315,-0.34l0.318,-0.339l0.319,-0.337l0.321,-0.335l0.324,-0.333l0.325,-0.332l0.327,-0.329l0.329,-0.327l0.332,-0.325l0.333,-0.324l0.335,-0.321l0.337,-0.319l0.339,-0.318l0.34,-0.315l0.343,-0.314l0.345,-0.311l0.346,-0.309l0.348,-0.307l0.351,-0.306l0.351,-0.303l0.354,-0.301l0.356,-0.299l0.357,-0.296l0.36,-0.295l0.361,-0.293l0.362,-0.29l0.365,-0.288l0.366,-0.287l0.368,-0.284l0.37,-0.282l0.372,-0.279l0.373,-0.278l0.375,-0.275l0.377,-0.273l0.378,-0.271l0.38,-0.269l0.382,-0.266l0.384,-0.265l0.385,-0.261l0.387,-0.26l0.388,-0.258l0.39,-0.255l0.392,-0.253l0.393,-0.25l0.395,-0.248l0.396,-0.246l0.398,-0.244l0.4,-0.241l0.401,-0.239l0.403,-0.237l0.404,-0.234l0.406,-0.232l0.408,-0.229l0.408,-0.227l0.411,-0.225l0.412,-0.222l0.413,-0.22l0.415,-0.218l0.416,-0.215l0.418,-0.212l0.419,-0.21l0.421,-0.208l0.422,-0.205l0.423,-0.202l0.425,-0.201l0.427,-0.197l0.427,-0.195l0.43,-0.193l0.43,-0.19l0.432,-0.187l0.433,-0.185l0.435,-0.183l0.436,-0.179l0.437,-0.178l0.438,-0.174l0.44,-0.172l0.441,-0.17l0.443,-0.166l0.443,-0.165l0.445,-0.161l0.447,-0.159l0.447,-0.156l0.449,-0.154l0.45,-0.15l0.451,-0.149l0.452,-0.145l0.454,-0.143l0.455,-0.14l0.456,-0.137l0.457,-0.135l0.458,-0.132l0.459,-0.129l0.461,-0.126l0.462,-0.123l0.463,-0.121l0.464,-0.118l0.465,-0.115l0.466,-0.113l0.233,-0.055l0.234,-0.054l0.234,-0.054l0.235,-0.053l0.234,-0.052l0.235,-0.052l0.235,-0.051l0.235,-0.05l0.236,-0.049l0.236,-0.049l0.236,-0.048l0.236,-0.047l0.237,-0.047l0.237,-0.045l0.237,-0.046l0.238,-0.044l0.237,-0.044l0.238,-0.043l0.239,-0.042l0.238,-0.041l0.239,-0.041l0.239,-0.04l0.239,-0.039l0.239,-0.039l0.24,-0.038l0.24,-0.037l0.24,-0.036l0.24,-0.036l0.241,-0.035l0.241,-0.034l0.241,-0.033l0.241,-0.033l0.242,-0.032l0.242,-0.031l0.242,-0.03l0.242,-0.03l0.242,-0.029l0.243,-0.028l0.243,-0.027l0.243,-0.027l0.244,-0.026l0.243,-0.025l0.244,-0.025l0.244,-0.023l0.245,-0.023l0.244,-0.022l0.245,-0.022l0.245,-0.02l0.245,-0.02l0.245,-0.019l0.246,-0.019l0.246,-0.017l0.246,-0.017l0.246,-0.016l0.246,-0.015l0.247,-0.015l0.247,-0.013l0.247,-0.013l0.247,-0.012l0.247,-0.012l0.248,-0.01l0.248,-0.01l0.248,-0.009l0.248,-0.009l0.249,-0.007l0.248,-0.007l0.249,-0.006l0.249,-0.005l0.249,-0.004l0.25,-0.004l0.249,-0.002l0.25,-0.002l0.25,-0.002l0.25,0l0.25,0Zm-0.462,12l-0.212,0.001l-0.212,0.002l-0.211,0.002l-0.211,0.003l-0.212,0.004l-0.211,0.004l-0.21,0.005l-0.211,0.006l-0.21,0.006l-0.211,0.007l-0.21,0.008l-0.21,0.008l-0.209,0.009l-0.21,0.01l-0.209,0.01l-0.209,0.011l-0.209,0.012l-0.209,0.012l-0.208,0.013l-0.208,0.014l-0.208,0.014l-0.208,0.015l-0.208,0.015l-0.208,0.016l-0.207,0.017l-0.207,0.017l-0.207,0.019l-0.207,0.018l-0.206,0.02l-0.207,0.02l-0.206,0.02l-0.206,0.022l-0.205,0.021l-0.206,0.023l-0.205,0.023l-0.205,0.024l-0.205,0.024l-0.205,0.025l-0.204,0.026l-0.205,0.026l-0.204,0.027l-0.203,0.028l-0.204,0.028l-0.204,0.029l-0.203,0.029l-0.203,0.031l-0.203,0.03l-0.202,0.032l-0.203,0.032l-0.202,0.032l-0.202,0.033l-0.201,0.034l-0.202,0.034l-0.201,0.035l-0.201,0.036l-0.201,0.036l-0.201,0.037l-0.2,0.038l-0.2,0.038l-0.2,0.038l-0.2,0.04l-0.2,0.04l-0.199,0.04l-0.199,0.041l-0.199,0.042l-0.198,0.042l-0.199,0.043l-0.198,0.044l-0.198,0.044l-0.198,0.044l-0.197,0.046l-0.197,0.046l-0.188,0.044l-0.403,0.097l-0.392,0.097l-0.391,0.1l-0.391,0.102l-0.39,0.104l-0.388,0.106l-0.388,0.109l-0.386,0.111l-0.386,0.114l-0.385,0.116l-0.383,0.118l-0.383,0.12l-0.382,0.123l-0.38,0.125l-0.38,0.127l-0.378,0.13l-0.378,0.132l-0.376,0.134l-0.376,0.136l-0.374,0.138l-0.373,0.141l-0.373,0.143l-0.371,0.145l-0.37,0.148l-0.369,0.149l-0.368,0.152l-0.366,0.154l-0.366,0.156l-0.365,0.158l-0.363,0.16l-0.362,0.163l-0.361,0.165l-0.36,0.166l-0.359,0.169l-0.357,0.171l-0.357,0.174l-0.355,0.175l-0.354,0.177l-0.353,0.18l-0.351,0.181l-0.351,0.184l-0.349,0.186l-0.348,0.187l-0.346,0.19l-0.346,0.192l-0.344,0.194l-0.343,0.196l-0.341,0.197l-0.341,0.2l-0.339,0.202l-0.337,0.204l-0.337,0.206l-0.335,0.208l-0.333,0.21l-0.333,0.211l-0.331,0.214l-0.33,0.216l-0.328,0.217l-0.327,0.22l-0.325,0.221l-0.325,0.224l-0.322,0.225l-0.322,0.227l-0.32,0.229l-0.318,0.231l-0.317,0.233l-0.316,0.235l-0.314,0.236l-0.313,0.239l-0.311,0.24l-0.31,0.242l-0.309,0.244l-0.307,0.245l-0.305,0.248l-0.304,0.249l-0.302,0.251l-0.301,0.253l-0.299,0.255l-0.298,0.256l-0.296,0.258l-0.295,0.26l-0.293,0.262l-0.291,0.263l-0.29,0.265l-0.289,0.267l-0.286,0.269l-0.285,0.27l-0.284,0.272l-0.282,0.273l-0.28,0.276l-0.278,0.277l-0.277,0.278l-0.276,0.28l-0.273,0.282l-0.272,0.284l-0.27,0.285l-0.269,0.286l-0.267,0.289l-0.265,0.29l-0.263,0.291l-0.262,0.293l-0.26,0.295l-0.258,0.296l-0.256,0.298l-0.255,0.299l-0.253,0.301l-0.251,0.302l-0.249,0.304l-0.248,0.305l-0.245,0.307l-0.244,0.309l-0.242,0.31l-0.24,0.311l-0.239,0.313l-0.236,0.314l-0.235,0.316l-0.233,0.317l-0.231,0.318l-0.229,0.32l-0.227,0.322l-0.225,0.322l-0.224,0.325l-0.221,0.325l-0.22,0.327l-0.217,0.328l-0.216,0.33l-0.214,0.331l-0.211,0.333l-0.21,0.333l-0.208,0.335l-0.206,0.337l-0.204,0.337l-0.202,0.339l-0.2,0.341l-0.197,0.341l-0.196,0.343l-0.194,0.344l-0.192,0.346l-0.19,0.346l-0.187,0.348l-0.186,0.349l-0.184,0.351l-0.181,0.351l-0.18,0.353l-0.177,0.354l-0.175,0.355l-0.174,0.357l-0.171,0.357l-0.169,0.359l-0.166,0.36l-0.165,0.361l-0.163,0.362l-0.16,0.363l-0.158,0.365l-0.156,0.366l-0.154,0.366l-0.152,0.368l-0.149,0.369l-0.148,0.37l-0.145,0.371l-0.143,0.373l-0.141,0.373l-0.138,0.374l-0.136,0.376l-0.134,0.376l-0.132,0.378l-0.13,0.378l-0.127,0.38l-0.125,0.38l-0.123,0.382l-0.12,0.383l-0.118,0.383l-0.116,0.385l-0.114,0.386l-0.111,0.386l-0.109,0.388l-0.106,0.388l-0.104,0.39l-0.102,0.391l-0.1,0.391l-0.097,0.392l-0.097,0.403l-0.044,0.188l-0.046,0.197l-0.046,0.197l-0.044,0.198l-0.044,0.198l-0.044,0.198l-0.043,0.199l-0.042,0.198l-0.042,0.199l-0.041,0.199l-0.04,0.199l-0.04,0.2l-0.04,0.2l-0.038,0.2l-0.038,0.2l-0.038,0.2l-0.037,0.201l-0.036,0.201l-0.036,0.201l-0.035,0.201l-0.034,0.202l-0.034,0.201l-0.033,0.202l-0.032,0.202l-0.032,0.203l-0.032,0.202l-0.03,0.203l-0.031,0.203l-0.029,0.203l-0.029,0.204l-0.028,0.204l-0.028,0.203l-0.027,0.204l-0.026,0.205l-0.026,0.204l-0.025,0.205l-0.024,0.205l-0.024,0.205l-0.023,0.205l-0.023,0.206l-0.021,0.205l-0.022,0.206l-0.02,0.206l-0.02,0.207l-0.02,0.206l-0.018,0.207l-0.019,0.207l-0.017,0.207l-0.017,0.207l-0.016,0.208l-0.015,0.208l-0.015,0.208l-0.014,0.208l-0.014,0.208l-0.013,0.208l-0.012,0.209l-0.012,0.209l-0.011,0.209l-0.01,0.209l-0.01,0.21l-0.009,0.209l-0.008,0.21l-0.008,0.21l-0.007,0.211l-0.006,0.21l-0.006,0.211l-0.005,0.21l-0.004,0.211l-0.004,0.212l-0.003,0.211l-0.002,0.211l-0.002,0.212l-0.001,0.212l0,0.212l0,0.212l0.001,0.212l0.002,0.212l0.002,0.211l0.003,0.212l0.004,0.211l0.004,0.211l0.005,0.211l0.006,0.21l0.006,0.211l0.007,0.21l0.008,0.21l0.008,0.21l0.009,0.209l0.01,0.21l0.01,0.209l0.011,0.209l0.012,0.209l0.012,0.209l0.013,0.208l0.014,0.209l0.014,0.208l0.015,0.208l0.015,0.207l0.016,0.208l0.017,0.207l0.017,0.207l0.019,0.207l0.018,0.207l0.02,0.206l0.02,0.207l0.02,0.206l0.022,0.206l0.021,0.205l0.023,0.206l0.023,0.205l0.024,0.205l0.024,0.205l0.025,0.205l0.026,0.204l0.026,0.205l0.027,0.204l0.028,0.204l0.028,0.203l0.029,0.204l0.029,0.203l0.031,0.203l0.03,0.203l0.032,0.202l0.032,0.203l0.032,0.202l0.033,0.202l0.034,0.202l0.034,0.201l0.035,0.201l0.036,0.201l0.036,0.201l0.037,0.201l0.038,0.2l0.038,0.2l0.038,0.2l0.04,0.2l0.04,0.2l0.04,0.199l0.041,0.199l0.042,0.199l0.042,0.199l0.043,0.198l0.044,0.198l0.044,0.198l0.044,0.198l0.046,0.197l0.046,0.197l0.044,0.188l0.097,0.403l0.097,0.392l0.1,0.392l0.102,0.39l0.104,0.39l0.106,0.388l0.109,0.388l0.111,0.386l0.114,0.386l0.116,0.385l0.118,0.383l0.12,0.383l0.123,0.382l0.125,0.38l0.127,0.38l0.13,0.379l0.132,0.377l0.134,0.377l0.136,0.375l0.138,0.374l0.141,0.374l0.143,0.372l0.145,0.371l0.148,0.37l0.149,0.369l0.152,0.368l0.154,0.367l0.156,0.365l0.158,0.365l0.16,0.363l0.163,0.362l0.165,0.361l0.166,0.36l0.169,0.359l0.171,0.358l0.174,0.356l0.175,0.355l0.177,0.354l0.18,0.353l0.181,0.351l0.184,0.351l0.186,0.349l0.187,0.348l0.19,0.347l0.192,0.345l0.194,0.344l0.196,0.343l0.197,0.341l0.2,0.341l0.202,0.339l0.204,0.337l0.206,0.337l0.208,0.335l0.21,0.334l0.211,0.332l0.214,0.331l0.216,0.33l0.217,0.328l0.22,0.327l0.221,0.326l0.224,0.324l0.225,0.323l0.227,0.321l0.229,0.32l0.231,0.318l0.233,0.318l0.235,0.315l0.236,0.315l0.239,0.312l0.24,0.312l0.242,0.309l0.244,0.309l0.245,0.307l0.248,0.305l0.249,0.304l0.251,0.302l0.253,0.301l0.255,0.299l0.256,0.298l0.258,0.296l0.26,0.295l0.262,0.293l0.263,0.292l0.265,0.289l0.267,0.289l0.269,0.286l0.27,0.286l0.272,0.283l0.273,0.282l0.276,0.28l0.277,0.279l0.278,0.277l0.28,0.275l0.282,0.273l0.284,0.272l0.285,0.27l0.287,0.269l0.288,0.267l0.29,0.265l0.291,0.263l0.293,0.262l0.295,0.26l0.296,0.258l0.298,0.256l0.299,0.255l0.301,0.253l0.302,0.251l0.304,0.249l0.305,0.248l0.307,0.245l0.309,0.244l0.31,0.242l0.311,0.24l0.313,0.239l0.314,0.237l0.315,0.234l0.318,0.233l0.318,0.231l0.32,0.229l0.322,0.227l0.322,0.225l0.325,0.224l0.325,0.221l0.327,0.22l0.328,0.217l0.33,0.216l0.331,0.214l0.333,0.212l0.333,0.209l0.335,0.208l0.337,0.206l0.338,0.204l0.339,0.202l0.34,0.2l0.341,0.198l0.343,0.196l0.344,0.193l0.346,0.192l0.346,0.19l0.348,0.188l0.349,0.185l0.351,0.184l0.351,0.181l0.353,0.18l0.354,0.177l0.355,0.176l0.357,0.173l0.357,0.171l0.359,0.169l0.36,0.167l0.361,0.164l0.362,0.163l0.363,0.16l0.365,0.158l0.366,0.156l0.366,0.154l0.368,0.152l0.369,0.15l0.37,0.147l0.371,0.145l0.373,0.143l0.373,0.141l0.374,0.138l0.376,0.137l0.376,0.134l0.378,0.131l0.378,0.13l0.38,0.127l0.38,0.125l0.382,0.123l0.383,0.12l0.383,0.118l0.385,0.116l0.386,0.114l0.386,0.111l0.388,0.109l0.388,0.106l0.39,0.105l0.391,0.102l0.391,0.099l0.392,0.097l0.403,0.097l0.188,0.045l0.197,0.045l0.197,0.046l0.198,0.044l0.198,0.045l0.198,0.043l0.199,0.043l0.198,0.042l0.199,0.042l0.199,0.041l0.2,0.041l0.199,0.039l0.2,0.04l0.2,0.038l0.2,0.039l0.2,0.037l0.201,0.037l0.201,0.036l0.201,0.036l0.201,0.035l0.202,0.034l0.201,0.034l0.202,0.033l0.202,0.033l0.203,0.032l0.202,0.031l0.203,0.031l0.203,0.03l0.203,0.029l0.204,0.029l0.203,0.028l0.204,0.028l0.204,0.027l0.205,0.026l0.204,0.026l0.205,0.025l0.205,0.024l0.205,0.024l0.205,0.023l0.205,0.023l0.206,0.022l0.206,0.021l0.206,0.021l0.207,0.02l0.206,0.019l0.207,0.019l0.207,0.018l0.207,0.017l0.208,0.017l0.207,0.016l0.207,0.016l0.208,0.014l0.209,0.015l0.208,0.013l0.208,0.013l0.209,0.012l0.209,0.012l0.209,0.011l0.209,0.01l0.21,0.01l0.209,0.009l0.21,0.008l0.21,0.008l0.21,0.007l0.211,0.006l0.211,0.006l0.211,0.005l0.21,0.004l0.211,0.004l0.212,0.003l0.211,0.002l0.212,0.002l0.212,0.001l0.212,0l0.212,0l0.212,-0.001l0.212,-0.002l0.211,-0.002l0.212,-0.003l0.211,-0.004l0.211,-0.004l0.211,-0.005l0.21,-0.006l0.211,-0.006l0.21,-0.007l0.21,-0.008l0.21,-0.008l0.209,-0.009l0.21,-0.01l0.209,-0.01l0.209,-0.011l0.209,-0.012l0.209,-0.012l0.208,-0.013l0.208,-0.013l0.209,-0.015l0.208,-0.014l0.207,-0.016l0.208,-0.016l0.207,-0.017l0.207,-0.017l0.207,-0.018l0.207,-0.019l0.206,-0.019l0.207,-0.02l0.206,-0.021l0.206,-0.021l0.206,-0.022l0.205,-0.023l0.205,-0.023l0.205,-0.024l0.205,-0.024l0.205,-0.025l0.204,-0.026l0.205,-0.026l0.204,-0.027l0.204,-0.028l0.203,-0.028l0.204,-0.029l0.203,-0.029l0.203,-0.03l0.203,-0.031l0.202,-0.031l0.203,-0.032l0.202,-0.033l0.202,-0.033l0.201,-0.034l0.202,-0.034l0.202,-0.035l0.2,-0.036l0.201,-0.036l0.201,-0.037l0.2,-0.037l0.2,-0.039l0.2,-0.038l0.2,-0.04l0.2,-0.039l0.199,-0.041l0.199,-0.041l0.199,-0.042l0.198,-0.042l0.199,-0.043l0.198,-0.043l0.198,-0.045l0.198,-0.044l0.197,-0.046l0.197,-0.045l0.188,-0.045l0.403,-0.097l0.392,-0.097l0.392,-0.099l0.39,-0.102l0.39,-0.105l0.388,-0.106l0.388,-0.109l0.386,-0.111l0.386,-0.114l0.385,-0.116l0.383,-0.118l0.383,-0.12l0.382,-0.123l0.38,-0.125l0.38,-0.127l0.379,-0.13l0.377,-0.131l0.376,-0.134l0.376,-0.137l0.374,-0.138l0.374,-0.141l0.372,-0.143l0.371,-0.145l0.37,-0.147l0.369,-0.15l0.368,-0.152l0.367,-0.154l0.365,-0.156l0.365,-0.158l0.363,-0.16l0.362,-0.163l0.361,-0.164l0.36,-0.167l0.359,-0.169l0.357,-0.171l0.357,-0.173l0.355,-0.176l0.354,-0.177l0.353,-0.18l0.351,-0.181l0.351,-0.184l0.349,-0.185l0.348,-0.188l0.347,-0.19l0.345,-0.192l0.344,-0.193l0.343,-0.196l0.341,-0.198l0.341,-0.2l0.339,-0.202l0.337,-0.204l0.337,-0.206l0.335,-0.208l0.334,-0.209l0.332,-0.212l0.331,-0.214l0.33,-0.216l0.328,-0.217l0.327,-0.22l0.326,-0.221l0.324,-0.224l0.322,-0.225l0.322,-0.227l0.32,-0.229l0.319,-0.231l0.317,-0.233l0.315,-0.234l0.314,-0.237l0.313,-0.238l0.312,-0.241l0.309,-0.242l0.309,-0.244l0.307,-0.245l0.305,-0.248l0.304,-0.249l0.302,-0.251l0.301,-0.253l0.299,-0.255l0.298,-0.256l0.296,-0.258l0.295,-0.26l0.293,-0.262l0.292,-0.263l0.289,-0.265l0.289,-0.267l0.286,-0.269l0.286,-0.27l0.283,-0.272l0.282,-0.273l0.28,-0.276l0.279,-0.276l0.276,-0.279l0.276,-0.28l0.273,-0.282l0.272,-0.283l0.27,-0.286l0.269,-0.286l0.267,-0.289l0.265,-0.289l0.263,-0.292l0.262,-0.293l0.26,-0.295l0.258,-0.296l0.256,-0.298l0.255,-0.299l0.253,-0.301l0.251,-0.302l0.249,-0.304l0.248,-0.305l0.245,-0.307l0.244,-0.309l0.242,-0.309l0.241,-0.312l0.238,-0.313l0.237,-0.314l0.234,-0.315l0.233,-0.317l0.231,-0.319l0.229,-0.32l0.227,-0.322l0.225,-0.322l0.224,-0.324l0.221,-0.326l0.22,-0.327l0.217,-0.328l0.216,-0.33l0.214,-0.331l0.212,-0.332l0.209,-0.334l0.208,-0.335l0.206,-0.337l0.204,-0.337l0.202,-0.339l0.2,-0.341l0.198,-0.341l0.196,-0.343l0.193,-0.344l0.192,-0.345l0.19,-0.347l0.188,-0.348l0.185,-0.349l0.184,-0.351l0.181,-0.351l0.18,-0.353l0.177,-0.354l0.176,-0.355l0.173,-0.357l0.171,-0.357l0.169,-0.359l0.167,-0.36l0.164,-0.361l0.163,-0.362l0.16,-0.363l0.158,-0.365l0.156,-0.365l0.154,-0.367l0.152,-0.368l0.15,-0.369l0.147,-0.37l0.145,-0.371l0.143,-0.372l0.141,-0.374l0.138,-0.374l0.137,-0.376l0.134,-0.376l0.131,-0.377l0.13,-0.379l0.127,-0.38l0.125,-0.38l0.123,-0.382l0.12,-0.383l0.118,-0.383l0.116,-0.385l0.114,-0.386l0.111,-0.386l0.109,-0.388l0.106,-0.388l0.105,-0.39l0.102,-0.39l0.099,-0.392l0.097,-0.392l0.097,-0.403l0.045,-0.188l0.045,-0.197l0.046,-0.197l0.044,-0.198l0.045,-0.198l0.043,-0.198l0.043,-0.199l0.042,-0.198l0.042,-0.199l0.041,-0.199l0.041,-0.199l0.039,-0.2l0.04,-0.2l0.038,-0.2l0.039,-0.2l0.037,-0.2l0.037,-0.201l0.036,-0.201l0.036,-0.2l0.035,-0.202l0.034,-0.202l0.034,-0.201l0.033,-0.202l0.033,-0.202l0.032,-0.203l0.031,-0.202l0.031,-0.203l0.03,-0.203l0.029,-0.203l0.029,-0.204l0.028,-0.203l0.028,-0.204l0.027,-0.204l0.026,-0.205l0.026,-0.204l0.025,-0.205l0.024,-0.205l0.024,-0.205l0.023,-0.205l0.023,-0.205l0.022,-0.206l0.021,-0.206l0.021,-0.206l0.02,-0.207l0.019,-0.206l0.019,-0.207l0.018,-0.207l0.017,-0.207l0.017,-0.207l0.016,-0.208l0.016,-0.207l0.014,-0.208l0.015,-0.209l0.013,-0.208l0.013,-0.208l0.012,-0.209l0.012,-0.209l0.011,-0.209l0.01,-0.209l0.01,-0.21l0.009,-0.209l0.008,-0.21l0.008,-0.21l0.007,-0.21l0.006,-0.211l0.006,-0.21l0.005,-0.211l0.004,-0.211l0.004,-0.211l0.003,-0.212l0.002,-0.211l0.002,-0.212l0.001,-0.212l0,-0.212l0,-0.212l-0.001,-0.212l-0.002,-0.212l-0.002,-0.211l-0.003,-0.212l-0.004,-0.211l-0.004,-0.21l-0.005,-0.211l-0.006,-0.211l-0.006,-0.211l-0.007,-0.21l-0.008,-0.21l-0.008,-0.21l-0.009,-0.209l-0.01,-0.21l-0.01,-0.209l-0.011,-0.209l-0.012,-0.209l-0.012,-0.209l-0.013,-0.208l-0.013,-0.208l-0.015,-0.209l-0.014,-0.208l-0.016,-0.207l-0.016,-0.207l-0.017,-0.208l-0.017,-0.207l-0.018,-0.207l-0.019,-0.207l-0.019,-0.206l-0.02,-0.207l-0.021,-0.206l-0.021,-0.206l-0.022,-0.206l-0.023,-0.205l-0.023,-0.205l-0.024,-0.205l-0.024,-0.205l-0.025,-0.205l-0.026,-0.204l-0.026,-0.205l-0.027,-0.204l-0.028,-0.204l-0.028,-0.203l-0.029,-0.204l-0.029,-0.203l-0.03,-0.203l-0.031,-0.203l-0.031,-0.202l-0.032,-0.203l-0.033,-0.202l-0.033,-0.202l-0.034,-0.201l-0.034,-0.202l-0.035,-0.201l-0.036,-0.201l-0.036,-0.201l-0.037,-0.201l-0.037,-0.2l-0.039,-0.2l-0.038,-0.2l-0.04,-0.2l-0.039,-0.199l-0.041,-0.2l-0.041,-0.199l-0.042,-0.199l-0.042,-0.198l-0.043,-0.199l-0.043,-0.198l-0.045,-0.198l-0.044,-0.198l-0.046,-0.197l-0.045,-0.197l-0.045,-0.188l-0.097,-0.403l-0.097,-0.392l-0.099,-0.391l-0.102,-0.391l-0.105,-0.39l-0.106,-0.388l-0.109,-0.388l-0.111,-0.386l-0.114,-0.386l-0.116,-0.385l-0.118,-0.383l-0.12,-0.383l-0.123,-0.382l-0.125,-0.38l-0.127,-0.38l-0.13,-0.378l-0.131,-0.378l-0.134,-0.376l-0.137,-0.376l-0.138,-0.374l-0.141,-0.373l-0.143,-0.373l-0.145,-0.371l-0.147,-0.37l-0.15,-0.369l-0.152,-0.368l-0.154,-0.366l-0.156,-0.366l-0.158,-0.365l-0.16,-0.363l-0.163,-0.362l-0.164,-0.361l-0.167,-0.36l-0.169,-0.359l-0.171,-0.357l-0.173,-0.357l-0.176,-0.355l-0.177,-0.354l-0.18,-0.353l-0.181,-0.351l-0.184,-0.351l-0.185,-0.349l-0.188,-0.348l-0.19,-0.346l-0.192,-0.346l-0.193,-0.344l-0.196,-0.343l-0.198,-0.341l-0.2,-0.34l-0.202,-0.339l-0.204,-0.338l-0.206,-0.337l-0.208,-0.335l-0.209,-0.333l-0.212,-0.333l-0.214,-0.331l-0.216,-0.33l-0.217,-0.328l-0.22,-0.327l-0.221,-0.325l-0.224,-0.325l-0.225,-0.322l-0.227,-0.322l-0.229,-0.32l-0.231,-0.318l-0.233,-0.318l-0.234,-0.315l-0.237,-0.314l-0.239,-0.313l-0.24,-0.311l-0.242,-0.31l-0.244,-0.309l-0.245,-0.307l-0.248,-0.305l-0.249,-0.304l-0.251,-0.302l-0.253,-0.301l-0.255,-0.299l-0.256,-0.298l-0.258,-0.296l-0.26,-0.295l-0.262,-0.293l-0.263,-0.291l-0.265,-0.29l-0.267,-0.288l-0.269,-0.287l-0.27,-0.285l-0.272,-0.284l-0.273,-0.282l-0.275,-0.28l-0.277,-0.278l-0.279,-0.277l-0.28,-0.276l-0.282,-0.273l-0.283,-0.272l-0.286,-0.27l-0.286,-0.269l-0.289,-0.267l-0.289,-0.265l-0.292,-0.263l-0.293,-0.262l-0.295,-0.26l-0.296,-0.258l-0.298,-0.256l-0.299,-0.255l-0.301,-0.253l-0.302,-0.251l-0.304,-0.249l-0.305,-0.248l-0.307,-0.245l-0.309,-0.244l-0.309,-0.242l-0.312,-0.24l-0.312,-0.239l-0.315,-0.236l-0.315,-0.235l-0.318,-0.233l-0.318,-0.231l-0.32,-0.229l-0.321,-0.227l-0.323,-0.225l-0.324,-0.224l-0.326,-0.221l-0.327,-0.22l-0.328,-0.217l-0.33,-0.216l-0.331,-0.214l-0.332,-0.211l-0.334,-0.21l-0.335,-0.208l-0.337,-0.206l-0.337,-0.204l-0.339,-0.202l-0.341,-0.2l-0.341,-0.197l-0.343,-0.196l-0.344,-0.194l-0.345,-0.192l-0.347,-0.19l-0.348,-0.187l-0.349,-0.186l-0.351,-0.184l-0.351,-0.181l-0.353,-0.18l-0.354,-0.177l-0.355,-0.175l-0.356,-0.174l-0.358,-0.171l-0.359,-0.169l-0.36,-0.166l-0.361,-0.165l-0.362,-0.163l-0.363,-0.16l-0.365,-0.158l-0.365,-0.156l-0.367,-0.154l-0.368,-0.152l-0.369,-0.149l-0.37,-0.148l-0.371,-0.145l-0.372,-0.143l-0.374,-0.141l-0.374,-0.138l-0.375,-0.136l-0.377,-0.134l-0.377,-0.132l-0.379,-0.13l-0.38,-0.127l-0.38,-0.125l-0.382,-0.123l-0.383,-0.12l-0.383,-0.118l-0.385,-0.116l-0.386,-0.114l-0.386,-0.111l-0.388,-0.109l-0.388,-0.106l-0.39,-0.104l-0.39,-0.102l-0.392,-0.1l-0.392,-0.097l-0.403,-0.097l-0.188,-0.044l-0.197,-0.046l-0.197,-0.046l-0.198,-0.044l-0.198,-0.044l-0.198,-0.044l-0.198,-0.043l-0.199,-0.042l-0.199,-0.042l-0.199,-0.041l-0.199,-0.04l-0.2,-0.04l-0.2,-0.04l-0.2,-0.038l-0.2,-0.038l-0.2,-0.038l-0.201,-0.037l-0.201,-0.036l-0.201,-0.036l-0.201,-0.035l-0.201,-0.034l-0.202,-0.034l-0.202,-0.033l-0.202,-0.032l-0.203,-0.032l-0.202,-0.032l-0.203,-0.03l-0.203,-0.031l-0.203,-0.029l-0.204,-0.029l-0.203,-0.028l-0.204,-0.028l-0.204,-0.027l-0.205,-0.026l-0.204,-0.026l-0.205,-0.025l-0.205,-0.024l-0.205,-0.024l-0.205,-0.023l-0.206,-0.023l-0.205,-0.021l-0.206,-0.022l-0.206,-0.02l-0.207,-0.02l-0.206,-0.02l-0.207,-0.018l-0.207,-0.019l-0.207,-0.017l-0.207,-0.017l-0.208,-0.016l-0.207,-0.015l-0.208,-0.015l-0.208,-0.014l-0.209,-0.014l-0.208,-0.013l-0.209,-0.012l-0.209,-0.012l-0.209,-0.011l-0.209,-0.01l-0.21,-0.01l-0.209,-0.009l-0.21,-0.008l-0.21,-0.008l-0.21,-0.007l-0.211,-0.006l-0.21,-0.006l-0.211,-0.005l-0.211,-0.004l-0.211,-0.004l-0.212,-0.003l-0.211,-0.002l-0.212,-0.002l-0.212,-0.001l-0.212,0l-0.212,0Z" style="fill:#ddd;"/><path d="M129.95,129.95l63.822,63.822" style="fill:none;stroke:#ddd;stroke-width:12px;"/></svg>