<?xml version="1.0" encoding="UTF-8" standalone="no"?><!DOCTYPE svg PUBLIC "-//W3C//DTD SVG 1.1//EN" "http://www.w3.org/Graphics/SVG/1.1/DTD/svg11.dtd"><svg width="100%" height="100%" viewBox="0 0 396 381" version="1.1" xmlns="http://www.w3.org/2000/svg" xmlns:xlink="http://www.w3.org/1999/xlink" xml:space="preserve" xmlns:serif="http://www.serif.com/" style="fill-rule:evenodd;clip-rule:evenodd;stroke-miterlimit:10;"><g><path d="M395.774,187.828c0.272,20.424 -19.428,37.715 -25.17,56.225c-5.944,19.187 0.294,44.549 -11.067,60.602c-11.476,16.214 -37.541,18.761 -53.446,30.662c-15.743,11.779 -25.517,36.125 -44.537,42.578c-18.35,6.229 -40.837,-6.928 -61.261,-6.655c-20.426,0.272 -42.557,14.022 -61.066,8.282c-19.182,-5.944 -29.596,-30.023 -45.653,-41.379c-16.21,-11.474 -42.343,-13.327 -54.238,-29.23c-11.786,-15.745 -6.223,-41.264 -12.685,-60.285c-6.227,-18.352 -26.373,-35.112 -26.648,-55.537c-0.269,-20.422 19.426,-37.718 25.162,-56.222c5.951,-19.187 -0.287,-44.55 11.077,-60.602c11.467,-16.216 37.541,-18.763 53.442,-30.66c15.75,-11.782 25.519,-36.129 44.535,-42.581c18.351,-6.23 40.838,6.929 61.265,6.657c20.423,-0.271 42.554,-14.023 61.062,-8.283c19.185,5.945 29.605,30.021 45.657,41.381c16.212,11.472 42.341,13.322 54.24,29.227c11.784,15.745 6.221,41.265 12.675,60.283c6.233,18.348 26.385,35.115 26.656,55.537" style="fill:#fc0;fill-rule:nonzero;"/><path d="M359.143,188.315c1.185,89.06 -70.048,162.213 -159.107,163.397c-89.06,1.185 -162.215,-70.048 -163.4,-159.107c-1.183,-89.056 70.051,-162.214 159.109,-163.398c89.059,-1.185 162.214,70.053 163.398,159.108" style="fill:#002939;fill-rule:nonzero;"/><path d="M347.371,188.472c1.098,82.558 -64.935,150.371 -147.493,151.47c-82.558,1.097 -150.373,-64.935 -151.47,-147.493c-1.098,-82.555 64.937,-150.372 147.492,-151.47c82.559,-1.098 150.373,64.939 151.471,147.493" style="fill:none;fill-rule:nonzero;stroke:#fc0;stroke-width:1px;"/><path d="M145.618,298.354l110.41,0" style="fill:none;fill-rule:nonzero;stroke:#fff;stroke-width:2px;"/><path d="M189.923,298.354c0,-6.02 4.88,-10.9 10.9,-10.9c6.021,0 10.901,4.88 10.901,10.9c0,6.021 -4.88,10.901 -10.901,10.901c-6.02,0 -10.9,-4.88 -10.9,-10.901" style="fill:#fff;fill-rule:nonzero;"/><path d="M201.317,174.923c-3.979,0 -7.959,-0.012 -11.938,0.005c-1.912,0.008 -3.209,1.124 -3.236,2.715c-0.027,1.648 1.313,2.785 3.339,2.79c4.943,0.01 9.886,0.003 14.829,0.003c2.953,0 5.907,0.01 8.86,-0.005c1.492,-0.007 2.638,-0.701 3.075,-1.802c0.743,-1.879 -0.737,-3.686 -3.084,-3.7c-3.949,-0.023 -7.897,-0.006 -11.845,-0.006m-34.495,82.418l68.903,0c-0.874,-1.587 -1.729,-3.051 -2.484,-4.556c-0.33,-0.659 -0.736,-0.865 -1.538,-0.864c-20.28,0.023 -40.559,0.018 -60.838,0.018c-0.218,0 -0.447,-0.039 -0.65,0.012c-0.21,0.054 -0.487,0.152 -0.574,0.305c-0.935,1.646 -1.84,3.308 -2.819,5.085m46.286,-60.418c-0.129,-0.343 -0.206,-0.582 -0.308,-0.811c-1.389,-3.159 -2.799,-6.31 -4.157,-9.48c-0.244,-0.57 -0.556,-0.746 -1.216,-0.741c-4.074,0.027 -8.149,0.034 -12.222,-0.005c-0.749,-0.007 -1.075,0.206 -1.346,0.826c-2.954,6.768 -5.945,13.523 -8.922,20.283c-0.118,0.268 -0.2,0.55 -0.305,0.844l33.344,0c-0.711,-1.61 -1.417,-3.107 -2.026,-4.635c-0.241,-0.605 -0.561,-0.79 -1.267,-0.786c-6.127,0.027 -12.254,0.016 -18.381,0.016l-1.039,0l0,-5.511l17.845,0Zm-50.64,-80.399c-0.45,0.12 -0.83,0.225 -1.213,0.322c-4.126,1.049 -8.355,-0.578 -10.411,-3.954c-0.885,-1.454 -1.044,-3.036 -1.217,-4.634c-0.299,-2.742 -2.985,-4.87 -6.048,-4.83c-3.051,0.04 -5.817,2.254 -5.876,4.99c-0.078,3.567 -0.24,7.173 0.224,10.7c0.944,7.169 5.013,12.71 11.759,16.587c3.666,2.107 7.707,3.198 12.042,3.41c1.993,0.098 3.986,0.216 6.029,0.327c-2.682,-7.434 -4.437,-15.065 -5.289,-22.918m72.298,22.955c1.366,-0.095 2.627,-0.254 3.887,-0.257c7.053,-0.017 13.24,-2.045 18.385,-6.462c4.177,-3.588 6.857,-7.975 7.506,-13.15c0.442,-3.536 0.453,-7.137 0.356,-10.703c-0.108,-3.963 -4.137,-6.425 -8.053,-5.148c-2.485,0.811 -3.888,2.711 -4.027,5.452c-0.219,4.323 -3.853,7.722 -8.624,7.918c-1.33,0.054 -2.679,-0.265 -4.141,-0.426c-0.833,7.7 -2.598,15.329 -5.289,22.776m-3.259,73.996l-60.487,0l0,32.881l60.487,0l0,-32.881Zm-54.435,-99.056l57.183,0c0.112,-1.85 0.22,-3.627 0.328,-5.381l-66.853,0c0.56,4.507 0.946,8.941 1.687,13.326c1.739,10.306 5.249,20.133 10.57,29.375c3.343,5.807 7.046,11.444 10.565,17.169c0.293,0.476 0.658,0.557 1.2,0.556c6.314,-0.016 12.628,-0.024 18.942,0.009c0.74,0.003 1.103,-0.236 1.442,-0.785c1.757,-2.848 3.5,-5.705 5.343,-8.507c6.852,-10.415 12.109,-21.402 14.719,-33.346c0.492,-2.252 0.913,-4.516 1.391,-6.894l-56.517,0l0,-5.522Zm37.744,71.399c0.747,1.699 1.456,3.312 2.168,4.925c2.417,5.481 4.847,10.958 7.235,16.45c0.251,0.575 0.573,0.745 1.223,0.739c2.862,-0.029 5.725,-0.017 8.586,-0.011c2.511,0.006 3.647,1.035 3.648,3.305c0.002,12.052 -0.008,24.104 0.025,36.156c0.002,0.723 0.212,1.504 0.557,2.158c1.598,3.017 3.284,5.995 4.926,8.992c1.324,2.416 -0.027,4.388 -3.01,4.388c-25.944,0.003 -51.889,0.003 -77.835,0c-2.9,0 -4.273,-1.995 -2.987,-4.347c1.707,-3.125 3.451,-6.233 5.141,-9.366c0.247,-0.459 0.39,-1.013 0.391,-1.522c0.022,-12.109 0.058,-24.217 -0.019,-36.324c-0.016,-2.339 1.459,-3.545 3.883,-3.464c2.826,0.095 5.66,0.017 8.491,0.027c0.47,0.001 0.793,-0.055 1.002,-0.533c3.112,-7.106 6.249,-14.204 9.377,-21.304c0.032,-0.073 0.019,-0.161 0.032,-0.281c-3.964,-0.835 -6.642,-2.94 -7.404,-6.618c-0.767,-3.691 0.927,-6.516 4.297,-8.633c-3.903,-6.358 -7.801,-12.71 -11.71,-19.08c-0.029,0.032 -0.166,0.16 -0.271,0.306c-1.727,2.421 -4.197,3.721 -7.357,3.848c-2.077,0.083 -4.162,0.015 -6.32,0.015l0,-5.405c0.317,-0.015 0.643,-0.044 0.97,-0.045c1.649,-0.005 3.298,0.023 4.946,-0.011c1.828,-0.039 3.118,-1.21 3.107,-2.753c-0.012,-1.549 -1.303,-2.728 -3.124,-2.74c-3.4,-0.025 -6.77,-0.199 -10.062,-1.056c-7.795,-2.029 -13.924,-6.091 -18.284,-12.289c-3.436,-4.884 -4.954,-10.268 -4.909,-16.03c0.019,-2.588 -0.136,-5.199 0.17,-7.761c0.908,-7.604 10.161,-11.957 17.599,-8.339c4.153,2.02 6.269,5.253 6.474,9.504c0.059,1.226 0.541,2.185 1.817,2.721c1.132,0.474 2.179,0.294 3.145,-0.377c0.836,-0.582 1.113,-1.397 1.131,-2.307c0.017,-0.901 -0.021,-1.803 0.029,-2.702c0.083,-1.526 1.334,-2.611 3.032,-2.629c2.116,-0.022 4.232,-0.005 6.347,-0.005c21.869,0 43.739,0.021 65.608,-0.029c2.516,-0.006 4.034,1.298 3.829,3.511c-0.068,0.726 -0.034,1.464 0.004,2.194c0.077,1.433 1.335,2.548 2.888,2.597c1.603,0.05 3.002,-1 3.089,-2.472c0.147,-2.501 0.782,-4.831 2.471,-6.869c3.052,-3.685 8.388,-5.289 13.223,-3.965c4.939,1.353 8.466,5.398 8.556,10.091c0.07,3.655 0.243,7.352 -0.239,10.964c-1.29,9.663 -6.798,16.949 -16.157,21.737c-4.769,2.439 -9.991,3.518 -15.477,3.499c-0.467,-0.001 -0.935,-0.014 -1.4,0.007c-1.75,0.079 -3.023,1.238 -3.031,2.749c-0.008,1.504 1.267,2.697 3.026,2.745c1.647,0.044 3.297,0.012 4.946,0.014l1.051,0l0,5.483c-2.988,-0.179 -5.984,0.393 -8.891,-0.474c-2.245,-0.669 -3.946,-1.979 -5.028,-3.783c-3.9,6.359 -7.804,12.728 -11.735,19.14c3.394,2.087 5.082,4.981 4.275,8.72c-0.776,3.596 -3.412,5.683 -7.465,6.539" style="fill:#fff;fill-rule:nonzero;"/><path d="M147.237,169.416c-1.073,-0.987 -2.452,-2.254 -3.552,-3.266c-1.145,1.031 -2.537,2.283 -3.561,3.204c1.131,1.046 2.505,2.316 3.539,3.272c1.111,-0.998 2.493,-2.239 3.574,-3.21m-18.7,-0.001c0.009,-1.397 0.993,-2.455 2.732,-2.758c2.844,-0.497 5.206,-1.742 6.923,-3.812c0.895,-1.079 1.454,-2.392 2.112,-3.623c0.212,-0.396 0.249,-0.869 0.377,-1.304c0.402,-1.366 1.577,-2.241 2.993,-2.238c1.41,0.004 2.558,0.886 2.984,2.256c0.268,0.864 0.482,1.757 0.888,2.569c1.611,3.232 4.36,5.242 8.168,6.101c0.732,0.166 1.545,0.388 2.09,0.822c1.806,1.436 1.12,4.049 -1.213,4.6c-2.193,0.519 -4.25,1.215 -6,2.565c-1.835,1.415 -3.02,3.184 -3.655,5.272c-0.14,0.461 -0.237,0.934 -0.4,1.388c-0.415,1.159 -1.573,1.914 -2.884,1.91c-1.318,-0.004 -2.448,-0.758 -2.866,-1.931c-0.352,-0.987 -0.593,-2.017 -1.046,-2.964c-1.482,-3.093 -4.157,-4.963 -7.679,-5.907c-0.475,-0.128 -0.967,-0.208 -1.439,-0.342c-1.277,-0.361 -2.092,-1.392 -2.085,-2.604" style="fill:#fff;fill-rule:nonzero;"/></g></svg>