<?xml version="1.0" encoding="UTF-8" standalone="no"?><!DOCTYPE svg PUBLIC "-//W3C//DTD SVG 1.1//EN" "http://www.w3.org/Graphics/SVG/1.1/DTD/svg11.dtd"><svg width="100%" height="100%" viewBox="0 0 396 381" version="1.1" xmlns="http://www.w3.org/2000/svg" xmlns:xlink="http://www.w3.org/1999/xlink" xml:space="preserve" xmlns:serif="http://www.serif.com/" style="fill-rule:evenodd;clip-rule:evenodd;stroke-miterlimit:10;"><g><path d="M395.774,187.828c0.271,20.424 -19.428,37.715 -25.17,56.225c-5.945,19.187 0.293,44.549 -11.068,60.602c-11.476,16.214 -37.541,18.761 -53.445,30.662c-15.743,11.779 -25.518,36.125 -44.537,42.578c-18.35,6.229 -40.837,-6.928 -61.262,-6.655c-20.426,0.272 -42.557,14.022 -61.065,8.282c-19.182,-5.944 -29.596,-30.023 -45.654,-41.379c-16.21,-11.474 -42.343,-13.327 -54.238,-29.23c-11.785,-15.745 -6.223,-41.264 -12.684,-60.285c-6.227,-18.352 -26.374,-35.112 -26.648,-55.537c-0.269,-20.422 19.426,-37.718 25.162,-56.222c5.95,-19.187 -0.287,-44.55 11.076,-60.602c11.467,-16.216 37.541,-18.763 53.443,-30.66c15.749,-11.782 25.518,-36.129 44.535,-42.581c18.35,-6.23 40.837,6.929 61.264,6.657c20.423,-0.271 42.554,-14.023 61.063,-8.283c19.185,5.945 29.604,30.021 45.656,41.381c16.213,11.472 42.341,13.322 54.24,29.227c11.785,15.745 6.221,41.265 12.676,60.283c6.233,18.348 26.385,35.115 26.656,55.537" style="fill:#00b5d4;fill-rule:nonzero;"/><path d="M359.142,188.315c1.185,89.06 -70.048,162.213 -159.107,163.397c-89.06,1.185 -162.215,-70.048 -163.399,-159.107c-1.184,-89.056 70.05,-162.214 159.108,-163.398c89.059,-1.185 162.214,70.053 163.398,159.108" style="fill:#002939;fill-rule:nonzero;"/><path d="M347.371,188.472c1.098,82.558 -64.935,150.371 -147.493,151.47c-82.557,1.097 -150.373,-64.935 -151.47,-147.493c-1.098,-82.555 64.937,-150.372 147.493,-151.47c82.557,-1.098 150.372,64.939 151.47,147.493" style="fill:none;fill-rule:nonzero;stroke:#00b5d4;stroke-width:1px;"/><path d="M145.617,298.354l110.411,0" style="fill:none;fill-rule:nonzero;stroke:#fff;stroke-width:2px;"/><path d="M189.923,298.354c0,-6.02 4.88,-10.9 10.9,-10.9c6.02,0 10.901,4.88 10.901,10.9c0,6.021 -4.881,10.901 -10.901,10.901c-6.02,0 -10.9,-4.88 -10.9,-10.901" style="fill:#fff;fill-rule:nonzero;"/><path d="M199.567,91.126c-44.205,0.152 -79.669,35.729 -79.68,79.891c-0.01,44.156 35.69,79.864 79.707,79.829c44.099,-0.034 79.655,-35.7 79.664,-79.856c0.011,-43.859 -35.253,-79.722 -79.691,-79.864m-0.056,167.796c-48.41,-0.028 -87.719,-39.243 -87.68,-87.968c0.041,-48.959 39.594,-87.899 87.77,-87.879c48.234,0.021 87.802,38.963 87.723,88.011c-0.079,48.781 -39.365,87.954 -87.813,87.836" style="fill:#fff;fill-rule:nonzero;"/><path d="M153.407,116.015c2.245,2.019 4.403,4.077 6.692,5.978c1.496,1.242 3.146,2.309 4.787,3.359c1.65,1.057 2.565,0.954 4.021,-0.367c0.977,-0.886 1.859,-1.874 2.803,-2.796c0.389,-0.38 0.817,-0.722 1.247,-1.055c1.493,-1.157 3.128,-1.527 4.929,-0.826c1.705,0.665 3.335,0.587 4.971,-0.287c1.984,-1.06 4.143,-1.024 6.307,-0.795c0.283,0.03 0.564,0.108 0.837,0.193c1.844,0.572 2.67,1.873 2.08,3.701c-1.125,3.487 -3.499,5.639 -7.192,6.205c-1.19,0.182 -2.393,0.304 -3.569,0.554c-0.716,0.152 -1.42,0.437 -2.075,0.769c-0.653,0.332 -0.857,0.998 -0.542,1.627c1.401,2.802 3.501,4.936 6.356,6.261c0.782,0.363 1.414,-0.13 1.833,-0.746c0.53,-0.779 1.004,-1.605 1.418,-2.452c1.503,-3.076 3.97,-4.552 7.355,-4.31c2.019,0.144 4.063,0.368 6.019,0.859c2.984,0.75 4.649,2.892 5.312,5.847c0.095,0.419 0.155,0.846 0.237,1.268c0.376,1.948 -0.301,3.533 -1.956,4.498c-1.774,1.034 -3.645,1.952 -5.565,2.678c-4.759,1.8 -9.214,4.125 -13.24,7.24c-1.867,1.444 -3.598,3.034 -4.933,5.011c-0.903,1.338 -1.411,2.8 -1.563,4.41c-0.151,1.604 -0.709,3.075 -1.709,4.348c-0.677,0.86 -1.505,1.575 -2.687,1.422c-1.192,-0.153 -1.8,-1.036 -2.169,-2.092c-0.293,-0.839 -0.537,-1.695 -0.822,-2.537c-0.165,-0.488 -0.333,-0.98 -0.558,-1.442c-0.901,-1.857 -2.132,-2.489 -4.065,-1.818c-1.67,0.58 -3.323,1.292 -4.85,2.175c-2.213,1.279 -2.719,3.131 -1.826,5.536c0.724,1.949 1.952,3.572 3.295,5.106c1.492,1.706 3.074,3.333 4.604,5.006c0.288,0.316 0.545,0.67 0.76,1.039c0.324,0.555 0.65,1.188 0.067,1.73c-0.54,0.501 -1.216,0.586 -1.914,0.22c-2.209,-1.16 -4.453,-2.257 -6.631,-3.473c-4.343,-2.422 -8.521,-5.102 -12.303,-8.353c-2.534,-2.177 -4.859,-4.524 -6.572,-7.453c-0.906,-1.549 -2.207,-2.862 -3.165,-4.384c-3.036,-4.828 -4.592,-10.165 -5.2,-15.802c-0.023,-0.213 0.032,-0.459 0.123,-0.657c4.51,-9.858 10.867,-18.332 19.081,-25.409c0.022,-0.018 0.051,-0.028 -0.028,0.014" style="fill:#fff;fill-rule:nonzero;"/><path d="M221.039,121.297c-1.819,0.097 -3.424,-0.297 -4.517,-1.917c-1.434,-2.125 -1.06,-5.608 0.972,-7.132c1.866,-1.401 3.201,-3.183 4.398,-5.119c0.798,-1.294 1.59,-2.592 2.447,-3.989c18.554,7.21 31.898,19.984 40.453,37.876c8.731,18.259 7.319,37.604 3.318,50.762c-4.328,-2.153 -8.7,-4.205 -11.951,-7.945c-0.483,-0.556 -0.887,-1.21 -1.2,-1.878c-1.36,-2.905 -3.396,-5.299 -5.579,-7.597c-2.391,-2.518 -4.858,-4.981 -6.652,-7.992c-2.086,-3.499 -3.253,-7.316 -3.827,-11.333c-0.468,-3.28 0.4,-6.247 2.017,-9.061c1.297,-2.258 2.286,-4.631 2.537,-7.257c0.035,-0.371 0.076,-0.744 0.069,-1.116c-0.034,-1.979 -1.321,-3.298 -3.288,-3.131c-1.266,0.107 -2.54,0.437 -3.747,0.853c-2.439,0.84 -4.807,1.889 -7.407,2.192c-3.092,0.362 -5.275,-0.735 -6.596,-3.543c-1.524,-3.243 -2.256,-6.68 -2.004,-10.277c0.055,-0.78 0.352,-1.543 0.557,-2.396" style="fill:#fff;fill-rule:nonzero;"/><path d="M190.98,177.898c1.801,0.151 3.492,0.243 5.169,0.444c2.676,0.323 4.852,1.656 6.749,3.509c2.607,2.547 5.257,5.051 7.824,7.639c2.511,2.532 4.038,5.488 3.551,9.203c-0.27,2.062 -1.037,3.955 -2.15,5.67c-1.436,2.212 -2.999,4.344 -4.543,6.484c-4.214,5.839 -6.63,12.403 -7.981,19.424c-0.334,1.734 -0.774,3.484 -1.452,5.107c-0.869,2.078 -2.431,2.36 -4.094,0.856c-0.927,-0.839 -1.771,-1.804 -2.507,-2.817c-1.887,-2.601 -3.789,-5.201 -4.423,-8.472c-0.54,-2.782 -0.614,-5.58 -0.526,-8.4c0.049,-1.573 0.059,-3.156 -0.047,-4.726c-0.124,-1.842 -1.009,-3.321 -2.506,-4.422c-0.669,-0.494 -1.333,-0.997 -1.992,-1.505c-1.943,-1.497 -3.335,-3.427 -4.119,-5.723c-1.355,-3.967 -2.138,-8.055 -1.762,-12.266c0.506,-5.672 3.197,-8.536 8.832,-9.426c2.005,-0.316 4.047,-0.399 5.977,-0.579" style="fill:#fff;fill-rule:nonzero;"/><path d="M252.326,194.21c-0.184,0.715 -0.286,1.433 -0.551,2.084c-0.636,1.569 -1.965,2.345 -3.593,1.926c-2.491,-0.641 -4.596,-1.953 -5.895,-4.256c-0.739,-1.31 -0.789,-2.74 -0.185,-4.142c0.821,-1.905 2.608,-2.747 4.585,-2.133c2.341,0.727 4.049,2.231 5.086,4.44c0.297,0.63 0.37,1.365 0.553,2.081" style="fill:#fff;fill-rule:nonzero;"/></g></svg>