<?xml version="1.0" encoding="UTF-8" standalone="no"?><!DOCTYPE svg PUBLIC "-//W3C//DTD SVG 1.1//EN" "http://www.w3.org/Graphics/SVG/1.1/DTD/svg11.dtd"><svg width="100%" height="100%" viewBox="0 0 396 381" version="1.1" xmlns="http://www.w3.org/2000/svg" xmlns:xlink="http://www.w3.org/1999/xlink" xml:space="preserve" xmlns:serif="http://www.serif.com/" style="fill-rule:evenodd;clip-rule:evenodd;stroke-miterlimit:10;"><g><path d="M395.774,187.828c0.271,20.424 -19.428,37.715 -25.17,56.225c-5.945,19.187 0.293,44.549 -11.068,60.602c-11.476,16.214 -37.541,18.761 -53.445,30.662c-15.743,11.779 -25.518,36.125 -44.537,42.578c-18.35,6.229 -40.837,-6.928 -61.262,-6.655c-20.426,0.272 -42.557,14.022 -61.065,8.282c-19.182,-5.944 -29.596,-30.023 -45.654,-41.379c-16.21,-11.474 -42.343,-13.327 -54.238,-29.23c-11.785,-15.745 -6.223,-41.264 -12.684,-60.285c-6.227,-18.352 -26.374,-35.112 -26.648,-55.537c-0.269,-20.422 19.426,-37.718 25.162,-56.222c5.95,-19.187 -0.287,-44.55 11.076,-60.602c11.467,-16.216 37.541,-18.763 53.443,-30.66c15.749,-11.782 25.518,-36.129 44.535,-42.581c18.35,-6.23 40.837,6.929 61.264,6.657c20.423,-0.271 42.554,-14.023 61.063,-8.283c19.185,5.945 29.604,30.021 45.656,41.381c16.213,11.472 42.341,13.322 54.24,29.227c11.785,15.745 6.221,41.265 12.676,60.283c6.233,18.348 26.385,35.115 26.656,55.537" style="fill:#de0c7e;fill-rule:nonzero;"/><path d="M359.142,188.315c1.185,89.06 -70.048,162.213 -159.107,163.397c-89.06,1.185 -162.215,-70.048 -163.399,-159.107c-1.184,-89.056 70.05,-162.214 159.108,-163.398c89.059,-1.185 162.214,70.053 163.398,159.108" style="fill:#002939;fill-rule:nonzero;"/><path d="M347.371,188.472c1.098,82.558 -64.935,150.371 -147.493,151.47c-82.557,1.097 -150.373,-64.935 -151.47,-147.493c-1.098,-82.555 64.937,-150.372 147.493,-151.47c82.557,-1.098 150.372,64.939 151.47,147.493" style="fill:none;fill-rule:nonzero;stroke:#de0c7e;stroke-width:1px;"/><path d="M145.617,298.354l110.411,0" style="fill:none;fill-rule:nonzero;stroke:#fff;stroke-width:2px;"/><path d="M189.923,298.354c0,-6.02 4.88,-10.9 10.9,-10.9c6.02,0 10.901,4.88 10.901,10.9c0,6.021 -4.881,10.901 -10.901,10.901c-6.02,0 -10.9,-4.88 -10.9,-10.901" style="fill:#fff;fill-rule:nonzero;"/><path d="M208.199,81.729c0.047,-5.727 -4.619,-10.433 -10.368,-10.456c-5.586,-0.023 -10.289,4.66 -10.345,10.299c-0.057,5.729 4.599,10.5 10.295,10.55c5.718,0.049 10.37,-4.591 10.418,-10.393m-89.36,96.123c0,43.591 35.438,79.044 79.057,79.045c43.275,0.002 78.887,-35.064 78.982,-78.895c0.093,-43.509 -35.062,-78.618 -78.035,-79.037c-44.366,-0.432 -80.001,35.394 -80.004,78.887m66.023,-84.739c-7.34,-9.161 -3.967,-19.949 2.208,-24.814c6.911,-5.445 16.503,-5.047 22.775,1.072c6.011,5.864 7.361,15.676 1.081,23.54c30.857,5.833 53.323,22.684 65.946,51.534c8.921,20.388 9.263,41.486 1.726,62.444c-13.712,38.137 -52.468,62.379 -94.188,55.758c-41.752,-6.626 -70.839,-41.985 -72.32,-81.439c-1.655,-44.12 30.272,-81.434 72.772,-88.095" style="fill:#fff;fill-rule:nonzero;"/><path d="M197.874,242.006c35.872,-0.068 65.125,-29.691 64.139,-66.07c-0.919,-33.911 -29.476,-63.567 -66.807,-62.174c-33.446,1.247 -62.343,29.224 -61.483,65.721c0.812,34.414 28.948,62.388 64.151,62.523m70.957,-65.087c0.437,38.879 -30.123,70.008 -67.367,71.774c-41.077,1.947 -72.86,-30.157 -74.495,-67.406c-1.806,-41.148 30.398,-72.609 67.403,-74.317c40.845,-1.886 74.002,30.564 74.459,69.949" style="fill:#fff;fill-rule:nonzero;"/><path d="M189.293,174.946c3.035,-6.814 6.015,-13.659 9.016,-20.49c0.096,-0.213 0.231,-0.41 0.461,-0.812c0.498,1.315 0.946,2.449 1.36,3.6c1.875,5.199 3.742,10.398 5.613,15.592c0.39,1.08 0.712,2.193 1.206,3.223c0.142,0.302 0.222,0.582 0.251,0.863l-18.342,0c-0.021,-0.649 0.125,-1.286 0.435,-1.976m24.533,-0.038c-3.399,-9.079 -6.655,-18.208 -9.966,-27.316c-0.524,-1.436 -1.043,-2.872 -1.578,-4.303c-0.54,-1.453 -1.599,-2.302 -3.132,-2.349c-1.54,-0.05 -2.624,0.766 -3.269,2.16c-0.2,0.444 -0.372,0.9 -0.569,1.344c-4.474,10.163 -8.949,20.322 -13.424,30.481c-0.472,1.071 -0.498,2.143 -0.075,3.24c1.402,3.662 2.809,7.325 4.19,11c2.691,7.154 5.362,14.315 8.062,21.465c0.192,0.51 0.552,0.959 0.837,1.431c1.741,1.687 4.466,1.243 5.534,-1.009c0.858,-1.816 1.561,-3.708 2.352,-5.563c3.546,-8.334 7.07,-16.676 10.661,-24.993c0.804,-1.858 1.135,-3.562 0.377,-5.588" style="fill:#fff;fill-rule:nonzero;"/><path d="M201.681,228.437c0,1.079 0.016,2.158 -0.003,3.236c-0.038,2.06 -1.351,3.422 -3.351,3.501c-1.762,0.07 -3.317,-1.307 -3.394,-3.219c-0.095,-2.361 -0.105,-4.732 0.002,-7.092c0.094,-2.06 1.629,-3.358 3.581,-3.259c1.839,0.093 3.142,1.569 3.163,3.597c0.011,1.079 0.002,2.157 0.002,3.236" style="fill:#fff;fill-rule:nonzero;"/><path d="M201.681,128.786c0,1.114 0.022,2.228 -0.005,3.341c-0.05,1.997 -1.358,3.329 -3.322,3.419c-1.771,0.082 -3.334,-1.271 -3.414,-3.187c-0.1,-2.395 -0.103,-4.802 0.011,-7.196c0.094,-1.995 1.611,-3.253 3.541,-3.181c1.784,0.066 3.148,1.537 3.185,3.463c0.022,1.113 0.004,2.228 0.004,3.341" style="fill:#fff;fill-rule:nonzero;"/><path d="M148.408,175.629c1.046,0.001 2.093,-0.024 3.139,0.006c1.933,0.057 3.405,1.545 3.39,3.389c-0.015,1.861 -1.474,3.338 -3.401,3.368c-2.092,0.033 -4.186,0.037 -6.277,-0.001c-2.096,-0.039 -3.511,-1.498 -3.465,-3.489c0.044,-1.925 1.489,-3.252 3.58,-3.272c1.011,-0.01 2.023,-0.001 3.034,-0.001" style="fill:#fff;fill-rule:nonzero;"/><path d="M248.281,175.631c1.081,0.001 2.164,-0.032 3.243,0.009c1.853,0.071 3.278,1.568 3.281,3.393c0.005,1.743 -1.419,3.294 -3.211,3.342c-2.265,0.061 -4.535,0.065 -6.798,-0.012c-1.876,-0.064 -3.193,-1.598 -3.143,-3.476c0.047,-1.794 1.447,-3.2 3.28,-3.252c1.116,-0.031 2.232,-0.005 3.348,-0.004" style="fill:#fff;fill-rule:nonzero;"/><path d="M197.64,181.354c-2.487,-0.045 -4.303,-1.955 -4.23,-4.448c0.066,-2.252 2.058,-4.177 4.276,-4.133c2.453,0.049 4.316,1.968 4.304,4.432c-0.012,2.274 -2.021,4.191 -4.35,4.149" style="fill:#fff;fill-rule:nonzero;"/></g></svg>