<?xml version="1.0" encoding="UTF-8" standalone="no"?><!DOCTYPE svg PUBLIC "-//W3C//DTD SVG 1.1//EN" "http://www.w3.org/Graphics/SVG/1.1/DTD/svg11.dtd"><svg width="100%" height="100%" viewBox="0 0 64 64" version="1.1" xmlns="http://www.w3.org/2000/svg" xmlns:xlink="http://www.w3.org/1999/xlink" xml:space="preserve" xmlns:serif="http://www.serif.com/" style="fill-rule:evenodd;clip-rule:evenodd;stroke-linecap:round;stroke-linejoin:round;stroke-miterlimit:1.5;"><circle cx="32" cy="32" r="30.374" style="fill:url(#_Linear1);"/><clipPath id="_clip2"><circle cx="32" cy="32" r="30.374"/></clipPath><g clip-path="url(#_clip2)"><path d="M72.485,-4.447l-82.828,0l0,39.12c30.364,-16.57 58.114,-17.218 82.828,0l0,-39.12Z" style="fill:url(#_Linear3);"/></g><circle cx="32" cy="32" r="30.374" style="fill:none;stroke:#bfbfbf;stroke-width:2.06px;"/><g><path d="M13.933,17.556c-0.091,-0.017 -0.185,0.004 -0.261,0.058c-0.075,0.053 -0.127,0.134 -0.142,0.226c-1.139,6.877 -0.153,14.104 3.332,20.14c4.314,7.472 11.615,12.725 20.04,14.456c0.218,0.043 0.445,-0.003 0.628,-0.129c0.184,-0.126 0.309,-0.32 0.348,-0.539c0.002,0 0.002,-0.001 0.002,-0.001c0.074,-0.42 -0.202,-0.822 -0.62,-0.905c-7.989,-1.63 -14.912,-6.606 -19.001,-13.688c-3.298,-5.713 -5.1,-12.717 -4.052,-19.23c0.031,-0.183 -0.092,-0.356 -0.274,-0.388c0,0 0,0 0,0Z" style="fill:url(#_Linear4);"/><g><g><path d="M25.066,47.218c-0.101,2.648 -5.792,2.503 -7.509,-0.263l0.012,-0.015c1.913,-2.63 7.588,-2.382 7.498,0.27l-0.001,0.008Z" style="fill:url(#_Linear5);"/><path d="M25.481,46.281c-2.59,-0.564 -1.447,-6.142 1.577,-7.346l0.014,0.014c2.252,2.345 1.012,7.888 -1.583,7.334l-0.008,-0.002Z" style="fill:url(#_Linear6);"/></g><g><path d="M20.855,43.291c-0.242,2.398 -5.399,1.943 -6.8,-0.665l0.011,-0.013c1.886,-2.278 7.022,-1.731 6.79,0.671l-0.001,0.007Z" style="fill:url(#_Linear7);"/><path d="M21.457,42.873c-2.241,-0.888 -0.395,-5.725 2.497,-6.36l0.01,0.014c1.676,2.436 -0.254,7.228 -2.501,6.348l-0.006,-0.002Z" style="fill:url(#_Linear8);"/></g><g><path d="M18.047,39.36c-0.326,2.167 -4.99,1.525 -6.146,-0.906l0.01,-0.011c1.814,-1.985 6.454,-1.26 6.137,0.911l-0.001,0.006Z" style="fill:url(#_Linear9);"/><path d="M18.672,38.992c-1.884,-1.121 0.474,-5.196 3.161,-5.348l0.007,0.014c1.152,2.43 -1.273,6.452 -3.163,5.338l-0.005,-0.004Z" style="fill:url(#_Linear10);"/></g><g><path d="M15.895,35.731c-0.705,1.865 -4.728,0.4 -5.29,-1.982l0.012,-0.009c1.993,-1.417 5.979,0.117 5.28,1.986l-0.002,0.005Z" style="fill:url(#_Linear11);"/><path d="M16.618,35.548c-1.721,-1.005 0.391,-4.729 2.834,-4.888l0.006,0.013c1.067,2.2 -1.108,5.876 -2.835,4.878l-0.005,-0.003Z" style="fill:url(#_Linear12);"/></g><g><path d="M14.567,31.833c-0.756,1.647 -4.314,0.068 -4.675,-2.128l0.011,-0.007c1.896,-1.161 5.416,0.479 4.666,2.131l-0.002,0.004Z" style="fill:url(#_Linear13);"/><path d="M15.209,31.678c-1.481,-1.045 0.723,-4.253 2.949,-4.206l0.004,0.012c0.795,2.077 -1.463,5.237 -2.949,4.197l-0.004,-0.003Z" style="fill:url(#_Linear14);"/></g><g><path d="M13.668,28.118c-0.971,1.331 -3.857,-0.718 -3.782,-2.741l0.011,-0.004c1.899,-0.693 4.741,1.404 3.774,2.741l-0.003,0.004Z" style="fill:url(#_Linear15);"/><path d="M14.263,28.029c-1.188,-1.142 1.232,-3.725 3.227,-3.378l0.002,0.012c0.43,1.975 -2.032,4.508 -3.226,3.369l-0.003,-0.003Z" style="fill:url(#_Linear16);"/></g><g><path d="M13.199,24.366c-0.908,1.192 -3.494,-0.725 -3.389,-2.562l0.011,-0.004c1.739,-0.594 4.284,1.365 3.38,2.562l-0.002,0.004Z" style="fill:url(#_Linear17);"/><path d="M13.744,24.393c-0.892,-1.204 1.67,-3.152 3.406,-2.538l0,0.011c0.086,1.836 -2.506,3.733 -3.404,2.531l-0.002,-0.004Z" style="fill:url(#_Linear18);"/></g><g><path d="M13.261,21.632c-0.986,0.941 -3.033,-1.151 -2.676,-2.786l0.01,-0.002c1.647,-0.285 3.652,1.839 2.669,2.785l-0.003,0.003Z" style="fill:url(#_Linear19);"/><path d="M13.756,21.588c-0.847,-1.068 1.423,-2.916 3.019,-2.411l0,0.01c0.134,1.666 -2.164,3.469 -3.016,2.404l-0.003,-0.003Z" style="fill:url(#_Linear20);"/></g><path d="M13.707,19.503c-1.362,-0.043 -1.307,-2.969 0.11,-3.861l0.008,0.006c1.358,0.974 1.25,3.892 -0.114,3.855l-0.004,0Z" style="fill:url(#_Linear21);"/></g></g><g><path d="M50.067,17.556c0.091,-0.017 0.185,0.004 0.261,0.058c0.075,0.053 0.127,0.134 0.142,0.226c1.139,6.877 0.153,14.104 -3.332,20.14c-4.314,7.472 -11.615,12.725 -20.04,14.456c-0.218,0.043 -0.445,-0.003 -0.628,-0.129c-0.184,-0.126 -0.309,-0.32 -0.348,-0.539c-0.002,0 -0.002,-0.001 -0.002,-0.001c-0.074,-0.42 0.202,-0.822 0.62,-0.905c7.989,-1.63 14.912,-6.606 19.001,-13.688c3.298,-5.713 5.1,-12.717 4.052,-19.23c-0.031,-0.183 0.092,-0.356 0.274,-0.388c0,0 0,0 0,0Z" style="fill:url(#_Linear22);"/><g><g><path d="M38.934,47.218c0.101,2.648 5.792,2.503 7.509,-0.263l-0.012,-0.015c-1.913,-2.63 -7.588,-2.382 -7.498,0.27l0.001,0.008Z" style="fill:url(#_Linear23);"/><path d="M38.519,46.281c2.59,-0.564 1.447,-6.142 -1.577,-7.346l-0.014,0.014c-2.252,2.345 -1.012,7.888 1.583,7.334l0.008,-0.002Z" style="fill:url(#_Linear24);"/></g><g><path d="M43.145,43.291c0.242,2.398 5.399,1.943 6.8,-0.665l-0.011,-0.013c-1.886,-2.278 -7.022,-1.731 -6.79,0.671l0.001,0.007Z" style="fill:url(#_Linear25);"/><path d="M42.543,42.873c2.241,-0.888 0.395,-5.725 -2.497,-6.36l-0.01,0.014c-1.676,2.436 0.254,7.228 2.501,6.348l0.006,-0.002Z" style="fill:url(#_Linear26);"/></g><g><path d="M45.953,39.36c0.326,2.167 4.99,1.525 6.146,-0.906l-0.01,-0.011c-1.814,-1.985 -6.454,-1.26 -6.137,0.911l0.001,0.006Z" style="fill:url(#_Linear27);"/><path d="M45.328,38.992c1.884,-1.121 -0.474,-5.196 -3.161,-5.348l-0.007,0.014c-1.152,2.43 1.273,6.452 3.163,5.338l0.005,-0.004Z" style="fill:url(#_Linear28);"/></g><g><path d="M48.105,35.731c0.705,1.865 4.728,0.4 5.29,-1.982l-0.012,-0.009c-1.993,-1.417 -5.979,0.117 -5.28,1.986l0.002,0.005Z" style="fill:url(#_Linear29);"/><path d="M47.382,35.548c1.721,-1.005 -0.391,-4.729 -2.834,-4.888l-0.006,0.013c-1.067,2.2 1.108,5.876 2.835,4.878l0.005,-0.003Z" style="fill:url(#_Linear30);"/></g><g><path d="M49.433,31.833c0.756,1.647 4.314,0.068 4.675,-2.128l-0.011,-0.007c-1.896,-1.161 -5.416,0.479 -4.666,2.131l0.002,0.004Z" style="fill:url(#_Linear31);"/><path d="M48.791,31.678c1.481,-1.045 -0.723,-4.253 -2.949,-4.206l-0.004,0.012c-0.795,2.077 1.463,5.237 2.949,4.197l0.004,-0.003Z" style="fill:url(#_Linear32);"/></g><g><path d="M50.332,28.118c0.971,1.331 3.857,-0.718 3.782,-2.741l-0.011,-0.004c-1.899,-0.693 -4.741,1.404 -3.774,2.741l0.003,0.004Z" style="fill:url(#_Linear33);"/><path d="M49.737,28.029c1.188,-1.142 -1.232,-3.725 -3.227,-3.378l-0.002,0.012c-0.43,1.975 2.032,4.508 3.226,3.369l0.003,-0.003Z" style="fill:url(#_Linear34);"/></g><g><path d="M50.801,24.366c0.908,1.192 3.494,-0.725 3.389,-2.562l-0.011,-0.004c-1.739,-0.594 -4.284,1.365 -3.38,2.562l0.002,0.004Z" style="fill:url(#_Linear35);"/><path d="M50.256,24.393c0.892,-1.204 -1.67,-3.152 -3.406,-2.538l0,0.011c-0.086,1.836 2.506,3.733 3.404,2.531l0.002,-0.004Z" style="fill:url(#_Linear36);"/></g><g><path d="M50.739,21.632c0.986,0.941 3.033,-1.151 2.676,-2.786l-0.01,-0.002c-1.647,-0.285 -3.652,1.839 -2.669,2.785l0.003,0.003Z" style="fill:url(#_Linear37);"/><path d="M50.244,21.588c0.847,-1.068 -1.423,-2.916 -3.019,-2.411l0,0.01c-0.134,1.666 2.164,3.469 3.016,2.404l0.003,-0.003Z" style="fill:url(#_Linear38);"/></g><path d="M50.293,19.503c1.362,-0.043 1.307,-2.969 -0.11,-3.861l-0.008,0.006c-1.358,0.974 -1.25,3.892 0.114,3.855l0.004,0Z" style="fill:url(#_Linear39);"/></g></g><defs><linearGradient id="_Linear1" x1="0" y1="0" x2="1" y2="0" gradientUnits="userSpaceOnUse" gradientTransform="matrix(2.47097e-15,-40.354,40.354,2.47097e-15,32,62.3737)"><stop offset="0" style="stop-color:#195142;stop-opacity:1"/><stop offset="1" style="stop-color:#22846a;stop-opacity:1"/></linearGradient><linearGradient id="_Linear3" x1="0" y1="0" x2="1" y2="0" gradientUnits="userSpaceOnUse" gradientTransform="matrix(2.0235e-15,-33.0462,33.0462,2.0235e-15,32,34.6725)"><stop offset="0" style="stop-color:#32a47b;stop-opacity:0.25"/><stop offset="1" style="stop-color:#78d3b2;stop-opacity:0.25"/></linearGradient><linearGradient id="_Linear4" x1="0" y1="0" x2="1" y2="0" gradientUnits="userSpaceOnUse" gradientTransform="matrix(3.55271e-15,39.9267,-39.9267,3.55271e-15,32,12.6682)"><stop offset="0" style="stop-color:#ddd;stop-opacity:1"/><stop offset="1" style="stop-color:#7e7575;stop-opacity:1"/></linearGradient><linearGradient id="_Linear5" x1="0" y1="0" x2="1" y2="0" gradientUnits="userSpaceOnUse" gradientTransform="matrix(3.55271e-15,39.9267,-39.9267,3.55271e-15,32,12.6682)"><stop offset="0" style="stop-color:#ddd;stop-opacity:1"/><stop offset="1" style="stop-color:#7e7575;stop-opacity:1"/></linearGradient><linearGradient id="_Linear6" x1="0" y1="0" x2="1" y2="0" gradientUnits="userSpaceOnUse" gradientTransform="matrix(3.55271e-15,39.9267,-39.9267,3.55271e-15,32,12.6682)"><stop offset="0" style="stop-color:#ddd;stop-opacity:1"/><stop offset="1" style="stop-color:#7e7575;stop-opacity:1"/></linearGradient><linearGradient id="_Linear7" x1="0" y1="0" x2="1" y2="0" gradientUnits="userSpaceOnUse" gradientTransform="matrix(3.10862e-15,39.9267,-39.9267,3.10862e-15,32,12.6682)"><stop offset="0" style="stop-color:#ddd;stop-opacity:1"/><stop offset="1" style="stop-color:#7e7575;stop-opacity:1"/></linearGradient><linearGradient id="_Linear8" x1="0" y1="0" x2="1" y2="0" gradientUnits="userSpaceOnUse" gradientTransform="matrix(3.55271e-15,39.9267,-39.9267,3.55271e-15,32,12.6682)"><stop offset="0" style="stop-color:#ddd;stop-opacity:1"/><stop offset="1" style="stop-color:#7e7575;stop-opacity:1"/></linearGradient><linearGradient id="_Linear9" x1="0" y1="0" x2="1" y2="0" gradientUnits="userSpaceOnUse" gradientTransform="matrix(3.55271e-15,39.9267,-39.9267,3.55271e-15,32,12.6682)"><stop offset="0" style="stop-color:#ddd;stop-opacity:1"/><stop offset="1" style="stop-color:#7e7575;stop-opacity:1"/></linearGradient><linearGradient id="_Linear10" x1="0" y1="0" x2="1" y2="0" gradientUnits="userSpaceOnUse" gradientTransform="matrix(7.10543e-15,39.9267,-39.9267,7.10543e-15,32,12.6682)"><stop offset="0" style="stop-color:#ddd;stop-opacity:1"/><stop offset="1" style="stop-color:#7e7575;stop-opacity:1"/></linearGradient><linearGradient id="_Linear11" x1="0" y1="0" x2="1" y2="0" gradientUnits="userSpaceOnUse" gradientTransform="matrix(0,39.9267,-39.9267,0,32,12.6682)"><stop offset="0" style="stop-color:#ddd;stop-opacity:1"/><stop offset="1" style="stop-color:#7e7575;stop-opacity:1"/></linearGradient><linearGradient id="_Linear12" x1="0" y1="0" x2="1" y2="0" gradientUnits="userSpaceOnUse" gradientTransform="matrix(3.55271e-15,39.9267,-39.9267,3.55271e-15,32,12.6682)"><stop offset="0" style="stop-color:#ddd;stop-opacity:1"/><stop offset="1" style="stop-color:#7e7575;stop-opacity:1"/></linearGradient><linearGradient id="_Linear13" x1="0" y1="0" x2="1" y2="0" gradientUnits="userSpaceOnUse" gradientTransform="matrix(1.77636e-15,39.9267,-39.9267,1.77636e-15,32,12.6682)"><stop offset="0" style="stop-color:#ddd;stop-opacity:1"/><stop offset="1" style="stop-color:#7e7575;stop-opacity:1"/></linearGradient><linearGradient id="_Linear14" x1="0" y1="0" x2="1" y2="0" gradientUnits="userSpaceOnUse" gradientTransform="matrix(3.55271e-15,39.9267,-39.9267,3.55271e-15,32,12.6682)"><stop offset="0" style="stop-color:#ddd;stop-opacity:1"/><stop offset="1" style="stop-color:#7e7575;stop-opacity:1"/></linearGradient><linearGradient id="_Linear15" x1="0" y1="0" x2="1" y2="0" gradientUnits="userSpaceOnUse" gradientTransform="matrix(0,39.9267,-39.9267,0,32,12.6682)"><stop offset="0" style="stop-color:#ddd;stop-opacity:1"/><stop offset="1" style="stop-color:#7e7575;stop-opacity:1"/></linearGradient><linearGradient id="_Linear16" x1="0" y1="0" x2="1" y2="0" gradientUnits="userSpaceOnUse" gradientTransform="matrix(0,39.9267,-39.9267,0,32,12.6682)"><stop offset="0" style="stop-color:#ddd;stop-opacity:1"/><stop offset="1" style="stop-color:#7e7575;stop-opacity:1"/></linearGradient><linearGradient id="_Linear17" x1="0" y1="0" x2="1" y2="0" gradientUnits="userSpaceOnUse" gradientTransform="matrix(3.55271e-15,39.9267,-39.9267,3.55271e-15,32,12.6682)"><stop offset="0" style="stop-color:#ddd;stop-opacity:1"/><stop offset="1" style="stop-color:#7e7575;stop-opacity:1"/></linearGradient><linearGradient id="_Linear18" x1="0" y1="0" x2="1" y2="0" gradientUnits="userSpaceOnUse" gradientTransform="matrix(7.10543e-15,39.9267,-39.9267,7.10543e-15,32,12.6682)"><stop offset="0" style="stop-color:#ddd;stop-opacity:1"/><stop offset="1" style="stop-color:#7e7575;stop-opacity:1"/></linearGradient><linearGradient id="_Linear19" x1="0" y1="0" x2="1" y2="0" gradientUnits="userSpaceOnUse" gradientTransform="matrix(1.06581e-14,39.9267,-39.9267,1.06581e-14,32,12.6682)"><stop offset="0" style="stop-color:#ddd;stop-opacity:1"/><stop offset="1" style="stop-color:#7e7575;stop-opacity:1"/></linearGradient><linearGradient id="_Linear20" x1="0" y1="0" x2="1" y2="0" gradientUnits="userSpaceOnUse" gradientTransform="matrix(0,39.9267,-39.9267,0,32,12.6682)"><stop offset="0" style="stop-color:#ddd;stop-opacity:1"/><stop offset="1" style="stop-color:#7e7575;stop-opacity:1"/></linearGradient><linearGradient id="_Linear21" x1="0" y1="0" x2="1" y2="0" gradientUnits="userSpaceOnUse" gradientTransform="matrix(3.77476e-15,39.9267,-39.9267,3.77476e-15,32,12.6682)"><stop offset="0" style="stop-color:#ddd;stop-opacity:1"/><stop offset="1" style="stop-color:#7e7575;stop-opacity:1"/></linearGradient><linearGradient id="_Linear22" x1="0" y1="0" x2="1" y2="0" gradientUnits="userSpaceOnUse" gradientTransform="matrix(3.55271e-15,39.9267,-39.9267,3.55271e-15,32,12.6682)"><stop offset="0" style="stop-color:#ddd;stop-opacity:1"/><stop offset="1" style="stop-color:#7e7575;stop-opacity:1"/></linearGradient><linearGradient id="_Linear23" x1="0" y1="0" x2="1" y2="0" gradientUnits="userSpaceOnUse" gradientTransform="matrix(3.55271e-15,39.9267,-39.9267,3.55271e-15,32,12.6682)"><stop offset="0" style="stop-color:#ddd;stop-opacity:1"/><stop offset="1" style="stop-color:#7e7575;stop-opacity:1"/></linearGradient><linearGradient id="_Linear24" x1="0" y1="0" x2="1" y2="0" gradientUnits="userSpaceOnUse" gradientTransform="matrix(3.55271e-15,39.9267,-39.9267,3.55271e-15,32,12.6682)"><stop offset="0" style="stop-color:#ddd;stop-opacity:1"/><stop offset="1" style="stop-color:#7e7575;stop-opacity:1"/></linearGradient><linearGradient id="_Linear25" x1="0" y1="0" x2="1" y2="0" gradientUnits="userSpaceOnUse" gradientTransform="matrix(3.55271e-15,39.9267,-39.9267,3.55271e-15,32,12.6682)"><stop offset="0" style="stop-color:#ddd;stop-opacity:1"/><stop offset="1" style="stop-color:#7e7575;stop-opacity:1"/></linearGradient><linearGradient id="_Linear26" x1="0" y1="0" x2="1" y2="0" gradientUnits="userSpaceOnUse" gradientTransform="matrix(5.32907e-15,39.9267,-39.9267,5.32907e-15,32,12.6682)"><stop offset="0" style="stop-color:#ddd;stop-opacity:1"/><stop offset="1" style="stop-color:#7e7575;stop-opacity:1"/></linearGradient><linearGradient id="_Linear27" x1="0" y1="0" x2="1" y2="0" gradientUnits="userSpaceOnUse" gradientTransform="matrix(4.44089e-15,39.9267,-39.9267,4.44089e-15,32,12.6682)"><stop offset="0" style="stop-color:#ddd;stop-opacity:1"/><stop offset="1" style="stop-color:#7e7575;stop-opacity:1"/></linearGradient><linearGradient id="_Linear28" x1="0" y1="0" x2="1" y2="0" gradientUnits="userSpaceOnUse" gradientTransform="matrix(0,39.9267,-39.9267,0,32,12.6682)"><stop offset="0" style="stop-color:#ddd;stop-opacity:1"/><stop offset="1" style="stop-color:#7e7575;stop-opacity:1"/></linearGradient><linearGradient id="_Linear29" x1="0" y1="0" x2="1" y2="0" gradientUnits="userSpaceOnUse" gradientTransform="matrix(3.55271e-15,39.9267,-39.9267,3.55271e-15,32,12.6682)"><stop offset="0" style="stop-color:#ddd;stop-opacity:1"/><stop offset="1" style="stop-color:#7e7575;stop-opacity:1"/></linearGradient><linearGradient id="_Linear30" x1="0" y1="0" x2="1" y2="0" gradientUnits="userSpaceOnUse" gradientTransform="matrix(3.55271e-15,39.9267,-39.9267,3.55271e-15,32,12.6682)"><stop offset="0" style="stop-color:#ddd;stop-opacity:1"/><stop offset="1" style="stop-color:#7e7575;stop-opacity:1"/></linearGradient><linearGradient id="_Linear31" x1="0" y1="0" x2="1" y2="0" gradientUnits="userSpaceOnUse" gradientTransform="matrix(3.55271e-15,39.9267,-39.9267,3.55271e-15,32,12.6682)"><stop offset="0" style="stop-color:#ddd;stop-opacity:1"/><stop offset="1" style="stop-color:#7e7575;stop-opacity:1"/></linearGradient><linearGradient id="_Linear32" x1="0" y1="0" x2="1" y2="0" gradientUnits="userSpaceOnUse" gradientTransform="matrix(3.55271e-15,39.9267,-39.9267,3.55271e-15,32,12.6682)"><stop offset="0" style="stop-color:#ddd;stop-opacity:1"/><stop offset="1" style="stop-color:#7e7575;stop-opacity:1"/></linearGradient><linearGradient id="_Linear33" x1="0" y1="0" x2="1" y2="0" gradientUnits="userSpaceOnUse" gradientTransform="matrix(0,39.9267,-39.9267,0,32,12.6682)"><stop offset="0" style="stop-color:#ddd;stop-opacity:1"/><stop offset="1" style="stop-color:#7e7575;stop-opacity:1"/></linearGradient><linearGradient id="_Linear34" x1="0" y1="0" x2="1" y2="0" gradientUnits="userSpaceOnUse" gradientTransform="matrix(0,39.9267,-39.9267,0,32,12.6682)"><stop offset="0" style="stop-color:#ddd;stop-opacity:1"/><stop offset="1" style="stop-color:#7e7575;stop-opacity:1"/></linearGradient><linearGradient id="_Linear35" x1="0" y1="0" x2="1" y2="0" gradientUnits="userSpaceOnUse" gradientTransform="matrix(3.55271e-15,39.9267,-39.9267,3.55271e-15,32,12.6682)"><stop offset="0" style="stop-color:#ddd;stop-opacity:1"/><stop offset="1" style="stop-color:#7e7575;stop-opacity:1"/></linearGradient><linearGradient id="_Linear36" x1="0" y1="0" x2="1" y2="0" gradientUnits="userSpaceOnUse" gradientTransform="matrix(3.55271e-15,39.9267,-39.9267,3.55271e-15,32,12.6682)"><stop offset="0" style="stop-color:#ddd;stop-opacity:1"/><stop offset="1" style="stop-color:#7e7575;stop-opacity:1"/></linearGradient><linearGradient id="_Linear37" x1="0" y1="0" x2="1" y2="0" gradientUnits="userSpaceOnUse" gradientTransform="matrix(7.10543e-15,39.9267,-39.9267,7.10543e-15,32,12.6682)"><stop offset="0" style="stop-color:#ddd;stop-opacity:1"/><stop offset="1" style="stop-color:#7e7575;stop-opacity:1"/></linearGradient><linearGradient id="_Linear38" x1="0" y1="0" x2="1" y2="0" gradientUnits="userSpaceOnUse" gradientTransform="matrix(3.55271e-15,39.9267,-39.9267,3.55271e-15,32,12.6682)"><stop offset="0" style="stop-color:#ddd;stop-opacity:1"/><stop offset="1" style="stop-color:#7e7575;stop-opacity:1"/></linearGradient><linearGradient id="_Linear39" x1="0" y1="0" x2="1" y2="0" gradientUnits="userSpaceOnUse" gradientTransform="matrix(3.55271e-15,39.9267,-39.9267,3.55271e-15,32,12.6682)"><stop offset="0" style="stop-color:#ddd;stop-opacity:1"/><stop offset="1" style="stop-color:#7e7575;stop-opacity:1"/></linearGradient></defs></svg>