<?xml version="1.0" encoding="UTF-8" standalone="no"?><!DOCTYPE svg PUBLIC "-//W3C//DTD SVG 1.1//EN" "http://www.w3.org/Graphics/SVG/1.1/DTD/svg11.dtd"><svg width="100%" height="100%" viewBox="0 0 41 41" version="1.1" xmlns="http://www.w3.org/2000/svg" xmlns:xlink="http://www.w3.org/1999/xlink" xml:space="preserve" xmlns:serif="http://www.serif.com/" style="fill-rule:evenodd;clip-rule:evenodd;stroke-linejoin:round;stroke-miterlimit:2;"><path id="link-icon" d="M20.338,0.397c10.953,0 19.845,8.892 19.845,19.845c0,10.953 -8.892,19.846 -19.845,19.846c-10.953,0 -19.845,-8.893 -19.845,-19.846c0,-10.953 8.892,-19.845 19.845,-19.845Zm-0.031,18.706c-1.01,-0.745 -2.44,-0.66 -3.354,0.253l-7.287,7.288c-1.007,1.007 -1.007,2.642 0,3.648c1.007,1.007 2.641,1.007 3.648,0l4.833,-4.833c0.919,0.731 2.123,0.929 3.198,0.597l-6.278,6.278c-2.054,2.054 -5.389,2.054 -7.443,0c-2.054,-2.054 -2.054,-5.389 0,-7.442l7.577,-7.577c1.89,-1.89 4.864,-2.041 6.927,-0.453c0.085,0.055 0.165,0.119 0.239,0.193c0.567,0.567 0.567,1.487 0,2.054c-0.566,0.567 -1.487,0.567 -2.054,0c-0.002,-0.002 -0.004,-0.004 -0.006,-0.006Zm0.063,2.279c1.009,0.744 2.439,0.66 3.353,-0.254l7.288,-7.288c1.006,-1.006 1.006,-2.641 -0,-3.648c-1.007,-1.007 -2.642,-1.007 -3.649,0l-4.833,4.833c-0.919,-0.73 -2.123,-0.929 -3.197,-0.597l6.278,-6.278c2.054,-2.054 5.389,-2.053 7.442,0c2.054,2.054 2.054,5.389 0,7.443l-7.577,7.577c-1.889,1.89 -4.864,2.041 -6.927,0.453c-0.085,-0.055 -0.165,-0.119 -0.239,-0.194c-0.567,-0.567 -0.567,-1.487 0,-2.054c0.567,-0.567 1.487,-0.567 2.054,0c0.002,0.002 0.004,0.005 0.007,0.007Z" style="fill:#42ce8c;"/></svg>