<?xml version="1.0" encoding="UTF-8" standalone="no"?><!DOCTYPE svg PUBLIC "-//W3C//DTD SVG 1.1//EN" "http://www.w3.org/Graphics/SVG/1.1/DTD/svg11.dtd"><svg width="100%" height="100%" viewBox="0 0 512 513" version="1.1" xmlns="http://www.w3.org/2000/svg" xmlns:xlink="http://www.w3.org/1999/xlink" xml:space="preserve" xmlns:serif="http://www.serif.com/" style="fill-rule:evenodd;clip-rule:evenodd;stroke-linejoin:round;stroke-miterlimit:2;"><g><path d="M255.728,23.467c-128.847,0.444 -232.218,104.141 -232.247,232.865c-0.028,128.704 104.027,232.78 232.325,232.68c128.539,-0.1 232.175,-104.059 232.204,-232.762c0.025,-127.84 -102.756,-232.371 -232.282,-232.783m-0.162,489.083c-141.105,-0.082 -255.684,-114.381 -255.566,-256.404c0.118,-142.702 115.406,-256.203 255.828,-256.146c140.59,0.061 255.921,113.569 255.688,256.533c-0.229,142.18 -114.74,256.357 -255.95,256.017" style="fill:#fff;fill-rule:nonzero;"/><path d="M121.181,96.014c6.544,5.885 12.833,11.88 19.505,17.421c4.36,3.623 9.17,6.73 13.953,9.794c4.807,3.078 7.477,2.781 11.722,-1.071c2.846,-2.58 5.42,-5.462 8.169,-8.15c1.134,-1.106 2.38,-2.105 3.636,-3.075c4.349,-3.368 9.114,-4.449 14.368,-2.405c4.969,1.933 9.715,1.711 14.486,-0.838c5.785,-3.092 12.074,-2.985 18.385,-2.319c0.823,0.089 1.642,0.315 2.437,0.562c5.376,1.668 7.785,5.462 6.067,10.788c-3.282,10.166 -10.201,16.437 -20.965,18.087c-3.468,0.53 -6.976,0.888 -10.405,1.615c-2.087,0.443 -4.138,1.274 -6.046,2.244c-1.904,0.966 -2.498,2.91 -1.582,4.739c4.084,8.165 10.205,14.39 18.527,18.252c2.28,1.059 4.12,-0.383 5.345,-2.177c1.542,-2.269 2.924,-4.678 4.13,-7.148c4.385,-8.966 11.573,-13.265 21.441,-12.56c5.885,0.419 11.841,1.07 17.543,2.506c8.698,2.179 13.548,8.426 15.481,17.041c0.276,1.221 0.451,2.463 0.691,3.698c1.095,5.677 -0.877,10.295 -5.698,13.108c-5.176,3.014 -10.624,5.688 -16.222,7.807c-13.871,5.244 -26.857,12.023 -38.594,21.101c-5.441,4.209 -10.484,8.845 -14.375,14.604c-2.631,3.902 -4.113,8.161 -4.557,12.857c-0.44,4.675 -2.065,8.963 -4.983,12.672c-1.972,2.505 -4.384,4.589 -7.831,4.145c-3.473,-0.448 -5.248,-3.021 -6.322,-6.096c-0.855,-2.449 -1.564,-4.943 -2.394,-7.395c-0.484,-1.425 -0.974,-2.857 -1.626,-4.203c-2.63,-5.415 -6.214,-7.259 -11.851,-5.301c-4.865,1.69 -9.683,3.766 -14.135,6.339c-6.451,3.73 -7.925,9.128 -5.323,16.137c2.112,5.68 5.691,10.412 9.604,14.883c4.349,4.972 8.959,9.715 13.419,14.59c0.838,0.92 1.589,1.954 2.216,3.028c0.945,1.618 1.897,3.461 0.197,5.044c-1.575,1.46 -3.548,1.707 -5.581,0.64c-6.439,-3.382 -12.979,-6.579 -19.329,-10.122c-12.657,-7.063 -24.834,-14.873 -35.859,-24.344c-7.388,-6.35 -14.164,-13.191 -19.157,-21.728c-2.638,-4.51 -6.433,-8.34 -9.225,-12.778c-8.848,-14.071 -13.383,-29.628 -15.155,-46.057c-0.068,-0.623 0.097,-1.339 0.358,-1.915c13.147,-28.736 31.675,-53.434 55.618,-74.063c0.064,-0.05 0.146,-0.079 -0.083,0.043" style="fill:#fff;fill-rule:nonzero;"/><path d="M318.312,111.412c-5.301,0.279 -9.979,-0.866 -13.165,-5.591c-4.177,-6.192 -3.089,-16.344 2.831,-20.786c5.441,-4.084 9.336,-9.278 12.818,-14.923c2.331,-3.769 4.639,-7.549 7.138,-11.622c54.078,21.015 92.973,58.245 117.911,110.398c25.446,53.219 21.334,109.606 9.668,147.957c-12.614,-6.275 -25.36,-12.256 -34.832,-23.159c-1.41,-1.618 -2.584,-3.523 -3.497,-5.47c-3.966,-8.469 -9.901,-15.449 -16.265,-22.146c-6.969,-7.338 -14.157,-14.522 -19.386,-23.295c-6.082,-10.198 -9.482,-21.323 -11.154,-33.031c-1.367,-9.561 1.163,-18.209 5.874,-26.41c3.784,-6.582 6.665,-13.498 7.399,-21.151c0.1,-1.081 0.218,-2.172 0.204,-3.257c-0.104,-5.767 -3.859,-9.611 -9.586,-9.124c-3.69,0.311 -7.409,1.274 -10.924,2.484c-7.109,2.452 -14.011,5.505 -21.588,6.389c-9.013,1.056 -15.378,-2.14 -19.226,-10.326c-4.442,-9.45 -6.575,-19.469 -5.841,-29.953c0.161,-2.277 1.027,-4.503 1.621,-6.984" style="fill:#fff;fill-rule:nonzero;"/><path d="M230.697,276.385c5.252,0.441 10.177,0.709 15.066,1.296c7.8,0.941 14.143,4.825 19.673,10.23c7.599,7.424 15.324,14.722 22.805,22.261c7.32,7.381 11.769,15.996 10.348,26.831c-0.784,6.007 -3.017,11.523 -6.268,16.523c-4.184,6.45 -8.737,12.661 -13.24,18.9c-12.285,17.02 -19.322,36.152 -23.259,56.613c-0.974,5.057 -2.255,10.158 -4.235,14.89c-2.534,6.057 -7.087,6.88 -11.934,2.491c-2.702,-2.448 -5.161,-5.254 -7.305,-8.211c-5.502,-7.578 -11.047,-15.155 -12.894,-24.691c-1.575,-8.107 -1.789,-16.265 -1.532,-24.48c0.144,-4.592 0.172,-9.206 -0.136,-13.781c-0.361,-5.369 -2.942,-9.679 -7.302,-12.889c-1.954,-1.439 -3.887,-2.903 -5.809,-4.385c-5.663,-4.364 -9.722,-9.991 -12.009,-16.681c-3.948,-11.565 -6.229,-23.481 -5.133,-35.751c1.474,-16.537 9.317,-24.881 25.743,-27.473c5.845,-0.923 11.798,-1.167 17.421,-1.693" style="fill:#fff;fill-rule:nonzero;"/><path d="M409.504,323.932c-0.533,2.087 -0.83,4.177 -1.603,6.078c-1.854,4.571 -5.727,6.833 -10.474,5.613c-7.259,-1.869 -13.394,-5.695 -17.181,-12.407c-2.155,-3.819 -2.298,-7.986 -0.537,-12.073c2.391,-5.552 7.599,-8.008 13.362,-6.218c6.819,2.119 11.798,6.504 14.826,12.943c0.863,1.837 1.078,3.977 1.607,6.064" style="fill:#fff;fill-rule:nonzero;"/></g></svg>