<?xml version="1.0" encoding="UTF-8" standalone="no"?><!DOCTYPE svg PUBLIC "-//W3C//DTD SVG 1.1//EN" "http://www.w3.org/Graphics/SVG/1.1/DTD/svg11.dtd"><svg width="100%" height="100%" viewBox="0 0 42 42" version="1.1" xmlns="http://www.w3.org/2000/svg" xmlns:xlink="http://www.w3.org/1999/xlink" xml:space="preserve" xmlns:serif="http://www.serif.com/" style="fill-rule:evenodd;clip-rule:evenodd;stroke-linecap:round;stroke-linejoin:round;stroke-miterlimit:1.5;"><g id="presentation-icon"><path d="M39.769,0.096c0.792,0 1.435,0.643 1.435,1.435l0,25.829c0,0.792 -0.643,1.435 -1.435,1.435l-37.962,0c-0.792,0 -1.435,-0.643 -1.435,-1.435l0,-25.829c0,-0.792 0.643,-1.435 1.435,-1.435l37.962,0Zm-8.068,7.127c0.533,-0.565 1.424,-0.595 1.993,-0.065c0.568,0.53 0.602,1.421 0.076,1.992l0.005,0.006l-9.04,9.699c-0.315,0.339 -0.758,0.488 -1.186,0.442c-0.218,-0.009 -8.313,-4.544 -8.313,-4.544l-5.535,7.006c-0.484,0.612 -1.374,0.716 -1.986,0.232c-0.612,-0.483 -0.717,-1.373 -0.233,-1.985l-0.014,-0.012c0,0 6.387,-8.027 6.484,-8.099c0.44,-0.402 1.106,-0.495 1.652,-0.185l0.009,-0.016l7.784,4.423l8.297,-8.901l0.007,0.007Z" style="fill:#42ce8c;"/><path d="M20.788,27.227l0,13.701" style="fill:none;stroke:#42ce8c;stroke-width:2px;"/><path d="M9.232,40.928l23.111,-0" style="fill:none;stroke:#42ce8c;stroke-width:2px;"/></g></svg>