<?xml version="1.0" encoding="UTF-8" standalone="no"?><!DOCTYPE svg PUBLIC "-//W3C//DTD SVG 1.1//EN" "http://www.w3.org/Graphics/SVG/1.1/DTD/svg11.dtd"><svg width="100%" height="100%" viewBox="0 0 333 473" version="1.1" xmlns="http://www.w3.org/2000/svg" xmlns:xlink="http://www.w3.org/1999/xlink" xml:space="preserve" xmlns:serif="http://www.serif.com/" style="fill-rule:evenodd;clip-rule:evenodd;stroke-linejoin:round;stroke-miterlimit:1.41421;"><g id="journal-thumbnail"><rect x="0.68" y="0.285" width="331.611" height="472.214" style="fill:#b2b2b2;"/><g><g><path d="M80.031,294.956c0,-3.123 -1.694,-4.784 -4.817,-4.784l-7.972,0c-0.333,0 -0.532,0.166 -0.532,0.532l0,25.512c0,0.333 0.199,0.532 0.532,0.532l7.972,0c3.123,0 4.817,-1.661 4.817,-4.784l0,-6.112c0,-1.229 -0.897,-2.159 -2.093,-2.359l0,-0.066c1.196,-0.2 2.093,-1.13 2.093,-2.359l0,-6.112Zm-4.418,5.016c0,0.83 -0.465,1.295 -1.329,1.295l-3.023,0l0,-6.71l3.023,0c0.897,0 1.329,0.465 1.329,1.329l0,4.086Zm0,11.062c0,0.897 -0.465,1.329 -1.329,1.329l-3.023,0l0,-6.71l3.023,0c0.897,0 1.329,0.465 1.329,1.328l0,4.053Z" style="fill:#04263e;fill-rule:nonzero;"/><g><path d="M95.345,294.956c0,-3.123 -1.661,-4.784 -4.783,-4.784l-8.338,0c-0.333,0 -0.532,0.199 -0.532,0.532l0,25.512c0,0.333 0.199,0.532 0.532,0.532l3.454,0c0.333,0 0.532,-0.199 0.532,-0.532l0,-8.371l2.292,0l2.226,8.438c0.066,0.299 0.232,0.465 0.565,0.465l3.454,0c0.366,0 0.565,-0.199 0.466,-0.598l-2.293,-8.704c1.595,-0.697 2.425,-2.159 2.425,-4.385l0,-8.105Zm-9.135,8.504l0,-8.903l3.289,0c0.863,0 1.329,0.465 1.329,1.329l0,6.245c0,0.864 -0.466,1.329 -1.329,1.329l-3.289,0Z" style="fill:#04263e;fill-rule:nonzero;"/><path d="M113.683,316.748c0.398,0 0.531,-0.199 0.465,-0.565l-5.515,-25.546c-0.066,-0.332 -0.265,-0.465 -0.564,-0.465l-4.618,0c-0.299,0 -0.498,0.133 -0.565,0.465l-5.514,25.546c-0.1,0.366 0.066,0.565 0.432,0.565l3.554,0c0.299,0 0.465,-0.166 0.532,-0.465l0.897,-4.85l5.913,0l0.93,4.85c0.066,0.299 0.233,0.465 0.532,0.465l3.521,0Zm-5.814,-9.169l-4.252,0l2.126,-11.594l2.126,11.594Z" style="fill:#04263e;fill-rule:nonzero;"/><path d="M116.473,316.216c0,0.366 0.166,0.532 0.532,0.532l7.973,0c3.122,0 4.783,-1.661 4.783,-4.784l0,-16.975c0,-3.123 -1.661,-4.817 -4.783,-4.817l-7.973,0c-0.366,0 -0.532,0.199 -0.532,0.532l0,25.512Zm4.518,-3.853l0,-17.806l3.057,0c0.863,0 1.328,0.465 1.328,1.362l0,15.115c0,0.897 -0.465,1.329 -1.328,1.329l-3.057,0Z" style="fill:#04263e;fill-rule:nonzero;"/><path d="M137.601,312.363l7.907,0c0.365,0 0.531,0.199 0.531,0.531l0,3.322c0,0.366 -0.166,0.532 -0.531,0.532l-11.893,0c-0.332,0 -0.532,-0.166 -0.532,-0.532l0,-25.512c0,-0.333 0.2,-0.532 0.532,-0.532l3.455,0c0.365,0 0.531,0.199 0.531,0.532l0,21.659Z" style="fill:#04263e;fill-rule:nonzero;"/><path d="M161.952,290.704c0,-0.333 -0.133,-0.532 -0.532,-0.532l-12.225,0c-0.299,0 -0.498,0.199 -0.498,0.532l0,25.512c0,0.333 0.199,0.532 0.498,0.532l12.225,0c0.399,0 0.532,-0.199 0.532,-0.532l0,-3.322c0,-0.365 -0.133,-0.531 -0.532,-0.531l-8.305,0l0,-6.71l6.345,0c0.332,0 0.532,-0.2 0.532,-0.565l0,-3.289c0,-0.365 -0.2,-0.565 -0.532,-0.565l-6.345,0l0,-6.644l8.305,0c0.399,0 0.532,-0.232 0.532,-0.564l0,-3.322Z" style="fill:#04263e;fill-rule:nonzero;"/><path d="M177.166,290.172c-0.398,0 -0.631,0.166 -0.764,0.532l-3.72,9.534l-3.721,-9.534c-0.133,-0.366 -0.365,-0.532 -0.764,-0.532l-3.322,0c-0.498,0 -0.731,0.299 -0.532,0.764l6.08,14.783l0,10.365c0,0.431 0.232,0.664 0.664,0.664l3.189,0c0.432,0 0.665,-0.233 0.665,-0.664l0,-10.365l6.079,-14.783c0.199,-0.465 -0.033,-0.764 -0.532,-0.764l-3.322,0Z" style="fill:#04263e;fill-rule:nonzero;"/><path d="M209.888,290.172c-0.399,0 -0.664,0.233 -0.698,0.631l-1.362,15.547l-0.166,0l-3.255,-15.58c-0.1,-0.399 -0.333,-0.598 -0.731,-0.598l-1.993,0c-0.399,0 -0.632,0.199 -0.731,0.598l-3.289,15.58l-0.166,0l-1.296,-15.547c-0.033,-0.398 -0.299,-0.631 -0.697,-0.631l-3.156,0c-0.432,0 -0.665,0.266 -0.631,0.698l2.724,25.247c0.033,0.432 0.265,0.631 0.697,0.631l3.322,0c0.399,0 0.631,-0.199 0.731,-0.565l3.488,-15.048l3.455,15.015c0.1,0.399 0.332,0.598 0.731,0.598l3.256,0c0.431,0 0.664,-0.199 0.697,-0.631l2.857,-25.247c0.033,-0.432 -0.199,-0.698 -0.631,-0.698l-3.156,0Z" style="fill:#04263e;fill-rule:nonzero;"/><path d="M216.864,290.172c-0.365,0 -0.531,0.199 -0.531,0.532l0,25.512c0,0.333 0.166,0.532 0.531,0.532l3.455,0c0.332,0 0.532,-0.199 0.532,-0.532l0,-25.512c0,-0.333 -0.2,-0.532 -0.532,-0.532l-3.455,0Z" style="fill:#04263e;fill-rule:nonzero;"/><path d="M228.691,312.363l7.906,0c0.365,0 0.531,0.199 0.531,0.531l0,3.322c0,0.366 -0.166,0.532 -0.531,0.532l-11.893,0c-0.332,0 -0.531,-0.166 -0.531,-0.532l0,-25.512c0,-0.333 0.199,-0.532 0.531,-0.532l3.455,0c0.365,0 0.531,0.199 0.531,0.532l0,21.659Z" style="fill:#04263e;fill-rule:nonzero;"/><path d="M243.573,290.172c-3.089,0 -4.784,1.661 -4.784,4.784l0,7.84c0,0.631 0.299,1.029 0.897,1.229l7.873,2.591l0,4.418c0,0.897 -0.465,1.329 -1.328,1.329l-1.595,0c-0.83,0 -1.329,-0.432 -1.329,-1.329l0,-2.558c0,-0.365 -0.166,-0.531 -0.531,-0.531l-3.455,0c-0.332,0 -0.532,0.166 -0.532,0.531l0,3.488c0,3.123 1.695,4.784 4.784,4.784l3.721,0c3.122,0 4.783,-1.661 4.783,-4.784l0,-7.673c0,-0.632 -0.299,-0.997 -0.863,-1.23l-7.907,-2.591l0,-4.584c0,-0.864 0.499,-1.329 1.329,-1.329l1.595,0c0.897,0 1.328,0.465 1.328,1.329l0,2.591c0,0.332 0.2,0.532 0.532,0.532l3.455,0c0.365,0 0.531,-0.2 0.531,-0.532l0,-3.521c0,-3.123 -1.661,-4.784 -4.783,-4.784l-3.721,0Z" style="fill:#04263e;fill-rule:nonzero;"/><path d="M255.399,311.964c0,3.123 1.661,4.784 4.784,4.784l3.721,0c3.122,0 4.783,-1.661 4.783,-4.784l0,-17.008c0,-3.123 -1.661,-4.784 -4.783,-4.784l-3.721,0c-3.123,0 -4.784,1.661 -4.784,4.784l0,17.008Zm5.747,0.499c-0.863,0 -1.328,-0.432 -1.328,-1.329l0,-15.348c0,-0.864 0.465,-1.329 1.328,-1.329l1.927,0c0.864,0 1.329,0.465 1.329,1.329l0,15.348c0,0.897 -0.465,1.329 -1.329,1.329l-1.927,0Z" style="fill:#04263e;fill-rule:nonzero;"/><path d="M282.208,290.172c-0.365,0 -0.532,0.199 -0.532,0.532l0,14.018l-0.199,0l-5.049,-14.118c-0.1,-0.299 -0.299,-0.432 -0.598,-0.432l-3.289,0c-0.332,0 -0.532,0.199 -0.532,0.532l0,25.512c0,0.333 0.2,0.532 0.532,0.532l3.455,0c0.365,0 0.531,-0.199 0.531,-0.532l0,-14.085l0.166,0l5.083,14.185c0.1,0.299 0.299,0.432 0.598,0.432l3.289,0c0.332,0 0.531,-0.199 0.531,-0.532l0,-25.512c0,-0.333 -0.199,-0.532 -0.531,-0.532l-3.455,0Z" style="fill:#04263e;fill-rule:nonzero;"/></g></g><g><path d="M215.63,272.487l-96.692,0l0,-10.139c0,-4.752 3.844,-8.614 8.589,-8.644l0.111,0c3.537,-0.002 11.31,-2.777 12.041,-3.588l0,0.057c4.127,-2.432 8.985,-5.649 9.394,-8.085c1.948,-11.599 -1.079,-17.724 -1.83,-18.792c-0.272,2.071 -1.8,1.927 -2.952,1.122c-1.086,-0.758 -0.903,-3.667 -2.326,-6.378c-1.424,-2.711 -2.904,-4.567 -3.219,-6.169c-0.334,-1.702 -0.329,-3.934 0.342,-4.229c1.002,-0.44 1.566,-0.168 2.312,0.807c-2.517,-21.534 6.753,-28.817 7.673,-29.637c0.63,-0.562 2.512,1.206 2.175,1.502c-8.873,12.481 -1.951,31.344 16.036,31.555c17.988,-0.211 24.909,-19.074 16.036,-31.555c-0.337,-0.296 1.545,-2.064 2.175,-1.502c0.92,0.82 10.191,8.103 7.674,29.637c0.745,-0.975 1.309,-1.247 2.311,-0.807c0.671,0.295 0.677,2.527 0.342,4.229c-0.315,1.602 -1.795,3.458 -3.219,6.169c-1.423,2.711 -1.24,5.62 -2.326,6.378c-1.152,0.805 -2.68,0.949 -2.952,-1.122c-0.751,1.068 -3.778,7.193 -1.83,18.792c0.409,2.436 5.267,5.653 9.394,8.085l0,-0.057c0.732,0.811 8.504,3.586 12.041,3.588l0.112,0c4.745,0.03 8.588,3.892 8.588,8.644l0,10.139Z" style="fill:#04263e;"/><path d="M217.367,263.163c-33.287,9.251 -66.649,9.168 -100.165,0l1.702,11.722l96.76,0l1.703,-11.722Z" style="fill:#04263e;"/><g><circle cx="168.567" cy="189.495" r="12.437" style="fill:#04263e;"/><circle cx="176.077" cy="166.199" r="5.648" style="fill:#04263e;"/><circle cx="165.01" cy="158.294" r="2.258" style="fill:#04263e;"/></g></g></g></g></svg>