<?xml version="1.0" encoding="UTF-8" standalone="no"?><!DOCTYPE svg PUBLIC "-//W3C//DTD SVG 1.1//EN" "http://www.w3.org/Graphics/SVG/1.1/DTD/svg11.dtd"><svg width="100%" height="100%" viewBox="0 0 382 382" version="1.1" xmlns="http://www.w3.org/2000/svg" xmlns:xlink="http://www.w3.org/1999/xlink" xml:space="preserve" xmlns:serif="http://www.serif.com/" style="fill-rule:evenodd;clip-rule:evenodd;stroke-linejoin:round;stroke-miterlimit:2;"><path d="M190.658,0c-105.227,0 -190.658,85.431 -190.658,190.658c0,105.227 85.431,190.658 190.658,190.658c105.227,0 190.658,-85.431 190.658,-190.658c0,-105.227 -85.431,-190.658 -190.658,-190.658Zm0,25c91.43,0 165.658,74.229 165.658,165.658c0,91.43 -74.228,165.658 -165.658,165.658c-91.429,0 -165.658,-74.228 -165.658,-165.658c0,-91.429 74.229,-165.658 165.658,-165.658Z" style="fill:url(#_Linear1);"/><path d="M190.658,24.55c-91.677,0 -166.108,74.431 -166.108,166.108c0,91.678 74.431,166.108 166.108,166.108c91.678,0 166.108,-74.43 166.108,-166.108c0,-91.677 -74.43,-166.108 -166.108,-166.108Zm0,25c77.88,0 141.108,63.229 141.108,141.108c0,77.88 -63.228,141.108 -141.108,141.108c-77.879,0 -141.108,-63.228 -141.108,-141.108c0,-77.879 63.229,-141.108 141.108,-141.108Z" style="fill:url(#_Linear2);"/><defs><linearGradient id="_Linear1" x1="0" y1="0" x2="1" y2="0" gradientUnits="userSpaceOnUse" gradientTransform="matrix(380.992,-0.180549,0.180549,380.992,0.158665,182.816)"><stop offset="0" style="stop-color:#ec9743;stop-opacity:1"/><stop offset="1" style="stop-color:#f5d9c1;stop-opacity:1"/></linearGradient><linearGradient id="_Linear2" x1="0" y1="0" x2="1" y2="0" gradientUnits="userSpaceOnUse" gradientTransform="matrix(331.766,3.12141,-3.12141,331.766,25,190.658)"><stop offset="0" style="stop-color:#d77b0c;stop-opacity:1"/><stop offset="1" style="stop-color:#f3c8a0;stop-opacity:1"/></linearGradient></defs></svg>