<svg width="100%" height="100%" viewBox="0 0 797 328" version="1.1" xmlns="http://www.w3.org/2000/svg" xmlns:xlink="http://www.w3.org/1999/xlink" xml:space="preserve" xmlns:serif="http://www.serif.com/" style="fill-rule:evenodd;clip-rule:evenodd;stroke-miterlimit:3;">
    <g id="reads-graph" serif:id="reads graph">
        <rect x="42.514" y="0" width="734" height="291" style="fill:#d0d0d0;"/>
        <path d="M3.934,71.777c0.607,0 1.146,0.133 1.617,0.399c0.471,0.266 0.838,0.639 1.099,1.12c0.261,0.481 0.392,1.029 0.392,1.645c0,0.616 -0.138,1.167 -0.413,1.652c-0.275,0.485 -0.656,0.866 -1.141,1.141c-0.485,0.275 -1.036,0.413 -1.652,0.413c-1.204,0 -2.133,-0.42 -2.786,-1.26c-0.653,-0.84 -0.98,-2.035 -0.98,-3.584c0,-1.12 0.152,-2.081 0.455,-2.884c0.303,-0.803 0.742,-1.414 1.316,-1.834c0.574,-0.42 1.262,-0.63 2.065,-0.63c0.579,0 1.141,0.107 1.687,0.322c0.546,0.215 1.024,0.518 1.435,0.91l-0.434,0.882c-0.467,-0.392 -0.915,-0.681 -1.344,-0.868c-0.429,-0.187 -0.868,-0.28 -1.316,-0.28c-0.859,0 -1.526,0.383 -2.002,1.148c-0.476,0.765 -0.714,1.839 -0.714,3.22l0,0.21c0.215,-0.532 0.565,-0.952 1.05,-1.26c0.485,-0.308 1.041,-0.462 1.666,-0.462Zm-0.154,5.404c0.635,0 1.148,-0.203 1.54,-0.609c0.392,-0.406 0.588,-0.945 0.588,-1.617c0,-0.663 -0.198,-1.197 -0.595,-1.603c-0.397,-0.406 -0.912,-0.609 -1.547,-0.609c-0.653,0 -1.185,0.205 -1.596,0.616c-0.411,0.411 -0.616,0.943 -0.616,1.596c0,0.663 0.205,1.199 0.616,1.61c0.411,0.411 0.947,0.616 1.61,0.616Z" style="fill:#959595;fill-rule:nonzero;"/>
        <path d="M11.914,78.147c-1.139,0 -2.004,-0.432 -2.597,-1.295c-0.593,-0.863 -0.889,-2.13 -0.889,-3.801c0,-1.671 0.296,-2.938 0.889,-3.801c0.593,-0.863 1.458,-1.295 2.597,-1.295c1.139,0 2.004,0.432 2.597,1.295c0.593,0.863 0.889,2.126 0.889,3.787c0,1.671 -0.296,2.94 -0.889,3.808c-0.593,0.868 -1.458,1.302 -2.597,1.302Zm0,-0.966c0.793,0 1.379,-0.336 1.757,-1.008c0.378,-0.672 0.567,-1.717 0.567,-3.136c0,-1.409 -0.187,-2.445 -0.56,-3.108c-0.373,-0.663 -0.961,-0.994 -1.764,-0.994c-0.793,0 -1.379,0.331 -1.757,0.994c-0.378,0.663 -0.567,1.699 -0.567,3.108c0,1.409 0.189,2.452 0.567,3.129c0.378,0.677 0.964,1.015 1.757,1.015Z" style="fill:#959595;fill-rule:nonzero;"/>
        <path d="M20.314,78.147c-1.139,0 -2.004,-0.432 -2.597,-1.295c-0.593,-0.863 -0.889,-2.13 -0.889,-3.801c0,-1.671 0.296,-2.938 0.889,-3.801c0.593,-0.863 1.458,-1.295 2.597,-1.295c1.139,0 2.004,0.432 2.597,1.295c0.593,0.863 0.889,2.126 0.889,3.787c0,1.671 -0.296,2.94 -0.889,3.808c-0.593,0.868 -1.458,1.302 -2.597,1.302Zm0,-0.966c0.793,0 1.379,-0.336 1.757,-1.008c0.378,-0.672 0.567,-1.717 0.567,-3.136c0,-1.409 -0.187,-2.445 -0.56,-3.108c-0.373,-0.663 -0.961,-0.994 -1.764,-0.994c-0.793,0 -1.379,0.331 -1.757,0.994c-0.378,0.663 -0.567,1.699 -0.567,3.108c0,1.409 0.189,2.452 0.567,3.129c0.378,0.677 0.964,1.015 1.757,1.015Z" style="fill:#959595;fill-rule:nonzero;"/>
        <path d="M7.252,147.663l0,0.952l-1.512,0l0,2.17l-1.148,0l0,-2.17l-4.592,0l0,-0.868l4.802,-6.93l0.938,0l0,6.846l1.512,0Zm-6.062,0l3.402,0l0,-4.9l-3.402,4.9Z" style="fill:#959595;fill-rule:nonzero;"/>
        <path d="M11.914,150.897c-1.139,0 -2.004,-0.432 -2.597,-1.295c-0.593,-0.863 -0.889,-2.13 -0.889,-3.801c0,-1.671 0.296,-2.938 0.889,-3.801c0.593,-0.863 1.458,-1.295 2.597,-1.295c1.139,0 2.004,0.432 2.597,1.295c0.593,0.863 0.889,2.126 0.889,3.787c0,1.671 -0.296,2.94 -0.889,3.808c-0.593,0.868 -1.458,1.302 -2.597,1.302Zm0,-0.966c0.793,0 1.379,-0.336 1.757,-1.008c0.378,-0.672 0.567,-1.717 0.567,-3.136c0,-1.409 -0.187,-2.445 -0.56,-3.108c-0.373,-0.663 -0.961,-0.994 -1.764,-0.994c-0.793,0 -1.379,0.331 -1.757,0.994c-0.378,0.663 -0.567,1.699 -0.567,3.108c0,1.409 0.189,2.452 0.567,3.129c0.378,0.677 0.964,1.015 1.757,1.015Z" style="fill:#959595;fill-rule:nonzero;"/>
        <path d="M20.314,150.897c-1.139,0 -2.004,-0.432 -2.597,-1.295c-0.593,-0.863 -0.889,-2.13 -0.889,-3.801c0,-1.671 0.296,-2.938 0.889,-3.801c0.593,-0.863 1.458,-1.295 2.597,-1.295c1.139,0 2.004,0.432 2.597,1.295c0.593,0.863 0.889,2.126 0.889,3.787c0,1.671 -0.296,2.94 -0.889,3.808c-0.593,0.868 -1.458,1.302 -2.597,1.302Zm0,-0.966c0.793,0 1.379,-0.336 1.757,-1.008c0.378,-0.672 0.567,-1.717 0.567,-3.136c0,-1.409 -0.187,-2.445 -0.56,-3.108c-0.373,-0.663 -0.961,-0.994 -1.764,-0.994c-0.793,0 -1.379,0.331 -1.757,0.994c-0.378,0.663 -0.567,1.699 -0.567,3.108c0,1.409 0.189,2.452 0.567,3.129c0.378,0.677 0.964,1.015 1.757,1.015Z" style="fill:#959595;fill-rule:nonzero;"/>
        <path d="M6.888,222.569l0,0.966l-6.412,0l0,-0.868l3.486,-3.864c0.467,-0.523 0.807,-0.994 1.022,-1.414c0.215,-0.42 0.322,-0.84 0.322,-1.26c0,-0.551 -0.159,-0.973 -0.476,-1.267c-0.317,-0.294 -0.77,-0.441 -1.358,-0.441c-0.952,0 -1.895,0.383 -2.828,1.148l-0.434,-0.882c0.392,-0.373 0.887,-0.672 1.484,-0.896c0.597,-0.224 1.199,-0.336 1.806,-0.336c0.915,0 1.638,0.236 2.17,0.707c0.532,0.471 0.798,1.108 0.798,1.911c0,0.569 -0.128,1.118 -0.385,1.645c-0.257,0.527 -0.684,1.118 -1.281,1.771l-2.842,3.08l4.928,0Z" style="fill:#959595;fill-rule:nonzero;"/>
        <path d="M11.914,223.647c-1.139,0 -2.004,-0.432 -2.597,-1.295c-0.593,-0.863 -0.889,-2.13 -0.889,-3.801c0,-1.671 0.296,-2.938 0.889,-3.801c0.593,-0.863 1.458,-1.295 2.597,-1.295c1.139,0 2.004,0.432 2.597,1.295c0.593,0.863 0.889,2.126 0.889,3.787c0,1.671 -0.296,2.94 -0.889,3.808c-0.593,0.868 -1.458,1.302 -2.597,1.302Zm0,-0.966c0.793,0 1.379,-0.336 1.757,-1.008c0.378,-0.672 0.567,-1.717 0.567,-3.136c0,-1.409 -0.187,-2.445 -0.56,-3.108c-0.373,-0.663 -0.961,-0.994 -1.764,-0.994c-0.793,0 -1.379,0.331 -1.757,0.994c-0.378,0.663 -0.567,1.699 -0.567,3.108c0,1.409 0.189,2.452 0.567,3.129c0.378,0.677 0.964,1.015 1.757,1.015Z" style="fill:#959595;fill-rule:nonzero;"/>
        <path d="M20.314,223.647c-1.139,0 -2.004,-0.432 -2.597,-1.295c-0.593,-0.863 -0.889,-2.13 -0.889,-3.801c0,-1.671 0.296,-2.938 0.889,-3.801c0.593,-0.863 1.458,-1.295 2.597,-1.295c1.139,0 2.004,0.432 2.597,1.295c0.593,0.863 0.889,2.126 0.889,3.787c0,1.671 -0.296,2.94 -0.889,3.808c-0.593,0.868 -1.458,1.302 -2.597,1.302Zm0,-0.966c0.793,0 1.379,-0.336 1.757,-1.008c0.378,-0.672 0.567,-1.717 0.567,-3.136c0,-1.409 -0.187,-2.445 -0.56,-3.108c-0.373,-0.663 -0.961,-0.994 -1.764,-0.994c-0.793,0 -1.379,0.331 -1.757,0.994c-0.378,0.663 -0.567,1.699 -0.567,3.108c0,1.409 0.189,2.452 0.567,3.129c0.378,0.677 0.964,1.015 1.757,1.015Z" style="fill:#959595;fill-rule:nonzero;"/>
        <path d="M20.314,296.397c-1.139,0 -2.004,-0.432 -2.597,-1.295c-0.593,-0.863 -0.889,-2.13 -0.889,-3.801c0,-1.671 0.296,-2.938 0.889,-3.801c0.593,-0.863 1.458,-1.295 2.597,-1.295c1.139,0 2.004,0.432 2.597,1.295c0.593,0.863 0.889,2.126 0.889,3.787c0,1.671 -0.296,2.94 -0.889,3.808c-0.593,0.868 -1.458,1.302 -2.597,1.302Zm0,-0.966c0.793,0 1.379,-0.336 1.757,-1.008c0.378,-0.672 0.567,-1.717 0.567,-3.136c0,-1.409 -0.187,-2.445 -0.56,-3.108c-0.373,-0.663 -0.961,-0.994 -1.764,-0.994c-0.793,0 -1.379,0.331 -1.757,0.994c-0.378,0.663 -0.567,1.699 -0.567,3.108c0,1.409 0.189,2.452 0.567,3.129c0.378,0.677 0.964,1.015 1.757,1.015Z" style="fill:#959595;fill-rule:nonzero;"/>
        <path d="M28.763,324.36l-1.092,-2.562l-5.208,0l-1.106,2.562l-1.19,0l4.382,-9.968l1.008,0l4.382,9.968l-1.176,0Zm-5.894,-3.514l4.396,0l-2.198,-5.124l-2.198,5.124Z" style="fill:#959595;fill-rule:nonzero;"/>
        <path d="M34.797,317.15c0.616,0 1.162,0.154 1.638,0.462c0.476,0.308 0.845,0.74 1.106,1.295c0.261,0.555 0.392,1.197 0.392,1.925c0,0.728 -0.131,1.365 -0.392,1.911c-0.261,0.546 -0.628,0.968 -1.099,1.267c-0.471,0.299 -1.02,0.448 -1.645,0.448c-0.551,0 -1.031,-0.121 -1.442,-0.364c-0.411,-0.243 -0.723,-0.588 -0.938,-1.036l0,4.326l-1.134,0l0,-8.092c0,-0.728 -0.037,-1.386 -0.112,-1.974l1.078,0l0.112,1.358c0.196,-0.485 0.506,-0.861 0.931,-1.127c0.425,-0.266 0.926,-0.399 1.505,-0.399Zm-0.21,6.37c0.691,0 1.225,-0.233 1.603,-0.7c0.378,-0.467 0.567,-1.129 0.567,-1.988c0,-0.859 -0.191,-1.528 -0.574,-2.009c-0.383,-0.481 -0.915,-0.721 -1.596,-0.721c-0.7,0 -1.237,0.233 -1.61,0.7c-0.373,0.467 -0.56,1.134 -0.56,2.002c0,0.868 0.187,1.538 0.56,2.009c0.373,0.471 0.91,0.707 1.61,0.707Z" style="fill:#959595;fill-rule:nonzero;"/>
        <path d="M42.959,317.15c0.233,0 0.448,0.028 0.644,0.084l-0.028,1.036c-0.215,-0.075 -0.462,-0.112 -0.742,-0.112c-0.681,0 -1.188,0.212 -1.519,0.637c-0.331,0.425 -0.497,0.94 -0.497,1.547l0,4.018l-1.134,0l0,-5.068c0,-0.728 -0.037,-1.386 -0.112,-1.974l1.078,0l0.112,1.302c0.177,-0.476 0.462,-0.84 0.854,-1.092c0.392,-0.252 0.84,-0.378 1.344,-0.378Z" style="fill:#959595;fill-rule:nonzero;"/>
        <path d="M52.465,323.394l2.198,0l0,0.966l-5.558,0l0,-0.966l2.198,0l0,-7.574l-2.044,1.302l0,-1.106l2.548,-1.624l0.658,0l0,9.002Z" style="fill:#959595;fill-rule:nonzero;"/>
        <path d="M60.333,318.102c0.625,0 1.174,0.133 1.645,0.399c0.471,0.266 0.833,0.637 1.085,1.113c0.252,0.476 0.378,1.027 0.378,1.652c0,0.625 -0.138,1.181 -0.413,1.666c-0.275,0.485 -0.667,0.861 -1.176,1.127c-0.509,0.266 -1.104,0.399 -1.785,0.399c-0.607,0 -1.204,-0.11 -1.792,-0.329c-0.588,-0.219 -1.083,-0.52 -1.484,-0.903l0.434,-0.882c0.924,0.765 1.871,1.148 2.842,1.148c0.7,0 1.248,-0.198 1.645,-0.595c0.397,-0.397 0.595,-0.936 0.595,-1.617c0,-0.663 -0.196,-1.197 -0.588,-1.603c-0.392,-0.406 -0.915,-0.609 -1.568,-0.609c-0.952,0 -1.713,0.387 -2.282,1.162l-0.798,0l0,-5.838l5.978,0l0,0.952l-4.83,0l0,3.556c0.551,-0.532 1.255,-0.798 2.114,-0.798Z" style="fill:#959595;fill-rule:nonzero;"/>
        <path d="M133.893,324.36l-1.092,-2.562l-5.208,0l-1.106,2.562l-1.19,0l4.382,-9.968l1.008,0l4.382,9.968l-1.176,0Zm-5.894,-3.514l4.396,0l-2.198,-5.124l-2.198,5.124Z" style="fill:#959595;fill-rule:nonzero;"/>
        <path d="M139.927,317.15c0.616,0 1.162,0.154 1.638,0.462c0.476,0.308 0.844,0.74 1.106,1.295c0.261,0.555 0.392,1.197 0.392,1.925c0,0.728 -0.131,1.365 -0.392,1.911c-0.262,0.546 -0.628,0.968 -1.099,1.267c-0.472,0.299 -1.02,0.448 -1.645,0.448c-0.551,0 -1.032,-0.121 -1.442,-0.364c-0.411,-0.243 -0.724,-0.588 -0.938,-1.036l0,4.326l-1.134,0l0,-8.092c0,-0.728 -0.038,-1.386 -0.112,-1.974l1.078,0l0.112,1.358c0.196,-0.485 0.506,-0.861 0.931,-1.127c0.424,-0.266 0.926,-0.399 1.505,-0.399Zm-0.21,6.37c0.69,0 1.225,-0.233 1.603,-0.7c0.378,-0.467 0.567,-1.129 0.567,-1.988c0,-0.859 -0.192,-1.528 -0.574,-2.009c-0.383,-0.481 -0.915,-0.721 -1.596,-0.721c-0.7,0 -1.237,0.233 -1.61,0.7c-0.374,0.467 -0.56,1.134 -0.56,2.002c0,0.868 0.186,1.538 0.56,2.009c0.373,0.471 0.91,0.707 1.61,0.707Z" style="fill:#959595;fill-rule:nonzero;"/>
        <path d="M148.089,317.15c0.233,0 0.448,0.028 0.644,0.084l-0.028,1.036c-0.215,-0.075 -0.462,-0.112 -0.742,-0.112c-0.682,0 -1.188,0.212 -1.519,0.637c-0.332,0.425 -0.497,0.94 -0.497,1.547l0,4.018l-1.134,0l0,-5.068c0,-0.728 -0.038,-1.386 -0.112,-1.974l1.078,0l0.112,1.302c0.177,-0.476 0.462,-0.84 0.854,-1.092c0.392,-0.252 0.84,-0.378 1.344,-0.378Z" style="fill:#959595;fill-rule:nonzero;"/>
        <path d="M160.017,323.394l0,0.966l-6.412,0l0,-0.868l3.486,-3.864c0.466,-0.523 0.807,-0.994 1.022,-1.414c0.214,-0.42 0.322,-0.84 0.322,-1.26c0,-0.551 -0.159,-0.973 -0.476,-1.267c-0.318,-0.294 -0.77,-0.441 -1.358,-0.441c-0.952,0 -1.895,0.383 -2.828,1.148l-0.434,-0.882c0.392,-0.373 0.886,-0.672 1.484,-0.896c0.597,-0.224 1.199,-0.336 1.806,-0.336c0.914,0 1.638,0.236 2.17,0.707c0.532,0.471 0.798,1.108 0.798,1.911c0,0.569 -0.129,1.118 -0.385,1.645c-0.257,0.527 -0.684,1.118 -1.281,1.771l-2.842,3.08l4.928,0Z" style="fill:#959595;fill-rule:nonzero;"/>
        <path d="M168.417,323.394l0,0.966l-6.412,0l0,-0.868l3.486,-3.864c0.466,-0.523 0.807,-0.994 1.022,-1.414c0.214,-0.42 0.322,-0.84 0.322,-1.26c0,-0.551 -0.159,-0.973 -0.476,-1.267c-0.318,-0.294 -0.77,-0.441 -1.358,-0.441c-0.952,0 -1.895,0.383 -2.828,1.148l-0.434,-0.882c0.392,-0.373 0.886,-0.672 1.484,-0.896c0.597,-0.224 1.199,-0.336 1.806,-0.336c0.914,0 1.638,0.236 2.17,0.707c0.532,0.471 0.798,1.108 0.798,1.911c0,0.569 -0.129,1.118 -0.385,1.645c-0.257,0.527 -0.684,1.118 -1.281,1.771l-2.842,3.08l4.928,0Z" style="fill:#959595;fill-rule:nonzero;"/>
        <path d="M238.868,324.36l-1.092,-2.562l-5.208,0l-1.106,2.562l-1.19,0l4.382,-9.968l1.008,0l4.382,9.968l-1.176,0Zm-5.894,-3.514l4.396,0l-2.198,-5.124l-2.198,5.124Z" style="fill:#959595;fill-rule:nonzero;"/>
        <path d="M244.902,317.15c0.616,0 1.162,0.154 1.638,0.462c0.476,0.308 0.845,0.74 1.106,1.295c0.262,0.555 0.392,1.197 0.392,1.925c0,0.728 -0.13,1.365 -0.392,1.911c-0.261,0.546 -0.627,0.968 -1.099,1.267c-0.471,0.299 -1.019,0.448 -1.645,0.448c-0.55,0 -1.031,-0.121 -1.442,-0.364c-0.41,-0.243 -0.723,-0.588 -0.938,-1.036l0,4.326l-1.134,0l0,-8.092c0,-0.728 -0.037,-1.386 -0.112,-1.974l1.078,0l0.112,1.358c0.196,-0.485 0.507,-0.861 0.931,-1.127c0.425,-0.266 0.927,-0.399 1.505,-0.399Zm-0.21,6.37c0.691,0 1.225,-0.233 1.603,-0.7c0.378,-0.467 0.567,-1.129 0.567,-1.988c0,-0.859 -0.191,-1.528 -0.574,-2.009c-0.382,-0.481 -0.914,-0.721 -1.596,-0.721c-0.7,0 -1.236,0.233 -1.61,0.7c-0.373,0.467 -0.56,1.134 -0.56,2.002c0,0.868 0.187,1.538 0.56,2.009c0.374,0.471 0.91,0.707 1.61,0.707Z" style="fill:#959595;fill-rule:nonzero;"/>
        <path d="M253.064,317.15c0.234,0 0.448,0.028 0.644,0.084l-0.028,1.036c-0.214,-0.075 -0.462,-0.112 -0.742,-0.112c-0.681,0 -1.187,0.212 -1.519,0.637c-0.331,0.425 -0.497,0.94 -0.497,1.547l0,4.018l-1.134,0l0,-5.068c0,-0.728 -0.037,-1.386 -0.112,-1.974l1.078,0l0.112,1.302c0.178,-0.476 0.462,-0.84 0.854,-1.092c0.392,-0.252 0.84,-0.378 1.344,-0.378Z" style="fill:#959595;fill-rule:nonzero;"/>
        <path d="M264.992,323.394l0,0.966l-6.412,0l0,-0.868l3.486,-3.864c0.467,-0.523 0.808,-0.994 1.022,-1.414c0.215,-0.42 0.322,-0.84 0.322,-1.26c0,-0.551 -0.158,-0.973 -0.476,-1.267c-0.317,-0.294 -0.77,-0.441 -1.358,-0.441c-0.952,0 -1.894,0.383 -2.828,1.148l-0.434,-0.882c0.392,-0.373 0.887,-0.672 1.484,-0.896c0.598,-0.224 1.2,-0.336 1.806,-0.336c0.915,0 1.638,0.236 2.17,0.707c0.532,0.471 0.798,1.108 0.798,1.911c0,0.569 -0.128,1.118 -0.385,1.645c-0.256,0.527 -0.683,1.118 -1.281,1.771l-2.842,3.08l4.928,0Z" style="fill:#959595;fill-rule:nonzero;"/>
        <path d="M269.71,314.28c1.204,0 2.133,0.42 2.786,1.26c0.654,0.84 0.98,2.035 0.98,3.584c0,1.689 -0.338,3.003 -1.015,3.941c-0.676,0.938 -1.621,1.407 -2.835,1.407c-0.569,0 -1.127,-0.107 -1.673,-0.322c-0.546,-0.215 -1.029,-0.518 -1.449,-0.91l0.448,-0.882c0.476,0.401 0.929,0.693 1.358,0.875c0.43,0.182 0.864,0.273 1.302,0.273c0.859,0 1.524,-0.383 1.995,-1.148c0.472,-0.765 0.707,-1.839 0.707,-3.22l0,-0.182c-0.214,0.523 -0.564,0.936 -1.05,1.239c-0.485,0.303 -1.04,0.455 -1.666,0.455c-0.606,0 -1.143,-0.133 -1.61,-0.399c-0.466,-0.266 -0.83,-0.639 -1.092,-1.12c-0.261,-0.481 -0.392,-1.029 -0.392,-1.645c0,-0.616 0.138,-1.167 0.413,-1.652c0.276,-0.485 0.656,-0.866 1.141,-1.141c0.486,-0.275 1.036,-0.413 1.652,-0.413Zm0.07,5.404c0.654,0 1.186,-0.205 1.596,-0.616c0.411,-0.411 0.616,-0.943 0.616,-1.596c0,-0.663 -0.205,-1.199 -0.616,-1.61c-0.41,-0.411 -0.947,-0.616 -1.61,-0.616c-0.634,0 -1.148,0.203 -1.54,0.609c-0.392,0.406 -0.588,0.945 -0.588,1.617c0,0.663 0.196,1.197 0.588,1.603c0.392,0.406 0.91,0.609 1.554,0.609Z" style="fill:#959595;fill-rule:nonzero;"/>
        <path d="M342.71,314.392l0.952,0l0,9.968l-1.064,0l0,-7.406l-3.234,7.406l-0.812,0l-3.262,-7.35l0.014,7.35l-1.064,0l0,-9.968l0.952,0l3.78,8.596l3.738,-8.596Z" style="fill:#959595;fill-rule:nonzero;"/>
        <path d="M352.188,317.318l0,7.042l-1.12,0l0,-1.274c-0.205,0.439 -0.516,0.777 -0.931,1.015c-0.415,0.238 -0.898,0.357 -1.449,0.357c-0.625,0 -1.174,-0.149 -1.645,-0.448c-0.471,-0.299 -0.835,-0.721 -1.092,-1.267c-0.257,-0.546 -0.385,-1.183 -0.385,-1.911c0,-0.728 0.131,-1.37 0.392,-1.925c0.261,-0.555 0.628,-0.987 1.099,-1.295c0.471,-0.308 1.015,-0.462 1.631,-0.462c0.551,0 1.031,0.121 1.442,0.364c0.411,0.243 0.723,0.583 0.938,1.022l0,-1.218l1.12,0Zm-3.276,6.202c0.691,0 1.223,-0.236 1.596,-0.707c0.373,-0.471 0.56,-1.141 0.56,-2.009c0,-0.868 -0.187,-1.535 -0.56,-2.002c-0.373,-0.467 -0.905,-0.7 -1.596,-0.7c-0.691,0 -1.23,0.24 -1.617,0.721c-0.387,0.481 -0.581,1.15 -0.581,2.009c0,0.859 0.191,1.521 0.574,1.988c0.383,0.467 0.924,0.7 1.624,0.7Z" style="fill:#959595;fill-rule:nonzero;"/>
        <path d="M360.574,317.318l-3.29,7.686c-0.345,0.803 -0.779,1.391 -1.302,1.764c-0.523,0.373 -1.167,0.63 -1.932,0.77l-0.238,-0.882c0.663,-0.149 1.164,-0.348 1.505,-0.595c0.341,-0.247 0.623,-0.628 0.847,-1.141l0.28,-0.63l-2.982,-6.972l1.19,0l2.38,5.81l2.408,-5.81l1.134,0Z" style="fill:#959595;fill-rule:nonzero;"/>
        <path d="M368.582,324.472c-1.139,0 -2.004,-0.432 -2.597,-1.295c-0.593,-0.863 -0.889,-2.13 -0.889,-3.801c0,-1.671 0.296,-2.938 0.889,-3.801c0.593,-0.863 1.458,-1.295 2.597,-1.295c1.139,0 2.004,0.432 2.597,1.295c0.593,0.863 0.889,2.126 0.889,3.787c0,1.671 -0.296,2.94 -0.889,3.808c-0.593,0.868 -1.458,1.302 -2.597,1.302Zm0,-0.966c0.793,0 1.379,-0.336 1.757,-1.008c0.378,-0.672 0.567,-1.717 0.567,-3.136c0,-1.409 -0.187,-2.445 -0.56,-3.108c-0.373,-0.663 -0.961,-0.994 -1.764,-0.994c-0.793,0 -1.379,0.331 -1.757,0.994c-0.378,0.663 -0.567,1.699 -0.567,3.108c0,1.409 0.189,2.452 0.567,3.129c0.378,0.677 0.964,1.015 1.757,1.015Z" style="fill:#959595;fill-rule:nonzero;"/>
        <path d="M377.402,318.102c0.607,0 1.146,0.133 1.617,0.399c0.471,0.266 0.838,0.639 1.099,1.12c0.261,0.481 0.392,1.029 0.392,1.645c0,0.616 -0.138,1.167 -0.413,1.652c-0.275,0.485 -0.656,0.866 -1.141,1.141c-0.485,0.275 -1.036,0.413 -1.652,0.413c-1.204,0 -2.133,-0.42 -2.786,-1.26c-0.653,-0.84 -0.98,-2.035 -0.98,-3.584c0,-1.12 0.152,-2.081 0.455,-2.884c0.303,-0.803 0.742,-1.414 1.316,-1.834c0.574,-0.42 1.262,-0.63 2.065,-0.63c0.579,0 1.141,0.107 1.687,0.322c0.546,0.215 1.024,0.518 1.435,0.91l-0.434,0.882c-0.467,-0.392 -0.915,-0.681 -1.344,-0.868c-0.429,-0.187 -0.868,-0.28 -1.316,-0.28c-0.859,0 -1.526,0.383 -2.002,1.148c-0.476,0.765 -0.714,1.839 -0.714,3.22l0,0.21c0.215,-0.532 0.565,-0.952 1.05,-1.26c0.485,-0.308 1.041,-0.462 1.666,-0.462Zm-0.154,5.404c0.635,0 1.148,-0.203 1.54,-0.609c0.392,-0.406 0.588,-0.945 0.588,-1.617c0,-0.663 -0.198,-1.197 -0.595,-1.603c-0.397,-0.406 -0.912,-0.609 -1.547,-0.609c-0.653,0 -1.185,0.205 -1.596,0.616c-0.411,0.411 -0.616,0.943 -0.616,1.596c0,0.663 0.205,1.199 0.616,1.61c0.411,0.411 0.947,0.616 1.61,0.616Z" style="fill:#959595;fill-rule:nonzero;"/>
        <path d="M447.686,314.392l0.952,0l0,9.968l-1.064,0l0,-7.406l-3.234,7.406l-0.812,0l-3.262,-7.35l0.014,7.35l-1.064,0l0,-9.968l0.952,0l3.78,8.596l3.738,-8.596Z" style="fill:#959595;fill-rule:nonzero;"/>
        <path d="M457.164,317.318l0,7.042l-1.12,0l0,-1.274c-0.206,0.439 -0.516,0.777 -0.931,1.015c-0.416,0.238 -0.899,0.357 -1.449,0.357c-0.626,0 -1.174,-0.149 -1.645,-0.448c-0.472,-0.299 -0.836,-0.721 -1.092,-1.267c-0.257,-0.546 -0.385,-1.183 -0.385,-1.911c0,-0.728 0.13,-1.37 0.392,-1.925c0.261,-0.555 0.627,-0.987 1.099,-1.295c0.471,-0.308 1.015,-0.462 1.631,-0.462c0.55,0 1.031,0.121 1.442,0.364c0.41,0.243 0.723,0.583 0.938,1.022l0,-1.218l1.12,0Zm-3.276,6.202c0.69,0 1.222,-0.236 1.596,-0.707c0.373,-0.471 0.56,-1.141 0.56,-2.009c0,-0.868 -0.187,-1.535 -0.56,-2.002c-0.374,-0.467 -0.906,-0.7 -1.596,-0.7c-0.691,0 -1.23,0.24 -1.617,0.721c-0.388,0.481 -0.581,1.15 -0.581,2.009c0,0.859 0.191,1.521 0.574,1.988c0.382,0.467 0.924,0.7 1.624,0.7Z" style="fill:#959595;fill-rule:nonzero;"/>
        <path d="M465.55,317.318l-3.29,7.686c-0.346,0.803 -0.78,1.391 -1.302,1.764c-0.523,0.373 -1.167,0.63 -1.932,0.77l-0.238,-0.882c0.662,-0.149 1.164,-0.348 1.505,-0.595c0.34,-0.247 0.623,-0.628 0.847,-1.141l0.28,-0.63l-2.982,-6.972l1.19,0l2.38,5.81l2.408,-5.81l1.134,0Z" style="fill:#959595;fill-rule:nonzero;"/>
        <path d="M474.51,323.394l2.198,0l0,0.966l-5.558,0l0,-0.966l2.198,0l0,-7.574l-2.044,1.302l0,-1.106l2.548,-1.624l0.658,0l0,9.002Z" style="fill:#959595;fill-rule:nonzero;"/>
        <path d="M483.33,319.236c0.588,0.168 1.036,0.457 1.344,0.868c0.308,0.411 0.462,0.929 0.462,1.554c0,0.868 -0.294,1.552 -0.882,2.051c-0.588,0.499 -1.386,0.749 -2.394,0.749c-0.644,0 -1.263,-0.107 -1.855,-0.322c-0.593,-0.215 -1.095,-0.518 -1.505,-0.91l0.448,-0.882c0.924,0.765 1.885,1.148 2.884,1.148c0.709,0 1.248,-0.159 1.617,-0.476c0.368,-0.317 0.553,-0.784 0.553,-1.4c0,-1.223 -0.766,-1.834 -2.296,-1.834l-1.148,0l0,-0.966l0.924,0c0.737,0 1.302,-0.163 1.694,-0.49c0.392,-0.327 0.588,-0.793 0.588,-1.4c0,-0.541 -0.161,-0.957 -0.483,-1.246c-0.322,-0.289 -0.777,-0.434 -1.365,-0.434c-0.952,0 -1.895,0.383 -2.828,1.148l-0.434,-0.882c0.401,-0.383 0.893,-0.684 1.477,-0.903c0.583,-0.219 1.192,-0.329 1.827,-0.329c0.896,0 1.612,0.229 2.149,0.686c0.536,0.457 0.805,1.073 0.805,1.848c0,0.569 -0.14,1.069 -0.42,1.498c-0.28,0.429 -0.668,0.737 -1.162,0.924Z" style="fill:#959595;fill-rule:nonzero;"/>
        <path d="M552.661,314.392l0.952,0l0,9.968l-1.064,0l0,-7.406l-3.234,7.406l-0.812,0l-3.262,-7.35l0.014,7.35l-1.064,0l0,-9.968l0.952,0l3.78,8.596l3.738,-8.596Z" style="fill:#959595;fill-rule:nonzero;"/>
        <path d="M562.139,317.318l0,7.042l-1.12,0l0,-1.274c-0.205,0.439 -0.515,0.777 -0.931,1.015c-0.415,0.238 -0.898,0.357 -1.449,0.357c-0.625,0 -1.173,-0.149 -1.645,-0.448c-0.471,-0.299 -0.835,-0.721 -1.092,-1.267c-0.256,-0.546 -0.385,-1.183 -0.385,-1.911c0,-0.728 0.131,-1.37 0.392,-1.925c0.262,-0.555 0.628,-0.987 1.099,-1.295c0.472,-0.308 1.015,-0.462 1.631,-0.462c0.551,0 1.032,0.121 1.442,0.364c0.411,0.243 0.724,0.583 0.938,1.022l0,-1.218l1.12,0Zm-3.276,6.202c0.691,0 1.223,-0.236 1.596,-0.707c0.374,-0.471 0.56,-1.141 0.56,-2.009c0,-0.868 -0.186,-1.535 -0.56,-2.002c-0.373,-0.467 -0.905,-0.7 -1.596,-0.7c-0.69,0 -1.229,0.24 -1.617,0.721c-0.387,0.481 -0.581,1.15 -0.581,2.009c0,0.859 0.192,1.521 0.574,1.988c0.383,0.467 0.924,0.7 1.624,0.7Z" style="fill:#959595;fill-rule:nonzero;"/>
        <path d="M570.525,317.318l-3.29,7.686c-0.345,0.803 -0.779,1.391 -1.302,1.764c-0.522,0.373 -1.166,0.63 -1.932,0.77l-0.238,-0.882c0.663,-0.149 1.165,-0.348 1.505,-0.595c0.341,-0.247 0.623,-0.628 0.847,-1.141l0.28,-0.63l-2.982,-6.972l1.19,0l2.38,5.81l2.408,-5.81l1.134,0Z" style="fill:#959595;fill-rule:nonzero;"/>
        <path d="M581.907,323.394l0,0.966l-6.412,0l0,-0.868l3.486,-3.864c0.467,-0.523 0.808,-0.994 1.022,-1.414c0.215,-0.42 0.322,-0.84 0.322,-1.26c0,-0.551 -0.158,-0.973 -0.476,-1.267c-0.317,-0.294 -0.77,-0.441 -1.358,-0.441c-0.952,0 -1.894,0.383 -2.828,1.148l-0.434,-0.882c0.392,-0.373 0.887,-0.672 1.484,-0.896c0.598,-0.224 1.2,-0.336 1.806,-0.336c0.915,0 1.638,0.236 2.17,0.707c0.532,0.471 0.798,1.108 0.798,1.911c0,0.569 -0.128,1.118 -0.385,1.645c-0.256,0.527 -0.683,1.118 -1.281,1.771l-2.842,3.08l4.928,0Z" style="fill:#959595;fill-rule:nonzero;"/>
        <path d="M586.933,324.472c-1.138,0 -2.004,-0.432 -2.597,-1.295c-0.592,-0.863 -0.889,-2.13 -0.889,-3.801c0,-1.671 0.297,-2.938 0.889,-3.801c0.593,-0.863 1.459,-1.295 2.597,-1.295c1.139,0 2.005,0.432 2.597,1.295c0.593,0.863 0.889,2.126 0.889,3.787c0,1.671 -0.296,2.94 -0.889,3.808c-0.592,0.868 -1.458,1.302 -2.597,1.302Zm0,-0.966c0.794,0 1.379,-0.336 1.757,-1.008c0.378,-0.672 0.567,-1.717 0.567,-3.136c0,-1.409 -0.186,-2.445 -0.56,-3.108c-0.373,-0.663 -0.961,-0.994 -1.764,-0.994c-0.793,0 -1.379,0.331 -1.757,0.994c-0.378,0.663 -0.567,1.699 -0.567,3.108c0,1.409 0.189,2.452 0.567,3.129c0.378,0.677 0.964,1.015 1.757,1.015Z" style="fill:#959595;fill-rule:nonzero;"/>
        <path d="M657.637,314.392l0.952,0l0,9.968l-1.064,0l0,-7.406l-3.234,7.406l-0.812,0l-3.262,-7.35l0.014,7.35l-1.064,0l0,-9.968l0.952,0l3.78,8.596l3.738,-8.596Z" style="fill:#959595;fill-rule:nonzero;"/>
        <path d="M667.115,317.318l0,7.042l-1.12,0l0,-1.274c-0.205,0.439 -0.516,0.777 -0.931,1.015c-0.415,0.238 -0.898,0.357 -1.449,0.357c-0.625,0 -1.174,-0.149 -1.645,-0.448c-0.471,-0.299 -0.835,-0.721 -1.092,-1.267c-0.257,-0.546 -0.385,-1.183 -0.385,-1.911c0,-0.728 0.131,-1.37 0.392,-1.925c0.261,-0.555 0.628,-0.987 1.099,-1.295c0.471,-0.308 1.015,-0.462 1.631,-0.462c0.551,0 1.031,0.121 1.442,0.364c0.411,0.243 0.723,0.583 0.938,1.022l0,-1.218l1.12,0Zm-3.276,6.202c0.691,0 1.223,-0.236 1.596,-0.707c0.373,-0.471 0.56,-1.141 0.56,-2.009c0,-0.868 -0.187,-1.535 -0.56,-2.002c-0.373,-0.467 -0.905,-0.7 -1.596,-0.7c-0.691,0 -1.23,0.24 -1.617,0.721c-0.387,0.481 -0.581,1.15 -0.581,2.009c0,0.859 0.191,1.521 0.574,1.988c0.383,0.467 0.924,0.7 1.624,0.7Z" style="fill:#959595;fill-rule:nonzero;"/>
        <path d="M675.501,317.318l-3.29,7.686c-0.345,0.803 -0.779,1.391 -1.302,1.764c-0.523,0.373 -1.167,0.63 -1.932,0.77l-0.238,-0.882c0.663,-0.149 1.164,-0.348 1.505,-0.595c0.341,-0.247 0.623,-0.628 0.847,-1.141l0.28,-0.63l-2.982,-6.972l1.19,0l2.38,5.81l2.408,-5.81l1.134,0Z" style="fill:#959595;fill-rule:nonzero;"/>
        <path d="M686.883,323.394l0,0.966l-6.412,0l0,-0.868l3.486,-3.864c0.467,-0.523 0.807,-0.994 1.022,-1.414c0.215,-0.42 0.322,-0.84 0.322,-1.26c0,-0.551 -0.159,-0.973 -0.476,-1.267c-0.317,-0.294 -0.77,-0.441 -1.358,-0.441c-0.952,0 -1.895,0.383 -2.828,1.148l-0.434,-0.882c0.392,-0.373 0.887,-0.672 1.484,-0.896c0.597,-0.224 1.199,-0.336 1.806,-0.336c0.915,0 1.638,0.236 2.17,0.707c0.532,0.471 0.798,1.108 0.798,1.911c0,0.569 -0.128,1.118 -0.385,1.645c-0.257,0.527 -0.684,1.118 -1.281,1.771l-2.842,3.08l4.928,0Z" style="fill:#959595;fill-rule:nonzero;"/>
        <path d="M688.619,314.392l6.58,0l0,0.854l-4.676,9.114l-1.232,0l4.648,-9.002l-5.32,0l0,-0.966Z" style="fill:#959595;fill-rule:nonzero;"/>
        <path d="M756.264,325.858c0.42,0.075 0.756,0.112 1.008,0.112c0.476,0 0.809,-0.133 1.001,-0.399c0.191,-0.266 0.287,-0.721 0.287,-1.365l0,-9.814l1.148,0l0,9.828c0,0.971 -0.175,1.671 -0.525,2.1c-0.35,0.429 -0.927,0.644 -1.729,0.644c-0.318,0 -0.714,-0.037 -1.19,-0.112l0,-0.994Z" style="fill:#959595;fill-rule:nonzero;"/>
        <path d="M767.926,317.318l0,7.042l-1.106,0l0,-1.218c-0.224,0.429 -0.537,0.756 -0.938,0.98c-0.402,0.224 -0.854,0.336 -1.358,0.336c-0.831,0 -1.461,-0.233 -1.89,-0.7c-0.43,-0.467 -0.644,-1.157 -0.644,-2.072l0,-4.368l1.134,0l0,4.34c0,0.635 0.13,1.101 0.392,1.4c0.261,0.299 0.658,0.448 1.19,0.448c0.625,0 1.129,-0.203 1.512,-0.609c0.382,-0.406 0.574,-0.94 0.574,-1.603l0,-3.976l1.134,0Z" style="fill:#959595;fill-rule:nonzero;"/>
        <path d="M773.624,317.15c1.689,0 2.534,0.929 2.534,2.786l0,4.424l-1.134,0l0,-4.368c0,-0.653 -0.131,-1.132 -0.392,-1.435c-0.262,-0.303 -0.672,-0.455 -1.232,-0.455c-0.654,0 -1.176,0.201 -1.568,0.602c-0.392,0.401 -0.588,0.943 -0.588,1.624l0,4.032l-1.134,0l0,-5.068c0,-0.728 -0.038,-1.386 -0.112,-1.974l1.078,0l0.112,1.26c0.214,-0.457 0.536,-0.81 0.966,-1.057c0.429,-0.247 0.919,-0.371 1.47,-0.371Z" style="fill:#959595;fill-rule:nonzero;"/>
        <path d="M785.062,324.472c-1.139,0 -2.005,-0.432 -2.597,-1.295c-0.593,-0.863 -0.889,-2.13 -0.889,-3.801c0,-1.671 0.296,-2.938 0.889,-3.801c0.592,-0.863 1.458,-1.295 2.597,-1.295c1.138,0 2.004,0.432 2.597,1.295c0.592,0.863 0.889,2.126 0.889,3.787c0,1.671 -0.297,2.94 -0.889,3.808c-0.593,0.868 -1.459,1.302 -2.597,1.302Zm0,-0.966c0.793,0 1.379,-0.336 1.757,-1.008c0.378,-0.672 0.567,-1.717 0.567,-3.136c0,-1.409 -0.187,-2.445 -0.56,-3.108c-0.374,-0.663 -0.962,-0.994 -1.764,-0.994c-0.794,0 -1.379,0.331 -1.757,0.994c-0.378,0.663 -0.567,1.699 -0.567,3.108c0,1.409 0.189,2.452 0.567,3.129c0.378,0.677 0.963,1.015 1.757,1.015Z" style="fill:#959595;fill-rule:nonzero;"/>
        <path d="M794.834,319.236c0.588,0.168 1.036,0.457 1.344,0.868c0.308,0.411 0.462,0.929 0.462,1.554c0,0.868 -0.294,1.552 -0.882,2.051c-0.588,0.499 -1.386,0.749 -2.394,0.749c-0.644,0 -1.263,-0.107 -1.855,-0.322c-0.593,-0.215 -1.095,-0.518 -1.505,-0.91l0.448,-0.882c0.924,0.765 1.885,1.148 2.884,1.148c0.709,0 1.248,-0.159 1.617,-0.476c0.368,-0.317 0.553,-0.784 0.553,-1.4c0,-1.223 -0.766,-1.834 -2.296,-1.834l-1.148,0l0,-0.966l0.924,0c0.737,0 1.302,-0.163 1.694,-0.49c0.392,-0.327 0.588,-0.793 0.588,-1.4c0,-0.541 -0.161,-0.957 -0.483,-1.246c-0.322,-0.289 -0.777,-0.434 -1.365,-0.434c-0.952,0 -1.895,0.383 -2.828,1.148l-0.434,-0.882c0.401,-0.383 0.893,-0.684 1.477,-0.903c0.583,-0.219 1.192,-0.329 1.827,-0.329c0.896,0 1.612,0.229 2.149,0.686c0.536,0.457 0.805,1.073 0.805,1.848c0,0.569 -0.14,1.069 -0.42,1.498c-0.28,0.429 -0.668,0.737 -1.162,0.924Z" style="fill:#959595;fill-rule:nonzero;"/>
        <path d="M42.514,72.75l734,0" style="fill-rule:nonzero;stroke:#b5b5b5;stroke-width:1px;"/>
        <path d="M42.514,145.5l734,0" style="fill-rule:nonzero;stroke:#b5b5b5;stroke-width:1px;"/>
        <path d="M42.514,218.25l734,0" style="fill-rule:nonzero;stroke:#b5b5b5;stroke-width:1px;"/>
        <path d="M42.514,291l0,8.015" style="fill-rule:nonzero;stroke:#b5b5b5;stroke-width:1px;"/>
        <path d="M147.371,291l0,8.015" style="fill-rule:nonzero;stroke:#b5b5b5;stroke-width:1px;"/>
        <path d="M252.228,291l0,8.015" style="fill-rule:nonzero;stroke:#b5b5b5;stroke-width:1px;"/>
        <path d="M357.085,291l0,8.015" style="fill-rule:nonzero;stroke:#b5b5b5;stroke-width:1px;"/>
        <path d="M461.943,291l0,8.015" style="fill-rule:nonzero;stroke:#b5b5b5;stroke-width:1px;"/>
        <path d="M566.8,291l0,8.015" style="fill-rule:nonzero;stroke:#b5b5b5;stroke-width:1px;"/>
        <path d="M671.657,291l0,8.015" style="fill-rule:nonzero;stroke:#b5b5b5;stroke-width:1px;"/>
        <path d="M776.514,291l0,8.015" style="fill-rule:nonzero;stroke:#b5b5b5;stroke-width:1px;"/>
        <path d="M42.514,86.43l105,-10l105,-9l105,28l104,3l105,-17l105,12l105,58l0,138.931l-734,0l0,-203.931Z" style="fill:#58d2b2;fill-opacity:0.2;fill-rule:nonzero;"/>
        <path d="M776.514,291l-734,0" style="fill-rule:nonzero;stroke:#b5b5b5;stroke-width:1px;"/>
        <path class="stats__marker" data-marker-value="584" id="584" d="M37.119,86.93c0,-2.978 2.417,-5.395 5.395,-5.395c2.978,0 5.395,2.417 5.395,5.395c0,2.978 -2.417,5.395 -5.395,5.395c-2.978,0 -5.395,-2.417 -5.395,-5.395Z" style="fill:#09a47b;fill-rule:nonzero;"/>
        <path class="stats__marker" data-marker-value="595" id="595" d="M141.976,76.14c0,-2.978 2.418,-5.395 5.395,-5.395c2.978,0 5.395,2.417 5.395,5.395c0,2.978 -2.417,5.395 -5.395,5.395c-2.977,0 -5.395,-2.417 -5.395,-5.395Z" style="fill:#09a47b;fill-rule:nonzero;"/>
        <path class="stats__marker" data-marker-value="617" id="617" d="M247.456,67.355c0,-2.978 2.417,-5.395 5.395,-5.395c2.977,0 5.395,2.417 5.395,5.395c0,2.978 -2.418,5.395 -5.395,5.395c-2.978,0 -5.395,-2.417 -5.395,-5.395Z" style="fill:#09a47b;fill-rule:nonzero;"/>
        <path class="stats__marker" data-marker-value="533" id="533" d="M351.69,94.825c0,-2.978 2.418,-5.395 5.395,-5.395c2.978,0 5.395,2.417 5.395,5.395c0,2.978 -2.417,5.395 -5.395,5.395c-2.977,0 -5.395,-2.417 -5.395,-5.395Z" style="fill:#09a47b;fill-rule:nonzero;"/>
        <path class="stats__marker" data-marker-value="529" id="529" d="M456.548,98.22c0,-2.978 2.417,-5.395 5.395,-5.395c2.977,0 5.395,2.417 5.395,5.395c0,2.978 -2.418,5.395 -5.395,5.395c-2.978,0 -5.395,-2.417 -5.395,-5.395Z" style="fill:#09a47b;fill-rule:nonzero;"/>
        <path class="stats__marker" data-marker-value="576" id="576" d="M561.19,81.535c0,-2.978 2.418,-5.395 5.395,-5.395c2.978,0 5.395,2.417 5.395,5.395c0,2.978 -2.417,5.395 -5.395,5.395c-2.977,0 -5.395,-2.417 -5.395,-5.395Z" style="fill:#09a47b;fill-rule:nonzero;"/>
        <path class="stats__marker" data-marker-value="548" id="548" d="M666.262,92.825c0,-2.978 2.417,-5.395 5.395,-5.395c2.977,0 5.395,2.417 5.395,5.395c0,2.978 -2.418,5.395 -5.395,5.395c-2.978,0 -5.395,-2.417 -5.395,-5.395Z" style="fill:#09a47b;fill-rule:nonzero;"/>
        <path class="stats__marker" data-marker-value="383" id="383" d="M771.119,150.895c0,-2.978 2.417,-5.395 5.395,-5.395c2.978,0 5.395,2.417 5.395,5.395c0,2.978 -2.417,5.395 -5.395,5.395c-2.978,0 -5.395,-2.417 -5.395,-5.395Z" style="fill:#09a47b;fill-rule:nonzero;"/>
        <path d="M42.514,86.43l105,-10l105,-9l105,28l104,3l105,-17l105,12l105,58" style="fill:none;stroke:#09a47b;stroke-width:3px;stroke-linecap:square;"/>
    </g>
</svg>
