<?xml version="1.0" encoding="UTF-8" standalone="no"?><!DOCTYPE svg PUBLIC "-//W3C//DTD SVG 1.1//EN" "http://www.w3.org/Graphics/SVG/1.1/DTD/svg11.dtd"><svg width="100%" height="100%" viewBox="0 0 128 128" version="1.1" xmlns="http://www.w3.org/2000/svg" xmlns:xlink="http://www.w3.org/1999/xlink" xml:space="preserve" xmlns:serif="http://www.serif.com/" style="fill-rule:evenodd;clip-rule:evenodd;stroke-linejoin:round;stroke-miterlimit:1.41421;"><g><path d="M39.163,43.77c0,-2.39 -1.938,-4.329 -4.329,-4.329c-5.265,0 -14.101,0 -19.366,0c-2.391,0 -4.329,1.939 -4.329,4.329c0,11.074 0,40.335 0,51.408c0,2.391 1.938,4.329 4.329,4.329c5.265,0 14.101,0 19.366,0c2.391,0 4.329,-1.938 4.329,-4.329c0,-11.073 0,-40.334 0,-51.408Z" style="fill:#33a57c;"/><path d="M78.012,64.088c0,-2.39 -1.938,-4.328 -4.329,-4.328c-5.265,0 -14.101,0 -19.366,0c-2.391,0 -4.329,1.938 -4.329,4.328c0,7.644 0,23.446 0,31.09c0,2.391 1.938,4.329 4.329,4.329c5.265,0 14.101,0 19.366,0c2.391,0 4.329,-1.938 4.329,-4.329c0,-7.644 0,-23.446 0,-31.09Z" style="fill:#33a57c;"/><path d="M116.861,12.314c0,-2.391 -1.938,-4.329 -4.329,-4.329c-5.265,0 -14.101,0 -19.366,0c-2.391,0 -4.329,1.938 -4.329,4.329c0,15.405 0,67.46 0,82.864c0,2.391 1.938,4.329 4.329,4.329c5.265,0 14.101,0 19.366,0c2.391,0 4.329,-1.938 4.329,-4.329c0,-15.404 0,-67.459 0,-82.864Z" style="fill:#33a57c;"/><path d="M125.921,113.204c0,-1.004 -0.399,-1.968 -1.11,-2.678c-0.71,-0.71 -1.673,-1.109 -2.678,-1.109c-18.354,0 -97.912,0 -116.266,0c-1.005,0 -1.968,0.399 -2.678,1.109c-0.711,0.71 -1.11,1.674 -1.11,2.678c0,1.411 0,3.013 0,4.424c0,1.005 0.399,1.968 1.11,2.678c0.71,0.711 1.673,1.11 2.678,1.11c18.354,0 97.912,0 116.266,0c1.005,0 1.968,-0.399 2.678,-1.11c0.711,-0.71 1.11,-1.673 1.11,-2.678c0,-1.411 0,-3.013 0,-4.424Z" style="fill:#33a57c;"/></g></svg>