<?xml version="1.0" encoding="UTF-8" standalone="no"?><!DOCTYPE svg PUBLIC "-//W3C//DTD SVG 1.1//EN" "http://www.w3.org/Graphics/SVG/1.1/DTD/svg11.dtd"><svg width="100%" height="100%" viewBox="0 0 400 400" version="1.1" xmlns="http://www.w3.org/2000/svg" xmlns:xlink="http://www.w3.org/1999/xlink" xml:space="preserve" xmlns:serif="http://www.serif.com/" style="fill-rule:evenodd;clip-rule:evenodd;stroke-linejoin:round;stroke-miterlimit:2;"><path d="M188.35,39.119c2.207,-4.413 6.717,-7.2 11.65,-7.2c4.933,-0 9.443,2.787 11.65,7.2c33.924,67.849 132.193,264.387 163.106,326.212c2.019,4.038 1.803,8.833 -0.57,12.672c-2.373,3.84 -6.566,6.178 -11.08,6.178c-64.907,-0 -261.305,-0 -326.212,-0c-4.514,-0 -8.707,-2.338 -11.08,-6.178c-2.373,-3.839 -2.589,-8.634 -0.57,-12.672c30.913,-61.825 129.182,-258.363 163.106,-326.212Z" style="fill:#09a47b;"/><text x="165.413px" y="353.741px" style="font-family:'Norwester-Regular', 'Norwester';font-stretch:condensed;font-size:299.458px;fill:#fff;">!</text></svg>