<?xml version="1.0" encoding="UTF-8" standalone="no"?><!DOCTYPE svg PUBLIC "-//W3C//DTD SVG 1.1//EN" "http://www.w3.org/Graphics/SVG/1.1/DTD/svg11.dtd"><svg width="100%" height="100%" viewBox="0 0 1000 645" version="1.1" xmlns="http://www.w3.org/2000/svg" xmlns:xlink="http://www.w3.org/1999/xlink" xml:space="preserve" xmlns:serif="http://www.serif.com/" style="fill-rule:evenodd;clip-rule:evenodd;stroke-linecap:round;stroke-linejoin:round;stroke-miterlimit:1.5;"><g><g><circle cx="873.308" cy="556.532" r="86.354" style="fill:#00080d;fill-opacity:0.5;stroke:#fff;stroke-opacity:0.5;stroke-width:2px;"/><circle cx="180.527" cy="551.149" r="92.188" style="fill:#00080d;fill-opacity:0.5;stroke:#fff;stroke-opacity:0.5;stroke-width:2px;"/><circle cx="327.304" cy="181.149" r="180.148" style="fill:#00080d;fill-opacity:0.5;stroke:#fff;stroke-opacity:0.5;stroke-width:2px;"/><circle cx="572.938" cy="350.113" r="240.107" style="fill:#00080d;fill-opacity:0.5;stroke:#fff;stroke-opacity:0.5;stroke-width:2px;"/><g><circle cx="261.539" cy="26.735" r="11.496" style="fill:#09a47c;"/><circle cx="278.868" cy="166.413" r="11.496" style="fill:#09a47c;"/><circle cx="329.61" cy="151.929" r="11.496" style="fill:#09a47c;"/><circle cx="301.714" cy="261.669" r="11.496" style="fill:#09a47c;"/><circle cx="396.15" cy="322.893" r="11.496" style="fill:#09a47c;"/><circle cx="392.834" cy="273.048" r="11.496" style="fill:#09a47c;"/><circle cx="441.464" cy="268.778" r="11.496" style="fill:#09a47c;"/><circle cx="511.988" cy="228.371" r="11.496" style="fill:#09a47c;"/><circle cx="544.375" cy="268.337" r="11.496" style="fill:#09a47c;"/><circle cx="627.942" cy="274.395" r="11.496" style="fill:#09a47c;"/><circle cx="716.164" cy="268.676" r="11.496" style="fill:#09a47c;"/><circle cx="474.357" cy="390.074" r="11.496" style="fill:#09a47c;"/><circle cx="617.014" cy="414.453" r="11.496" style="fill:#09a47c;"/><circle cx="665.308" cy="458.696" r="11.496" style="fill:#09a47c;"/><circle cx="767.736" cy="408.426" r="11.496" style="fill:#09a47c;"/><circle cx="578.661" cy="492.541" r="11.496" style="fill:#09a47c;"/><circle cx="574.242" cy="543.049" r="11.496" style="fill:#09a47c;"/><circle cx="846.303" cy="610.585" r="11.496" style="fill:#09a47c;"/><circle cx="567.164" cy="367.081" r="11.496" style="fill:#09a47c;"/><circle cx="877.423" cy="549.393" r="11.496" style="fill:#09a47c;"/><circle cx="159.677" cy="576.668" r="11.496" style="fill:#09a47c;"/></g><g><path d="M261.539,26.735l17.329,139.678" style="fill:none;stroke:#09a47c;stroke-width:2px;"/><path d="M330.839,153.095l-51.971,13.318" style="fill:none;stroke:#09a47c;stroke-width:2px;"/><path d="M300.206,261.52l-21.338,-95.107" style="fill:none;stroke:#09a47c;stroke-width:2px;"/><path d="M300.206,261.52l96.201,61.633" style="fill:none;stroke:#09a47c;stroke-width:2px;"/><path d="M391.585,271.807l4.822,51.346" style="fill:none;stroke:#09a47c;stroke-width:2px;"/><path d="M391.585,271.807l50.809,-2.194" style="fill:none;stroke:#09a47c;stroke-width:2px;"/><path d="M512.291,229.364l-69.897,40.249" style="fill:none;stroke:#09a47c;stroke-width:2px;"/><path d="M628.382,275.274l-84.875,-5.923" style="fill:none;stroke:#09a47c;stroke-width:2px;"/><path d="M628.382,275.274l87.809,-6.406" style="fill:none;stroke:#09a47c;stroke-width:2px;"/><path d="M628.382,275.274l-61.637,92.111" style="fill:none;stroke:#09a47c;stroke-width:2px;"/><path d="M475.926,389.744l90.819,-22.359" style="fill:none;stroke:#09a47c;stroke-width:2px;"/><path d="M616.991,413.176l-50.246,-45.791" style="fill:none;stroke:#09a47c;stroke-width:2px;"/><path d="M767.05,408.451l-101.793,50.35" style="fill:none;stroke:#09a47c;stroke-width:2px;"/><path d="M578.45,493.878l86.807,-35.077" style="fill:none;stroke:#09a47c;stroke-width:2px;"/><path d="M578.45,493.878l-3.943,48.267" style="fill:none;stroke:#09a47c;stroke-width:2px;"/><path d="M159.414,576.263l415.093,-34.118" style="fill:none;stroke:#09a47c;stroke-width:2px;"/><path d="M767.05,408.451l109.935,141.834" style="fill:none;stroke:#09a47c;stroke-width:2px;"/><path d="M845.654,611.154l31.331,-60.869" style="fill:none;stroke:#09a47c;stroke-width:2px;"/></g></g><g id="Words"><path d="M209.711,98.119l1.66,0l0.248,14.24l-1.86,0l-0.17,-9.78l-4.05,9.78l-1.42,0l-4.449,-9.72l0.189,9.72l-1.86,0l-0.248,-14.24l1.66,0l5.385,11.76l4.915,-11.76Z" style="fill:#b3b3b3;fill-rule:nonzero;"/><path d="M223.423,102.279l0.176,10.08l-2,0l-0.03,-1.72c-0.283,0.6 -0.711,1.06 -1.286,1.38c-0.574,0.32 -1.248,0.48 -2.021,0.48c-0.894,0 -1.681,-0.214 -2.361,-0.64c-0.681,-0.427 -1.215,-1.03 -1.602,-1.81c-0.387,-0.78 -0.589,-1.69 -0.608,-2.73c-0.018,-1.04 0.156,-1.96 0.522,-2.76c0.366,-0.8 0.885,-1.42 1.558,-1.86c0.672,-0.44 1.442,-0.66 2.308,-0.66c0.774,0 1.45,0.163 2.029,0.49c0.579,0.326 1.027,0.79 1.344,1.39l-0.029,-1.64l2,0Zm-4.709,8.62c0.907,0 1.604,-0.317 2.093,-0.95c0.489,-0.634 0.724,-1.524 0.704,-2.67c-0.021,-1.16 -0.286,-2.054 -0.797,-2.68c-0.511,-0.627 -1.227,-0.94 -2.147,-0.94c-0.906,0 -1.611,0.323 -2.113,0.97c-0.502,0.646 -0.743,1.543 -0.723,2.69c0.02,1.133 0.292,2.013 0.816,2.64c0.525,0.626 1.247,0.94 2.167,0.94Z" style="fill:#b3b3b3;fill-rule:nonzero;"/><path d="M230.999,102.039c0.307,0 0.628,0.046 0.963,0.14l-0.008,1.84c-0.363,-0.134 -0.757,-0.2 -1.184,-0.2c-0.92,0 -1.605,0.276 -2.055,0.83c-0.451,0.553 -0.668,1.25 -0.654,2.09l0.098,5.62l-2,0l-0.126,-7.24c-0.018,-1.054 -0.088,-2 -0.21,-2.84l1.88,0l0.212,1.82c0.255,-0.667 0.66,-1.177 1.213,-1.53c0.554,-0.354 1.178,-0.53 1.871,-0.53Z" style="fill:#b3b3b3;fill-rule:nonzero;"/><path d="M242.679,112.359l-2.58,0l-4.903,-4.76l0.083,4.76l-2,0l-0.257,-14.72l2,0l0.161,9.2l4.401,-4.54l2.5,0l-4.736,4.84l5.331,5.22Z" style="fill:#b3b3b3;fill-rule:nonzero;"/><path d="M251.852,107.359l-7.2,0c0.108,2.36 1.202,3.54 3.282,3.54c1.16,0 2.213,-0.38 3.16,-1.14l0.645,1.44c-0.446,0.4 -1.017,0.716 -1.713,0.95c-0.696,0.233 -1.398,0.35 -2.104,0.35c-1.614,0 -2.888,-0.464 -3.824,-1.39c-0.937,-0.927 -1.419,-2.197 -1.447,-3.81c-0.018,-1.027 0.169,-1.94 0.562,-2.74c0.393,-0.8 0.952,-1.42 1.678,-1.86c0.725,-0.44 1.555,-0.66 2.488,-0.66c1.36,0 2.438,0.44 3.233,1.32c0.796,0.88 1.207,2.1 1.234,3.66l0.006,0.34Zm-4.407,-3.82c-0.76,0 -1.376,0.226 -1.848,0.68c-0.472,0.453 -0.767,1.1 -0.886,1.94l5.34,0c-0.095,-0.854 -0.366,-1.504 -0.814,-1.95c-0.448,-0.447 -1.045,-0.67 -1.792,-0.67Z" style="fill:#b3b3b3;fill-rule:nonzero;"/><path d="M256.231,103.839l0.088,5.06c0.012,0.693 0.171,1.183 0.476,1.47c0.305,0.286 0.724,0.43 1.257,0.43c0.347,0 0.699,-0.054 1.057,-0.16l0.029,1.64c-0.438,0.146 -0.936,0.22 -1.496,0.22c-1.04,0 -1.852,-0.294 -2.436,-0.88c-0.583,-0.587 -0.885,-1.44 -0.904,-2.56l-0.091,-5.22l-1.96,0l-0.028,-1.56l1.96,0l-0.044,-2.52l2.008,-0.7l0.056,3.22l2.78,0l0.028,1.56l-2.78,0Z" style="fill:#b3b3b3;fill-rule:nonzero;"/><path d="M260.619,112.359l-0.176,-10.08l2,0l0.176,10.08l-2,0Zm-0.432,-14.48l2.34,0l0.037,2.12l-2.34,0l-0.037,-2.12Z" style="fill:#b3b3b3;fill-rule:nonzero;"/><path d="M270.359,102.039c2.414,0 3.644,1.346 3.691,4.04l0.109,6.28l-2.02,0l-0.107,-6.16c-0.016,-0.88 -0.197,-1.52 -0.544,-1.92c-0.347,-0.4 -0.894,-0.6 -1.64,-0.6c-0.854,0 -1.532,0.266 -2.036,0.8c-0.504,0.533 -0.748,1.246 -0.733,2.14l0.1,5.74l-2,0l-0.126,-7.24c-0.018,-1.054 -0.088,-2 -0.21,-2.84l1.88,0l0.211,1.74c0.309,-0.64 0.763,-1.13 1.364,-1.47c0.601,-0.34 1.288,-0.51 2.061,-0.51Z" style="fill:#b3b3b3;fill-rule:nonzero;"/><path d="M285.763,102.279l0.173,9.9c0.027,1.533 -0.356,2.69 -1.149,3.47c-0.793,0.78 -1.983,1.17 -3.57,1.17c-1.533,0 -2.879,-0.334 -4.037,-1l0.312,-1.58c0.633,0.333 1.24,0.58 1.823,0.74c0.583,0.16 1.201,0.24 1.854,0.24c1.88,0 2.803,-0.96 2.77,-2.88l-0.038,-2.18c-0.297,0.586 -0.735,1.05 -1.316,1.39c-0.581,0.34 -1.258,0.51 -2.031,0.51c-0.88,0 -1.667,-0.207 -2.361,-0.62c-0.694,-0.414 -1.237,-1 -1.63,-1.76c-0.394,-0.76 -0.599,-1.634 -0.616,-2.62c-0.017,-0.987 0.157,-1.86 0.524,-2.62c0.367,-0.76 0.89,-1.35 1.569,-1.77c0.68,-0.42 1.459,-0.63 2.339,-0.63c0.774,0 1.456,0.163 2.049,0.49c0.592,0.326 1.047,0.79 1.364,1.39l-0.029,-1.64l2,0Zm-4.777,8.16c0.906,0 1.615,-0.3 2.124,-0.9c0.51,-0.6 0.755,-1.427 0.737,-2.48c-0.019,-1.054 -0.29,-1.884 -0.814,-2.49c-0.524,-0.607 -1.246,-0.91 -2.166,-0.91c-0.906,0 -1.618,0.303 -2.134,0.91c-0.516,0.606 -0.765,1.436 -0.746,2.49c0.018,1.04 0.296,1.863 0.833,2.47c0.537,0.606 1.259,0.91 2.166,0.91Z" style="fill:#b3b3b3;fill-rule:nonzero;"/><path d="M195.822,199.42c-1.893,0 -3.338,-0.493 -4.336,-1.48c-0.997,-0.986 -1.512,-2.433 -1.545,-4.34l-0.15,-8.58l2.02,0l0.152,8.72c0.023,1.32 0.357,2.317 1.002,2.99c0.645,0.674 1.588,1.01 2.828,1.01c1.226,0 2.151,-0.34 2.772,-1.02c0.621,-0.68 0.921,-1.673 0.898,-2.98l-0.152,-8.72l2.04,0l0.15,8.58c0.033,1.907 -0.432,3.354 -1.395,4.34c-0.962,0.987 -2.391,1.48 -4.284,1.48Z" style="fill:#b3b3b3;fill-rule:nonzero;"/><path d="M209.419,188.94c2.414,0 3.644,1.347 3.691,4.04l0.109,6.28l-2.02,0l-0.107,-6.16c-0.016,-0.88 -0.197,-1.52 -0.544,-1.92c-0.347,-0.4 -0.894,-0.6 -1.64,-0.6c-0.854,0 -1.532,0.267 -2.036,0.8c-0.504,0.534 -0.748,1.247 -0.733,2.14l0.1,5.74l-2,0l-0.126,-7.24c-0.018,-1.053 -0.088,-2 -0.21,-2.84l1.88,0l0.211,1.74c0.309,-0.64 0.763,-1.13 1.364,-1.47c0.601,-0.34 1.288,-0.51 2.061,-0.51Z" style="fill:#b3b3b3;fill-rule:nonzero;"/><path d="M224.662,184.54l0.257,14.72l-2,0l-0.03,-1.72c-0.283,0.6 -0.711,1.06 -1.286,1.38c-0.574,0.32 -1.248,0.48 -2.021,0.48c-0.867,0 -1.644,-0.22 -2.332,-0.66c-0.687,-0.44 -1.228,-1.056 -1.622,-1.85c-0.394,-0.793 -0.6,-1.71 -0.618,-2.75c-0.018,-1.04 0.153,-1.953 0.512,-2.74c0.36,-0.786 0.872,-1.393 1.538,-1.82c0.666,-0.426 1.446,-0.64 2.339,-0.64c0.76,0 1.433,0.16 2.019,0.48c0.585,0.32 1.03,0.774 1.333,1.36l-0.109,-6.24l2.02,0Zm-4.648,13.26c0.92,0 1.624,-0.316 2.113,-0.95c0.489,-0.633 0.724,-1.523 0.704,-2.67c-0.02,-1.146 -0.286,-2.036 -0.797,-2.67c-0.511,-0.633 -1.22,-0.95 -2.127,-0.95c-0.92,0 -1.631,0.314 -2.133,0.94c-0.503,0.627 -0.744,1.507 -0.724,2.64c0.02,1.147 0.292,2.044 0.817,2.69c0.525,0.647 1.24,0.97 2.147,0.97Z" style="fill:#b3b3b3;fill-rule:nonzero;"/><path d="M235.992,194.26l-7.2,0c0.108,2.36 1.202,3.54 3.282,3.54c1.16,0 2.213,-0.38 3.16,-1.14l0.645,1.44c-0.446,0.4 -1.017,0.717 -1.713,0.95c-0.696,0.234 -1.398,0.35 -2.104,0.35c-1.614,0 -2.888,-0.463 -3.824,-1.39c-0.937,-0.926 -1.419,-2.196 -1.447,-3.81c-0.018,-1.026 0.169,-1.94 0.562,-2.74c0.393,-0.8 0.952,-1.42 1.678,-1.86c0.725,-0.44 1.555,-0.66 2.488,-0.66c1.36,0 2.438,0.44 3.233,1.32c0.796,0.88 1.207,2.1 1.234,3.66l0.006,0.34Zm-4.407,-3.82c-0.76,0 -1.376,0.227 -1.848,0.68c-0.472,0.454 -0.767,1.1 -0.886,1.94l5.34,0c-0.095,-0.853 -0.366,-1.503 -0.814,-1.95c-0.448,-0.446 -1.045,-0.67 -1.792,-0.67Z" style="fill:#b3b3b3;fill-rule:nonzero;"/><path d="M242.839,188.94c0.307,0 0.628,0.047 0.963,0.14l-0.008,1.84c-0.363,-0.133 -0.757,-0.2 -1.184,-0.2c-0.92,0 -1.605,0.277 -2.055,0.83c-0.451,0.554 -0.668,1.25 -0.654,2.09l0.098,5.62l-2,0l-0.126,-7.24c-0.018,-1.053 -0.088,-2 -0.21,-2.84l1.88,0l0.212,1.82c0.255,-0.666 0.66,-1.176 1.213,-1.53c0.554,-0.353 1.178,-0.53 1.871,-0.53Z" style="fill:#b3b3b3;fill-rule:nonzero;"/><path d="M248.542,199.4c-1.76,0 -3.154,-0.426 -4.183,-1.28l0.575,-1.46c1.067,0.8 2.281,1.2 3.641,1.2c0.693,0 1.218,-0.116 1.574,-0.35c0.356,-0.233 0.53,-0.563 0.522,-0.99c-0.006,-0.36 -0.134,-0.643 -0.384,-0.85c-0.251,-0.206 -0.67,-0.383 -1.26,-0.53l-1.687,-0.4c-0.883,-0.186 -1.559,-0.516 -2.027,-0.99c-0.468,-0.473 -0.708,-1.063 -0.721,-1.77c-0.016,-0.906 0.335,-1.64 1.052,-2.2c0.717,-0.56 1.675,-0.84 2.875,-0.84c0.72,0 1.405,0.114 2.056,0.34c0.651,0.227 1.206,0.547 1.667,0.96l-0.595,1.42c-0.987,-0.773 -2.021,-1.16 -3.101,-1.16c-0.653,0 -1.157,0.124 -1.513,0.37c-0.356,0.247 -0.53,0.59 -0.522,1.03c0.006,0.347 0.124,0.627 0.355,0.84c0.23,0.214 0.593,0.38 1.088,0.5l1.728,0.42c0.963,0.214 1.679,0.55 2.147,1.01c0.468,0.46 0.709,1.057 0.721,1.79c0.016,0.907 -0.335,1.624 -1.052,2.15c-0.717,0.527 -1.703,0.79 -2.956,0.79Z" style="fill:#b3b3b3;fill-rule:nonzero;"/><path d="M256.951,190.74l0.088,5.06c0.012,0.694 0.171,1.184 0.476,1.47c0.305,0.287 0.724,0.43 1.257,0.43c0.347,0 0.699,-0.053 1.057,-0.16l0.029,1.64c-0.438,0.147 -0.936,0.22 -1.496,0.22c-1.04,0 -1.852,-0.293 -2.436,-0.88c-0.583,-0.586 -0.885,-1.44 -0.904,-2.56l-0.091,-5.22l-1.96,0l-0.028,-1.56l1.96,0l-0.044,-2.52l2.008,-0.7l0.056,3.22l2.78,0l0.028,1.56l-2.78,0Z" style="fill:#b3b3b3;fill-rule:nonzero;"/><path d="M270.383,189.18l0.176,10.08l-2,0l-0.03,-1.72c-0.283,0.6 -0.711,1.06 -1.286,1.38c-0.574,0.32 -1.248,0.48 -2.021,0.48c-0.894,0 -1.681,-0.213 -2.361,-0.64c-0.681,-0.426 -1.215,-1.03 -1.602,-1.81c-0.387,-0.78 -0.589,-1.69 -0.608,-2.73c-0.018,-1.04 0.156,-1.96 0.522,-2.76c0.366,-0.8 0.885,-1.42 1.558,-1.86c0.672,-0.44 1.442,-0.66 2.308,-0.66c0.774,0 1.45,0.164 2.029,0.49c0.579,0.327 1.027,0.79 1.344,1.39l-0.029,-1.64l2,0Zm-4.709,8.62c0.907,0 1.604,-0.316 2.093,-0.95c0.489,-0.633 0.724,-1.523 0.704,-2.67c-0.021,-1.16 -0.286,-2.053 -0.797,-2.68c-0.511,-0.626 -1.227,-0.94 -2.147,-0.94c-0.906,0 -1.611,0.324 -2.113,0.97c-0.502,0.647 -0.743,1.544 -0.723,2.69c0.02,1.134 0.292,2.014 0.816,2.64c0.525,0.627 1.247,0.94 2.167,0.94Z" style="fill:#b3b3b3;fill-rule:nonzero;"/><path d="M278.299,188.94c2.414,0 3.644,1.347 3.691,4.04l0.109,6.28l-2.02,0l-0.107,-6.16c-0.016,-0.88 -0.197,-1.52 -0.544,-1.92c-0.347,-0.4 -0.894,-0.6 -1.64,-0.6c-0.854,0 -1.532,0.267 -2.036,0.8c-0.504,0.534 -0.748,1.247 -0.733,2.14l0.1,5.74l-2,0l-0.126,-7.24c-0.018,-1.053 -0.088,-2 -0.21,-2.84l1.88,0l0.211,1.74c0.309,-0.64 0.763,-1.13 1.364,-1.47c0.601,-0.34 1.288,-0.51 2.061,-0.51Z" style="fill:#b3b3b3;fill-rule:nonzero;"/><path d="M293.542,184.54l0.257,14.72l-2,0l-0.03,-1.72c-0.283,0.6 -0.711,1.06 -1.286,1.38c-0.574,0.32 -1.248,0.48 -2.021,0.48c-0.867,0 -1.644,-0.22 -2.332,-0.66c-0.687,-0.44 -1.228,-1.056 -1.622,-1.85c-0.394,-0.793 -0.6,-1.71 -0.618,-2.75c-0.018,-1.04 0.153,-1.953 0.512,-2.74c0.36,-0.786 0.872,-1.393 1.538,-1.82c0.666,-0.426 1.446,-0.64 2.339,-0.64c0.76,0 1.433,0.16 2.019,0.48c0.585,0.32 1.03,0.774 1.333,1.36l-0.109,-6.24l2.02,0Zm-4.648,13.26c0.92,0 1.624,-0.316 2.113,-0.95c0.489,-0.633 0.724,-1.523 0.704,-2.67c-0.02,-1.146 -0.286,-2.036 -0.797,-2.67c-0.511,-0.633 -1.22,-0.95 -2.127,-0.95c-0.92,0 -1.631,0.314 -2.133,0.94c-0.503,0.627 -0.744,1.507 -0.724,2.64c0.02,1.147 0.292,2.044 0.817,2.69c0.525,0.647 1.24,0.97 2.147,0.97Z" style="fill:#b3b3b3;fill-rule:nonzero;"/><path d="M406.591,206.72l-2.6,0l-7.137,-6.72l0.117,6.72l-2.06,0l-0.249,-14.24l2.06,0l0.114,6.48l6.606,-6.48l2.54,0l-7.059,6.88l7.668,7.36Z" style="fill:#b3b3b3;fill-rule:nonzero;"/><path d="M412.471,196.4c2.413,0 3.643,1.347 3.69,4.04l0.11,6.28l-2.02,0l-0.107,-6.16c-0.016,-0.88 -0.197,-1.52 -0.544,-1.92c-0.347,-0.4 -0.894,-0.6 -1.64,-0.6c-0.854,0 -1.532,0.267 -2.036,0.8c-0.505,0.534 -0.749,1.247 -0.733,2.14l0.1,5.74l-2,0l-0.126,-7.24c-0.019,-1.053 -0.089,-2 -0.21,-2.84l1.88,0l0.21,1.74c0.309,-0.64 0.764,-1.13 1.365,-1.47c0.601,-0.34 1.288,-0.51 2.061,-0.51Z" style="fill:#b3b3b3;fill-rule:nonzero;"/><path d="M423.093,206.86c-0.986,0 -1.857,-0.213 -2.611,-0.64c-0.754,-0.426 -1.341,-1.033 -1.761,-1.82c-0.421,-0.786 -0.64,-1.706 -0.659,-2.76c-0.018,-1.053 0.169,-1.976 0.562,-2.77c0.393,-0.793 0.959,-1.403 1.698,-1.83c0.739,-0.426 1.602,-0.64 2.589,-0.64c0.973,0 1.837,0.214 2.591,0.64c0.754,0.427 1.342,1.037 1.762,1.83c0.421,0.794 0.64,1.717 0.658,2.77c0.019,1.054 -0.169,1.974 -0.561,2.76c-0.393,0.787 -0.959,1.394 -1.699,1.82c-0.739,0.427 -1.595,0.64 -2.569,0.64Zm-0.047,-1.6c0.933,0 1.641,-0.306 2.124,-0.92c0.482,-0.613 0.713,-1.513 0.692,-2.7c-0.02,-1.16 -0.285,-2.053 -0.796,-2.68c-0.511,-0.626 -1.22,-0.94 -2.127,-0.94c-0.92,0 -1.628,0.314 -2.123,0.94c-0.496,0.627 -0.734,1.52 -0.714,2.68c0.021,1.187 0.287,2.087 0.798,2.7c0.51,0.614 1.226,0.92 2.146,0.92Z" style="fill:#b3b3b3;fill-rule:nonzero;"/><path d="M443.315,196.64l1.98,0l-3.664,10.08l-1.84,0l-2.827,-7.3l-2.553,7.3l-1.84,0l-4.016,-10.08l2.1,0l2.875,7.7l2.645,-7.7l1.6,0l2.915,7.7l2.625,-7.7Z" style="fill:#b3b3b3;fill-rule:nonzero;"/><path d="M446.951,206.72l-0.257,-14.72l2,0l0.257,14.72l-2,0Z" style="fill:#b3b3b3;fill-rule:nonzero;"/><path d="M460.024,201.72l-7.2,0c0.108,2.36 1.202,3.54 3.282,3.54c1.16,0 2.213,-0.38 3.16,-1.14l0.645,1.44c-0.447,0.4 -1.018,0.717 -1.714,0.95c-0.696,0.234 -1.397,0.35 -2.104,0.35c-1.613,0 -2.888,-0.463 -3.824,-1.39c-0.936,-0.926 -1.418,-2.196 -1.446,-3.81c-0.018,-1.026 0.169,-1.94 0.562,-2.74c0.393,-0.8 0.952,-1.42 1.677,-1.86c0.726,-0.44 1.556,-0.66 2.489,-0.66c1.36,0 2.438,0.44 3.233,1.32c0.795,0.88 1.207,2.1 1.234,3.66l0.006,0.34Zm-4.407,-3.82c-0.76,0 -1.376,0.227 -1.848,0.68c-0.472,0.454 -0.768,1.1 -0.886,1.94l5.34,0c-0.095,-0.853 -0.366,-1.503 -0.814,-1.95c-0.448,-0.446 -1.045,-0.67 -1.792,-0.67Z" style="fill:#b3b3b3;fill-rule:nonzero;"/><path d="M470.994,192l0.257,14.72l-2,0l-0.03,-1.72c-0.283,0.6 -0.711,1.06 -1.286,1.38c-0.574,0.32 -1.248,0.48 -2.022,0.48c-0.866,0 -1.643,-0.22 -2.331,-0.66c-0.688,-0.44 -1.228,-1.056 -1.622,-1.85c-0.394,-0.793 -0.6,-1.71 -0.618,-2.75c-0.018,-1.04 0.152,-1.953 0.512,-2.74c0.359,-0.786 0.872,-1.393 1.538,-1.82c0.666,-0.426 1.446,-0.64 2.339,-0.64c0.76,0 1.433,0.16 2.018,0.48c0.586,0.32 1.03,0.774 1.334,1.36l-0.109,-6.24l2.02,0Zm-4.648,13.26c0.92,0 1.624,-0.316 2.113,-0.95c0.489,-0.633 0.723,-1.523 0.703,-2.67c-0.02,-1.146 -0.285,-2.036 -0.796,-2.67c-0.511,-0.633 -1.22,-0.95 -2.127,-0.95c-0.92,0 -1.631,0.314 -2.133,0.94c-0.503,0.627 -0.744,1.507 -0.724,2.64c0.02,1.147 0.292,2.044 0.817,2.69c0.524,0.647 1.24,0.97 2.147,0.97Z" style="fill:#b3b3b3;fill-rule:nonzero;"/><path d="M482.935,196.64l0.173,9.9c0.027,1.534 -0.356,2.69 -1.15,3.47c-0.793,0.78 -1.982,1.17 -3.569,1.17c-1.533,0 -2.879,-0.333 -4.038,-1l0.313,-1.58c0.632,0.334 1.24,0.58 1.823,0.74c0.583,0.16 1.201,0.24 1.854,0.24c1.88,0 2.803,-0.96 2.77,-2.88l-0.038,-2.18c-0.297,0.587 -0.735,1.05 -1.316,1.39c-0.581,0.34 -1.258,0.51 -2.031,0.51c-0.88,0 -1.667,-0.206 -2.361,-0.62c-0.694,-0.413 -1.237,-1 -1.631,-1.76c-0.393,-0.76 -0.598,-1.633 -0.615,-2.62c-0.018,-0.986 0.157,-1.86 0.524,-2.62c0.367,-0.76 0.89,-1.35 1.569,-1.77c0.679,-0.42 1.459,-0.63 2.339,-0.63c0.773,0 1.456,0.164 2.048,0.49c0.593,0.327 1.048,0.79 1.365,1.39l-0.029,-1.64l2,0Zm-4.777,8.16c0.906,0 1.614,-0.3 2.124,-0.9c0.509,-0.6 0.755,-1.426 0.737,-2.48c-0.019,-1.053 -0.29,-1.883 -0.814,-2.49c-0.524,-0.606 -1.246,-0.91 -2.166,-0.91c-0.906,0 -1.618,0.304 -2.134,0.91c-0.516,0.607 -0.765,1.437 -0.746,2.49c0.018,1.04 0.295,1.864 0.833,2.47c0.537,0.607 1.259,0.91 2.166,0.91Z" style="fill:#b3b3b3;fill-rule:nonzero;"/><path d="M494.184,201.72l-7.2,0c0.108,2.36 1.202,3.54 3.282,3.54c1.16,0 2.213,-0.38 3.16,-1.14l0.645,1.44c-0.447,0.4 -1.018,0.717 -1.714,0.95c-0.696,0.234 -1.397,0.35 -2.104,0.35c-1.613,0 -2.888,-0.463 -3.824,-1.39c-0.936,-0.926 -1.418,-2.196 -1.446,-3.81c-0.018,-1.026 0.169,-1.94 0.562,-2.74c0.393,-0.8 0.952,-1.42 1.677,-1.86c0.726,-0.44 1.556,-0.66 2.489,-0.66c1.36,0 2.438,0.44 3.233,1.32c0.795,0.88 1.207,2.1 1.234,3.66l0.006,0.34Zm-4.407,-3.82c-0.76,0 -1.376,0.227 -1.848,0.68c-0.472,0.454 -0.768,1.1 -0.886,1.94l5.34,0c-0.095,-0.853 -0.366,-1.503 -0.814,-1.95c-0.448,-0.446 -1.045,-0.67 -1.792,-0.67Z" style="fill:#b3b3b3;fill-rule:nonzero;"/><path d="M415.8,242.483l-0.249,-14.24l9.24,0l0.029,1.68l-7.2,0l0.079,4.48l6.8,0l0.029,1.68l-6.8,0l0.082,4.72l7.2,0l0.03,1.68l-9.24,0Z" style="fill:#b3b3b3;fill-rule:nonzero;"/><path d="M436.084,232.403l0.176,10.08l-2,0l-0.03,-1.72c-0.283,0.6 -0.712,1.06 -1.286,1.38c-0.575,0.32 -1.249,0.48 -2.022,0.48c-0.893,0 -1.68,-0.214 -2.361,-0.64c-0.681,-0.427 -1.215,-1.03 -1.602,-1.81c-0.387,-0.78 -0.589,-1.69 -0.607,-2.73c-0.019,-1.04 0.155,-1.96 0.521,-2.76c0.366,-0.8 0.886,-1.42 1.558,-1.86c0.672,-0.44 1.442,-0.66 2.308,-0.66c0.774,0 1.45,0.163 2.029,0.49c0.579,0.326 1.027,0.79 1.344,1.39l-0.028,-1.64l2,0Zm-4.71,8.62c0.907,0 1.605,-0.317 2.093,-0.95c0.489,-0.634 0.724,-1.524 0.704,-2.67c-0.02,-1.16 -0.286,-2.054 -0.797,-2.68c-0.511,-0.627 -1.226,-0.94 -2.146,-0.94c-0.907,0 -1.611,0.323 -2.113,0.97c-0.502,0.646 -0.743,1.543 -0.723,2.69c0.019,1.133 0.291,2.013 0.816,2.64c0.524,0.626 1.246,0.94 2.166,0.94Z" style="fill:#b3b3b3;fill-rule:nonzero;"/><path d="M442.342,242.623c-1.76,0 -3.154,-0.427 -4.182,-1.28l0.574,-1.46c1.067,0.8 2.281,1.2 3.641,1.2c0.693,0 1.218,-0.117 1.574,-0.35c0.356,-0.234 0.53,-0.564 0.523,-0.99c-0.007,-0.36 -0.135,-0.644 -0.385,-0.85c-0.25,-0.207 -0.67,-0.384 -1.259,-0.53l-1.687,-0.4c-0.884,-0.187 -1.559,-0.517 -2.028,-0.99c-0.468,-0.474 -0.708,-1.064 -0.721,-1.77c-0.015,-0.907 0.335,-1.64 1.052,-2.2c0.717,-0.56 1.675,-0.84 2.875,-0.84c0.72,0 1.406,0.113 2.056,0.34c0.651,0.226 1.207,0.546 1.667,0.96l-0.595,1.42c-0.987,-0.774 -2.02,-1.16 -3.1,-1.16c-0.654,0 -1.158,0.123 -1.514,0.37c-0.356,0.246 -0.53,0.59 -0.522,1.03c0.006,0.346 0.124,0.626 0.355,0.84c0.23,0.213 0.593,0.38 1.088,0.5l1.728,0.42c0.964,0.213 1.679,0.55 2.147,1.01c0.468,0.46 0.709,1.056 0.722,1.79c0.015,0.906 -0.335,1.623 -1.053,2.15c-0.717,0.526 -1.703,0.79 -2.956,0.79Z" style="fill:#b3b3b3;fill-rule:nonzero;"/><path d="M457.204,232.403l-4.51,10.9c-0.499,1.186 -1.134,2.056 -1.905,2.61c-0.77,0.553 -1.727,0.923 -2.87,1.11l-0.467,-1.56c0.943,-0.214 1.654,-0.49 2.135,-0.83c0.481,-0.34 0.862,-0.85 1.143,-1.53l0.346,-0.84l-4.412,-9.86l2.14,0l3.296,7.8l3.084,-7.8l2.02,0Z" style="fill:#b3b3b3;fill-rule:nonzero;"/><path d="M294.048,317.629l-0.249,-14.24l2.06,0l0.249,14.24l-2.06,0Z" style="fill:#b3b3b3;fill-rule:nonzero;"/><path d="M304.028,307.309c2.413,0 3.643,1.347 3.69,4.04l0.11,6.28l-2.02,0l-0.108,-6.16c-0.015,-0.88 -0.196,-1.52 -0.543,-1.92c-0.347,-0.4 -0.894,-0.6 -1.641,-0.6c-0.853,0 -1.532,0.267 -2.036,0.8c-0.504,0.533 -0.748,1.247 -0.732,2.14l0.1,5.74l-2,0l-0.126,-7.24c-0.019,-1.053 -0.089,-2 -0.21,-2.84l1.88,0l0.21,1.74c0.309,-0.64 0.764,-1.13 1.365,-1.47c0.6,-0.34 1.287,-0.51 2.061,-0.51Z" style="fill:#b3b3b3;fill-rule:nonzero;"/><path d="M319.271,302.909l0.257,14.72l-2,0l-0.03,-1.72c-0.283,0.6 -0.712,1.06 -1.286,1.38c-0.574,0.32 -1.248,0.48 -2.022,0.48c-0.866,0 -1.644,-0.22 -2.331,-0.66c-0.688,-0.44 -1.229,-1.057 -1.622,-1.85c-0.394,-0.793 -0.6,-1.71 -0.618,-2.75c-0.019,-1.04 0.152,-1.953 0.512,-2.74c0.359,-0.787 0.872,-1.393 1.538,-1.82c0.666,-0.427 1.445,-0.64 2.339,-0.64c0.76,0 1.433,0.16 2.018,0.48c0.586,0.32 1.03,0.773 1.334,1.36l-0.109,-6.24l2.02,0Zm-4.649,13.26c0.92,0 1.625,-0.317 2.114,-0.95c0.489,-0.633 0.723,-1.523 0.703,-2.67c-0.02,-1.147 -0.285,-2.037 -0.796,-2.67c-0.511,-0.633 -1.22,-0.95 -2.127,-0.95c-0.92,0 -1.631,0.313 -2.134,0.94c-0.502,0.627 -0.743,1.507 -0.723,2.64c0.02,1.147 0.292,2.043 0.816,2.69c0.525,0.647 1.241,0.97 2.147,0.97Z" style="fill:#b3b3b3;fill-rule:nonzero;"/><path d="M330.672,307.549l0.176,10.08l-1.96,0l-0.029,-1.68c-0.31,0.587 -0.742,1.037 -1.297,1.35c-0.554,0.313 -1.185,0.47 -1.892,0.47c-2.426,0 -3.663,-1.347 -3.71,-4.04l-0.108,-6.18l2,0l0.107,6.16c0.015,0.827 0.196,1.437 0.542,1.83c0.347,0.393 0.867,0.59 1.561,0.59c0.826,0 1.485,-0.267 1.976,-0.8c0.49,-0.533 0.728,-1.24 0.713,-2.12l-0.099,-5.66l2.02,0Z" style="fill:#b3b3b3;fill-rule:nonzero;"/><path d="M336.93,317.769c-1.76,0 -3.154,-0.427 -4.182,-1.28l0.574,-1.46c1.068,0.8 2.281,1.2 3.641,1.2c0.694,0 1.218,-0.117 1.574,-0.35c0.356,-0.233 0.531,-0.563 0.523,-0.99c-0.006,-0.36 -0.135,-0.643 -0.385,-0.85c-0.25,-0.207 -0.67,-0.383 -1.259,-0.53l-1.687,-0.4c-0.883,-0.187 -1.559,-0.517 -2.027,-0.99c-0.469,-0.473 -0.709,-1.063 -0.721,-1.77c-0.016,-0.907 0.335,-1.64 1.051,-2.2c0.717,-0.56 1.676,-0.84 2.876,-0.84c0.72,0 1.405,0.113 2.056,0.34c0.65,0.227 1.206,0.547 1.666,0.96l-0.595,1.42c-0.987,-0.773 -2.02,-1.16 -3.1,-1.16c-0.653,0 -1.158,0.123 -1.514,0.37c-0.355,0.247 -0.529,0.59 -0.522,1.03c0.006,0.347 0.125,0.627 0.355,0.84c0.23,0.213 0.593,0.38 1.089,0.5l1.727,0.42c0.964,0.213 1.68,0.55 2.148,1.01c0.468,0.46 0.708,1.057 0.721,1.79c0.016,0.907 -0.335,1.623 -1.052,2.15c-0.718,0.527 -1.703,0.79 -2.957,0.79Z" style="fill:#b3b3b3;fill-rule:nonzero;"/><path d="M345.339,309.109l0.088,5.06c0.013,0.693 0.171,1.183 0.476,1.47c0.305,0.287 0.724,0.43 1.258,0.43c0.346,0 0.699,-0.053 1.057,-0.16l0.028,1.64c-0.437,0.147 -0.936,0.22 -1.496,0.22c-1.04,0 -1.851,-0.293 -2.435,-0.88c-0.584,-0.587 -0.885,-1.44 -0.905,-2.56l-0.091,-5.22l-1.96,0l-0.027,-1.56l1.96,0l-0.044,-2.52l2.008,-0.7l0.056,3.22l2.78,0l0.027,1.56l-2.78,0Z" style="fill:#b3b3b3;fill-rule:nonzero;"/><path d="M354.568,307.309c0.306,0 0.627,0.047 0.962,0.14l-0.008,1.84c-0.362,-0.133 -0.757,-0.2 -1.183,-0.2c-0.92,0 -1.605,0.277 -2.056,0.83c-0.45,0.553 -0.668,1.25 -0.653,2.09l0.098,5.62l-2,0l-0.126,-7.24c-0.019,-1.053 -0.089,-2 -0.21,-2.84l1.88,0l0.212,1.82c0.255,-0.667 0.659,-1.177 1.213,-1.53c0.554,-0.353 1.177,-0.53 1.871,-0.53Z" style="fill:#b3b3b3;fill-rule:nonzero;"/><path d="M366.432,307.549l-4.51,10.9c-0.499,1.187 -1.134,2.057 -1.904,2.61c-0.771,0.553 -1.727,0.923 -2.871,1.11l-0.467,-1.56c0.943,-0.213 1.655,-0.49 2.135,-0.83c0.481,-0.34 0.862,-0.85 1.144,-1.53l0.345,-0.84l-4.412,-9.86l2.14,0l3.296,7.8l3.084,-7.8l2.02,0Z" style="fill:#b3b3b3;fill-rule:nonzero;"/><path d="M517.947,443.344l-0.249,-14.24l9.24,0l0.03,1.68l-7.2,0l0.078,4.48l6.8,0l0.029,1.68l-6.8,0l0.083,4.72l7.2,0l0.029,1.68l-9.24,0Z" style="fill:#b3b3b3;fill-rule:nonzero;"/><path d="M534.367,433.024c2.413,0 3.643,1.347 3.69,4.04l0.11,6.28l-2.02,0l-0.107,-6.16c-0.016,-0.88 -0.197,-1.52 -0.544,-1.92c-0.347,-0.4 -0.894,-0.6 -1.64,-0.6c-0.854,0 -1.532,0.267 -2.036,0.8c-0.505,0.534 -0.749,1.247 -0.733,2.14l0.1,5.74l-2,0l-0.126,-7.24c-0.019,-1.053 -0.089,-2 -0.21,-2.84l1.88,0l0.21,1.74c0.309,-0.64 0.764,-1.13 1.365,-1.47c0.601,-0.34 1.288,-0.51 2.061,-0.51Z" style="fill:#b3b3b3;fill-rule:nonzero;"/><path d="M549.771,433.264l0.173,9.9c0.027,1.534 -0.356,2.69 -1.15,3.47c-0.793,0.78 -1.982,1.17 -3.569,1.17c-1.533,0 -2.879,-0.333 -4.038,-1l0.313,-1.58c0.632,0.334 1.24,0.58 1.823,0.74c0.583,0.16 1.201,0.24 1.854,0.24c1.88,0 2.803,-0.96 2.77,-2.88l-0.038,-2.18c-0.297,0.587 -0.735,1.05 -1.316,1.39c-0.581,0.34 -1.258,0.51 -2.031,0.51c-0.88,0 -1.667,-0.206 -2.361,-0.62c-0.694,-0.413 -1.237,-1 -1.631,-1.76c-0.393,-0.76 -0.598,-1.633 -0.615,-2.62c-0.018,-0.986 0.157,-1.86 0.524,-2.62c0.367,-0.76 0.89,-1.35 1.569,-1.77c0.679,-0.42 1.459,-0.63 2.339,-0.63c0.773,0 1.456,0.164 2.048,0.49c0.593,0.327 1.048,0.79 1.365,1.39l-0.029,-1.64l2,0Zm-4.777,8.16c0.906,0 1.614,-0.3 2.124,-0.9c0.509,-0.6 0.755,-1.426 0.737,-2.48c-0.019,-1.053 -0.29,-1.883 -0.814,-2.49c-0.524,-0.606 -1.246,-0.91 -2.166,-0.91c-0.906,0 -1.618,0.304 -2.134,0.91c-0.516,0.607 -0.765,1.437 -0.746,2.49c0.018,1.04 0.295,1.864 0.833,2.47c0.537,0.607 1.259,0.91 2.166,0.91Z" style="fill:#b3b3b3;fill-rule:nonzero;"/><path d="M561.551,433.264l0.176,10.08l-2,0l-0.03,-1.72c-0.283,0.6 -0.711,1.06 -1.286,1.38c-0.574,0.32 -1.248,0.48 -2.022,0.48c-0.893,0 -1.68,-0.213 -2.361,-0.64c-0.68,-0.426 -1.214,-1.03 -1.601,-1.81c-0.387,-0.78 -0.59,-1.69 -0.608,-2.73c-0.018,-1.04 0.156,-1.96 0.522,-2.76c0.366,-0.8 0.885,-1.42 1.557,-1.86c0.673,-0.44 1.442,-0.66 2.309,-0.66c0.773,0 1.449,0.164 2.028,0.49c0.579,0.327 1.028,0.79 1.345,1.39l-0.029,-1.64l2,0Zm-4.709,8.62c0.906,0 1.604,-0.316 2.093,-0.95c0.489,-0.633 0.723,-1.523 0.703,-2.67c-0.02,-1.16 -0.285,-2.053 -0.796,-2.68c-0.511,-0.626 -1.227,-0.94 -2.147,-0.94c-0.906,0 -1.611,0.324 -2.113,0.97c-0.502,0.647 -0.743,1.544 -0.723,2.69c0.02,1.134 0.292,2.014 0.816,2.64c0.524,0.627 1.247,0.94 2.167,0.94Z" style="fill:#b3b3b3;fill-rule:nonzero;"/><path d="M573.411,433.264l0.173,9.9c0.027,1.534 -0.356,2.69 -1.15,3.47c-0.793,0.78 -1.982,1.17 -3.569,1.17c-1.533,0 -2.879,-0.333 -4.038,-1l0.313,-1.58c0.632,0.334 1.24,0.58 1.823,0.74c0.583,0.16 1.201,0.24 1.854,0.24c1.88,0 2.803,-0.96 2.77,-2.88l-0.038,-2.18c-0.297,0.587 -0.735,1.05 -1.316,1.39c-0.581,0.34 -1.258,0.51 -2.031,0.51c-0.88,0 -1.667,-0.206 -2.361,-0.62c-0.694,-0.413 -1.237,-1 -1.631,-1.76c-0.393,-0.76 -0.598,-1.633 -0.615,-2.62c-0.018,-0.986 0.157,-1.86 0.524,-2.62c0.367,-0.76 0.89,-1.35 1.569,-1.77c0.679,-0.42 1.459,-0.63 2.339,-0.63c0.773,0 1.456,0.164 2.048,0.49c0.593,0.327 1.048,0.79 1.365,1.39l-0.029,-1.64l2,0Zm-4.777,8.16c0.906,0 1.614,-0.3 2.124,-0.9c0.509,-0.6 0.755,-1.426 0.737,-2.48c-0.019,-1.053 -0.29,-1.883 -0.814,-2.49c-0.524,-0.606 -1.246,-0.91 -2.166,-0.91c-0.906,0 -1.618,0.304 -2.134,0.91c-0.516,0.607 -0.765,1.437 -0.746,2.49c0.018,1.04 0.295,1.864 0.833,2.47c0.537,0.607 1.259,0.91 2.166,0.91Z" style="fill:#b3b3b3;fill-rule:nonzero;"/><path d="M576.147,443.344l-0.176,-10.08l2,0l0.176,10.08l-2,0Zm-0.433,-14.48l2.34,0l0.037,2.12l-2.34,0l-0.037,-2.12Z" style="fill:#b3b3b3;fill-rule:nonzero;"/><path d="M585.887,433.024c2.413,0 3.643,1.347 3.69,4.04l0.11,6.28l-2.02,0l-0.107,-6.16c-0.016,-0.88 -0.197,-1.52 -0.544,-1.92c-0.347,-0.4 -0.894,-0.6 -1.64,-0.6c-0.854,0 -1.532,0.267 -2.036,0.8c-0.505,0.534 -0.749,1.247 -0.733,2.14l0.1,5.74l-2,0l-0.126,-7.24c-0.019,-1.053 -0.089,-2 -0.21,-2.84l1.88,0l0.21,1.74c0.309,-0.64 0.764,-1.13 1.365,-1.47c0.601,-0.34 1.288,-0.51 2.061,-0.51Z" style="fill:#b3b3b3;fill-rule:nonzero;"/><path d="M601.291,433.264l0.173,9.9c0.027,1.534 -0.356,2.69 -1.15,3.47c-0.793,0.78 -1.982,1.17 -3.569,1.17c-1.533,0 -2.879,-0.333 -4.038,-1l0.313,-1.58c0.632,0.334 1.24,0.58 1.823,0.74c0.583,0.16 1.201,0.24 1.854,0.24c1.88,0 2.803,-0.96 2.77,-2.88l-0.038,-2.18c-0.297,0.587 -0.735,1.05 -1.316,1.39c-0.581,0.34 -1.258,0.51 -2.031,0.51c-0.88,0 -1.667,-0.206 -2.361,-0.62c-0.694,-0.413 -1.237,-1 -1.631,-1.76c-0.393,-0.76 -0.598,-1.633 -0.615,-2.62c-0.018,-0.986 0.157,-1.86 0.524,-2.62c0.367,-0.76 0.89,-1.35 1.569,-1.77c0.679,-0.42 1.459,-0.63 2.339,-0.63c0.773,0 1.456,0.164 2.048,0.49c0.593,0.327 1.048,0.79 1.365,1.39l-0.029,-1.64l2,0Zm-4.777,8.16c0.906,0 1.614,-0.3 2.124,-0.9c0.509,-0.6 0.755,-1.426 0.737,-2.48c-0.019,-1.053 -0.29,-1.883 -0.814,-2.49c-0.524,-0.606 -1.246,-0.91 -2.166,-0.91c-0.906,0 -1.618,0.304 -2.134,0.91c-0.516,0.607 -0.765,1.437 -0.746,2.49c0.018,1.04 0.295,1.864 0.833,2.47c0.537,0.607 1.259,0.91 2.166,0.91Z" style="fill:#b3b3b3;fill-rule:nonzero;"/><path d="M660.424,489.915l-0.248,-14.24l2.06,0l0.248,14.24l-2.06,0Z" style="fill:#b3b3b3;fill-rule:nonzero;"/><path d="M670.404,479.595c2.413,0 3.644,1.347 3.691,4.04l0.109,6.28l-2.02,0l-0.107,-6.16c-0.016,-0.88 -0.197,-1.52 -0.544,-1.92c-0.347,-0.4 -0.894,-0.6 -1.64,-0.6c-0.854,0 -1.532,0.267 -2.036,0.8c-0.504,0.534 -0.749,1.247 -0.733,2.14l0.1,5.74l-2,0l-0.126,-7.24c-0.018,-1.053 -0.088,-2 -0.21,-2.84l1.88,0l0.211,1.74c0.309,-0.64 0.763,-1.13 1.364,-1.47c0.601,-0.34 1.288,-0.51 2.061,-0.51Z" style="fill:#b3b3b3;fill-rule:nonzero;"/><path d="M679.156,481.395l0.088,5.06c0.012,0.694 0.171,1.184 0.476,1.47c0.305,0.287 0.724,0.43 1.257,0.43c0.347,0 0.699,-0.053 1.057,-0.16l0.029,1.64c-0.438,0.147 -0.936,0.22 -1.496,0.22c-1.04,0 -1.852,-0.293 -2.436,-0.88c-0.583,-0.586 -0.885,-1.44 -0.904,-2.56l-0.091,-5.22l-1.96,0l-0.028,-1.56l1.96,0l-0.044,-2.52l2.008,-0.7l0.056,3.22l2.78,0l0.028,1.56l-2.78,0Z" style="fill:#b3b3b3;fill-rule:nonzero;"/><path d="M692.057,484.915l-7.2,0c0.108,2.36 1.202,3.54 3.282,3.54c1.16,0 2.213,-0.38 3.16,-1.14l0.645,1.44c-0.446,0.4 -1.017,0.717 -1.713,0.95c-0.696,0.234 -1.398,0.35 -2.104,0.35c-1.614,0 -2.888,-0.463 -3.825,-1.39c-0.936,-0.926 -1.418,-2.196 -1.446,-3.81c-0.018,-1.026 0.169,-1.94 0.562,-2.74c0.393,-0.8 0.952,-1.42 1.678,-1.86c0.725,-0.44 1.555,-0.66 2.488,-0.66c1.36,0 2.438,0.44 3.233,1.32c0.796,0.88 1.207,2.1 1.234,3.66l0.006,0.34Zm-4.407,-3.82c-0.76,0 -1.376,0.227 -1.848,0.68c-0.472,0.454 -0.767,1.1 -0.886,1.94l5.34,0c-0.095,-0.853 -0.366,-1.503 -0.814,-1.95c-0.448,-0.446 -1.045,-0.67 -1.792,-0.67Z" style="fill:#b3b3b3;fill-rule:nonzero;"/><path d="M698.904,479.595c0.307,0 0.628,0.047 0.963,0.14l-0.008,1.84c-0.363,-0.133 -0.757,-0.2 -1.184,-0.2c-0.92,0 -1.605,0.277 -2.055,0.83c-0.451,0.554 -0.668,1.25 -0.654,2.09l0.098,5.62l-2,0l-0.126,-7.24c-0.018,-1.053 -0.088,-2 -0.21,-2.84l1.88,0l0.212,1.82c0.255,-0.666 0.66,-1.176 1.213,-1.53c0.554,-0.353 1.178,-0.53 1.871,-0.53Z" style="fill:#b3b3b3;fill-rule:nonzero;"/><path d="M709.497,484.915l-7.2,0c0.108,2.36 1.202,3.54 3.282,3.54c1.16,0 2.213,-0.38 3.16,-1.14l0.645,1.44c-0.446,0.4 -1.017,0.717 -1.713,0.95c-0.696,0.234 -1.398,0.35 -2.104,0.35c-1.614,0 -2.888,-0.463 -3.825,-1.39c-0.936,-0.926 -1.418,-2.196 -1.446,-3.81c-0.018,-1.026 0.169,-1.94 0.562,-2.74c0.393,-0.8 0.952,-1.42 1.678,-1.86c0.725,-0.44 1.555,-0.66 2.488,-0.66c1.36,0 2.438,0.44 3.233,1.32c0.796,0.88 1.207,2.1 1.234,3.66l0.006,0.34Zm-4.407,-3.82c-0.76,0 -1.376,0.227 -1.848,0.68c-0.472,0.454 -0.767,1.1 -0.886,1.94l5.34,0c-0.095,-0.853 -0.366,-1.503 -0.814,-1.95c-0.448,-0.446 -1.045,-0.67 -1.792,-0.67Z" style="fill:#b3b3b3;fill-rule:nonzero;"/><path d="M715.027,490.055c-1.76,0 -3.154,-0.426 -4.183,-1.28l0.575,-1.46c1.067,0.8 2.281,1.2 3.641,1.2c0.693,0 1.218,-0.116 1.574,-0.35c0.356,-0.233 0.53,-0.563 0.522,-0.99c-0.006,-0.36 -0.134,-0.643 -0.384,-0.85c-0.251,-0.206 -0.67,-0.383 -1.26,-0.53l-1.687,-0.4c-0.883,-0.186 -1.559,-0.516 -2.027,-0.99c-0.468,-0.473 -0.708,-1.063 -0.721,-1.77c-0.016,-0.906 0.335,-1.64 1.052,-2.2c0.717,-0.56 1.675,-0.84 2.875,-0.84c0.72,0 1.405,0.114 2.056,0.34c0.651,0.227 1.206,0.547 1.667,0.96l-0.595,1.42c-0.987,-0.773 -2.021,-1.16 -3.101,-1.16c-0.653,0 -1.157,0.124 -1.513,0.37c-0.356,0.247 -0.53,0.59 -0.522,1.03c0.006,0.347 0.124,0.627 0.354,0.84c0.231,0.214 0.594,0.38 1.089,0.5l1.728,0.42c0.963,0.214 1.679,0.55 2.147,1.01c0.468,0.46 0.709,1.057 0.721,1.79c0.016,0.907 -0.335,1.624 -1.052,2.15c-0.718,0.527 -1.703,0.79 -2.956,0.79Z" style="fill:#b3b3b3;fill-rule:nonzero;"/><path d="M723.436,481.395l0.088,5.06c0.012,0.694 0.171,1.184 0.476,1.47c0.305,0.287 0.724,0.43 1.257,0.43c0.347,0 0.699,-0.053 1.057,-0.16l0.029,1.64c-0.438,0.147 -0.936,0.22 -1.496,0.22c-1.04,0 -1.852,-0.293 -2.436,-0.88c-0.583,-0.586 -0.885,-1.44 -0.904,-2.56l-0.091,-5.22l-1.96,0l-0.028,-1.56l1.96,0l-0.044,-2.52l2.008,-0.7l0.056,3.22l2.78,0l0.028,1.56l-2.78,0Z" style="fill:#b3b3b3;fill-rule:nonzero;"/><path d="M337.327,43.715l7.536,0l3.78,24.048l0.096,0l2.94,-24.048l7.536,0l0.586,33.6l-4.992,0l-0.444,-25.44l-0.096,0l-3.396,25.44l-4.416,0l-4.284,-25.44l-0.096,0l0.444,25.44l-4.608,0l-0.586,-33.6Z" style="fill:#fff;fill-rule:nonzero;"/><path d="M366.271,43.715l7.152,0l6.058,33.6l-5.28,0l-1.076,-6.672l0.001,0.096l-6,0l-0.845,6.576l-4.896,0l4.886,-33.6Zm6.152,22.464l-2.642,-16.608l-0.096,0l-2.014,16.608l4.752,0Z" style="fill:#fff;fill-rule:nonzero;"/><path d="M380.479,43.715l7.824,0c2.72,0 4.715,0.632 5.985,1.896c1.27,1.264 1.928,3.208 1.974,5.832l0.036,2.064c0.061,3.488 -1.053,5.696 -3.341,6.624l0.002,0.096c1.287,0.384 2.204,1.168 2.753,2.352c0.549,1.184 0.84,2.768 0.875,4.752l0.103,5.904c0.017,0.96 0.062,1.736 0.137,2.328c0.074,0.592 0.244,1.176 0.51,1.752l-5.376,0c-0.201,-0.544 -0.338,-1.056 -0.411,-1.536c-0.072,-0.48 -0.119,-1.344 -0.141,-2.592l-0.107,-6.144c-0.027,-1.536 -0.294,-2.608 -0.8,-3.216c-0.507,-0.608 -1.368,-0.912 -2.584,-0.912l-1.824,0l0.251,14.4l-5.28,0l-0.586,-33.6Zm7.451,14.4c1.056,0 1.843,-0.272 2.362,-0.816c0.518,-0.544 0.766,-1.456 0.744,-2.736l-0.045,-2.592c-0.021,-1.216 -0.253,-2.096 -0.694,-2.64c-0.442,-0.544 -1.126,-0.816 -2.054,-0.816l-2.4,0l0.167,9.6l1.92,0Z" style="fill:#fff;fill-rule:nonzero;"/><path d="M398.863,43.715l5.28,0l0.247,14.16l6.473,-14.16l5.28,0l-6.073,12.336l6.755,21.264l-5.52,0l-4.725,-14.976l-2.038,4.272l0.187,10.704l-5.28,0l-0.586,-33.6Z" style="fill:#fff;fill-rule:nonzero;"/><path d="M417.775,43.715l14.4,0l0.084,4.8l-9.12,0l0.155,8.88l7.248,0l0.083,4.8l-7.248,0l0.18,10.32l9.12,0l0.084,4.8l-14.4,0l-0.586,-33.6Z" style="fill:#fff;fill-rule:nonzero;"/><path d="M438.451,48.515l-5.52,0l-0.084,-4.8l16.32,0l0.084,4.8l-5.52,0l0.502,28.8l-5.28,0l-0.502,-28.8Z" style="fill:#fff;fill-rule:nonzero;"/><path d="M450.751,43.715l5.28,0l0.586,33.6l-5.28,0l-0.586,-33.6Z" style="fill:#fff;fill-rule:nonzero;"/><path d="M459.007,43.715l6.624,0l5.487,20.112l0.096,0l-0.351,-20.112l4.704,0l0.586,33.6l-5.424,0l-6.764,-24.528l-0.096,0l0.428,24.528l-4.704,0l-0.586,-33.6Z" style="fill:#fff;fill-rule:nonzero;"/><path d="M486.626,77.795c-2.56,0 -4.525,-0.728 -5.894,-2.184c-1.37,-1.456 -2.078,-3.544 -2.126,-6.264l-0.308,-17.664c-0.048,-2.72 0.588,-4.808 1.907,-6.264c1.318,-1.456 3.257,-2.184 5.817,-2.184c2.56,0 4.525,0.728 5.895,2.184c1.369,1.456 2.077,3.544 2.125,6.264l0.05,2.88l-4.992,0l-0.056,-3.216c-0.039,-2.208 -0.97,-3.312 -2.794,-3.312c-1.824,0 -2.717,1.104 -2.678,3.312l0.321,18.384c0.038,2.176 0.969,3.264 2.793,3.264c1.824,0 2.717,-1.088 2.679,-3.264l-0.115,-6.576l-2.64,0l-0.084,-4.8l7.632,0l0.192,10.992c0.048,2.72 -0.588,4.808 -1.906,6.264c-1.319,1.456 -3.258,2.184 -5.818,2.184Z" style="fill:#fff;fill-rule:nonzero;"/><path d="M659.928,177.58l14.4,0l0.084,4.8l-9.12,0l0.155,8.88l7.248,0l0.084,4.8l-7.248,0l0.18,10.32l9.12,0l0.084,4.8l-14.4,0l-0.587,-33.6Z" style="fill:#fff;fill-rule:nonzero;"/><path d="M676.392,177.58l6.624,0l5.487,20.112l0.096,0l-0.351,-20.112l4.704,0l0.587,33.6l-5.424,0l-6.764,-24.528l-0.096,0l0.428,24.528l-4.704,0l-0.587,-33.6Z" style="fill:#fff;fill-rule:nonzero;"/><path d="M704.011,211.66c-2.56,0 -4.525,-0.728 -5.894,-2.184c-1.369,-1.456 -2.078,-3.544 -2.125,-6.264l-0.309,-17.664c-0.047,-2.72 0.588,-4.808 1.907,-6.264c1.319,-1.456 3.258,-2.184 5.818,-2.184c2.56,0 4.525,0.728 5.894,2.184c1.369,1.456 2.078,3.544 2.125,6.264l0.051,2.88l-4.992,0l-0.056,-3.216c-0.039,-2.208 -0.97,-3.312 -2.794,-3.312c-1.824,0 -2.717,1.104 -2.678,3.312l0.32,18.384c0.038,2.176 0.969,3.264 2.793,3.264c1.824,0 2.717,-1.088 2.679,-3.264l-0.114,-6.576l-2.64,0l-0.084,-4.8l7.632,0l0.192,10.992c0.047,2.72 -0.588,4.808 -1.907,6.264c-1.319,1.456 -3.258,2.184 -5.818,2.184Z" style="fill:#fff;fill-rule:nonzero;"/><path d="M717.816,177.58l7.152,0l6.059,33.6l-5.28,0l-1.077,-6.672l0.002,0.096l-6,0l-0.845,6.576l-4.896,0l4.885,-33.6Zm6.152,22.464l-2.641,-16.608l-0.096,0l-2.015,16.608l4.752,0Z" style="fill:#fff;fill-rule:nonzero;"/><path d="M740.011,211.66c-2.56,0 -4.525,-0.728 -5.894,-2.184c-1.369,-1.456 -2.078,-3.544 -2.125,-6.264l-0.309,-17.664c-0.047,-2.72 0.588,-4.808 1.907,-6.264c1.319,-1.456 3.258,-2.184 5.818,-2.184c2.56,0 4.525,0.728 5.894,2.184c1.369,1.456 2.078,3.544 2.125,6.264l0.051,2.88l-4.992,0l-0.056,-3.216c-0.039,-2.208 -0.97,-3.312 -2.794,-3.312c-1.824,0 -2.717,1.104 -2.678,3.312l0.32,18.384c0.038,2.176 0.969,3.264 2.793,3.264c1.824,0 2.717,-1.088 2.679,-3.264l-0.114,-6.576l-2.64,0l-0.084,-4.8l7.632,0l0.192,10.992c0.047,2.72 -0.588,4.808 -1.907,6.264c-1.319,1.456 -3.258,2.184 -5.818,2.184Z" style="fill:#fff;fill-rule:nonzero;"/><path d="M749.736,177.58l5.28,0l0.587,33.6l-5.28,0l-0.587,-33.6Z" style="fill:#fff;fill-rule:nonzero;"/><path d="M757.992,177.58l6.624,0l5.487,20.112l0.096,0l-0.351,-20.112l4.704,0l0.587,33.6l-5.424,0l-6.764,-24.528l-0.096,0l0.428,24.528l-4.704,0l-0.587,-33.6Z" style="fill:#fff;fill-rule:nonzero;"/><path d="M785.611,211.66c-2.56,0 -4.525,-0.728 -5.894,-2.184c-1.369,-1.456 -2.078,-3.544 -2.125,-6.264l-0.309,-17.664c-0.047,-2.72 0.588,-4.808 1.907,-6.264c1.319,-1.456 3.258,-2.184 5.818,-2.184c2.56,0 4.525,0.728 5.894,2.184c1.369,1.456 2.078,3.544 2.125,6.264l0.051,2.88l-4.992,0l-0.056,-3.216c-0.039,-2.208 -0.97,-3.312 -2.794,-3.312c-1.824,0 -2.717,1.104 -2.678,3.312l0.32,18.384c0.038,2.176 0.969,3.264 2.793,3.264c1.824,0 2.717,-1.088 2.679,-3.264l-0.114,-6.576l-2.64,0l-0.084,-4.8l7.632,0l0.192,10.992c0.047,2.72 -0.588,4.808 -1.907,6.264c-1.319,1.456 -3.258,2.184 -5.818,2.184Z" style="fill:#fff;fill-rule:nonzero;"/><path d="M873.876,487.665l13.968,0l0.084,4.8l-8.688,0l0.163,9.36l6.816,0l0.084,4.8l-6.816,0l0.256,14.64l-5.28,0l-0.587,-33.6Z" style="fill:#fff;fill-rule:nonzero;"/><path d="M889.428,487.665l7.824,0c2.72,0 4.715,0.632 5.985,1.896c1.27,1.264 1.928,3.208 1.974,5.832l0.036,2.064c0.061,3.488 -1.053,5.696 -3.34,6.624l0.001,0.096c1.287,0.384 2.205,1.168 2.753,2.352c0.549,1.184 0.841,2.768 0.875,4.752l0.103,5.904c0.017,0.96 0.063,1.736 0.137,2.328c0.074,0.592 0.244,1.176 0.511,1.752l-5.376,0c-0.202,-0.544 -0.339,-1.056 -0.411,-1.536c-0.073,-0.48 -0.12,-1.344 -0.142,-2.592l-0.107,-6.144c-0.027,-1.536 -0.293,-2.608 -0.8,-3.216c-0.507,-0.608 -1.368,-0.912 -2.584,-0.912l-1.824,0l0.252,14.4l-5.28,0l-0.587,-33.6Zm7.451,14.4c1.056,0 1.844,-0.272 2.362,-0.816c0.519,-0.544 0.767,-1.456 0.744,-2.736l-0.045,-2.592c-0.021,-1.216 -0.252,-2.096 -0.694,-2.64c-0.441,-0.544 -1.126,-0.816 -2.054,-0.816l-2.4,0l0.167,9.6l1.92,0Z" style="fill:#fff;fill-rule:nonzero;"/><path d="M907.812,487.665l5.28,0l0.587,33.6l-5.28,0l-0.587,-33.6Z" style="fill:#fff;fill-rule:nonzero;"/><path d="M916.068,487.665l14.4,0l0.084,4.8l-9.12,0l0.155,8.88l7.248,0l0.084,4.8l-7.248,0l0.18,10.32l9.12,0l0.084,4.8l-14.4,0l-0.587,-33.6Z" style="fill:#fff;fill-rule:nonzero;"/><path d="M932.532,487.665l6.624,0l5.487,20.112l0.096,0l-0.351,-20.112l4.704,0l0.587,33.6l-5.424,0l-6.765,-24.528l-0.096,0l0.429,24.528l-4.704,0l-0.587,-33.6Z" style="fill:#fff;fill-rule:nonzero;"/><path d="M952.068,487.665l8.064,0c2.624,0 4.604,0.704 5.941,2.112c1.336,1.408 2.029,3.472 2.076,6.192l0.297,16.992c0.047,2.72 -0.573,4.784 -1.86,6.192c-1.288,1.408 -3.243,2.112 -5.867,2.112l-8.064,0l-0.587,-33.6Zm8.471,28.8c0.864,0 1.523,-0.256 1.978,-0.768c0.455,-0.512 0.673,-1.344 0.653,-2.496l-0.305,-17.472c-0.02,-1.152 -0.267,-1.984 -0.74,-2.496c-0.473,-0.512 -1.141,-0.768 -2.005,-0.768l-2.688,0l0.419,24l2.688,0Z" style="fill:#fff;fill-rule:nonzero;"/><path d="M970.596,487.665l5.28,0l0.503,28.8l8.688,0l0.084,4.8l-13.968,0l-0.587,-33.6Z" style="fill:#fff;fill-rule:nonzero;"/><path d="M987.109,506.961l-6.721,-19.296l5.616,0l3.815,12.336l0.096,0l3.385,-12.336l5.136,0l-6.047,19.296l0.25,14.304l-5.28,0l-0.25,-14.304Z" style="fill:#fff;fill-rule:nonzero;"/><path d="M0.236,485.255l7.776,0c2.624,0 4.604,0.704 5.941,2.112c1.337,1.408 2.029,3.472 2.076,6.192l0.058,3.312c0.047,2.72 -0.573,4.784 -1.86,6.192c-1.287,1.408 -3.243,2.112 -5.867,2.112l-2.496,0l0.239,13.68l-5.28,0l-0.587,-33.6Zm8.04,15.12c0.864,0 1.508,-0.24 1.931,-0.72c0.424,-0.48 0.626,-1.296 0.606,-2.448l-0.07,-3.984c-0.02,-1.152 -0.25,-1.968 -0.691,-2.448c-0.44,-0.48 -1.092,-0.72 -1.956,-0.72l-2.496,0l0.18,10.32l2.496,0Z" style="fill:#fff;fill-rule:nonzero;"/><path d="M17.804,485.255l7.824,0c2.72,0 4.715,0.632 5.985,1.896c1.27,1.264 1.928,3.208 1.974,5.832l0.036,2.064c0.061,3.488 -1.053,5.696 -3.34,6.624l0.001,0.096c1.287,0.384 2.205,1.168 2.753,2.352c0.549,1.184 0.841,2.768 0.875,4.752l0.103,5.904c0.017,0.96 0.063,1.736 0.137,2.328c0.074,0.592 0.245,1.176 0.511,1.752l-5.376,0c-0.202,-0.544 -0.339,-1.056 -0.411,-1.536c-0.073,-0.48 -0.12,-1.344 -0.141,-2.592l-0.108,-6.144c-0.026,-1.536 -0.293,-2.608 -0.8,-3.216c-0.506,-0.608 -1.368,-0.912 -2.584,-0.912l-1.824,0l0.252,14.4l-5.28,0l-0.587,-33.6Zm7.451,14.4c1.056,0 1.844,-0.272 2.362,-0.816c0.519,-0.544 0.767,-1.456 0.744,-2.736l-0.045,-2.592c-0.021,-1.216 -0.252,-2.096 -0.694,-2.64c-0.441,-0.544 -1.126,-0.816 -2.054,-0.816l-2.4,0l0.167,9.6l1.92,0Z" style="fill:#fff;fill-rule:nonzero;"/><path d="M44.415,519.335c-2.592,0 -4.589,-0.736 -5.991,-2.208c-1.401,-1.472 -2.126,-3.552 -2.172,-6.24l-0.309,-17.664c-0.047,-2.688 0.605,-4.768 1.955,-6.24c1.351,-1.472 3.322,-2.208 5.914,-2.208c2.592,0 4.589,0.736 5.99,2.208c1.402,1.472 2.126,3.552 2.173,6.24l0.309,17.664c0.046,2.688 -0.605,4.768 -1.956,6.24c-1.35,1.472 -3.321,2.208 -5.913,2.208Zm-0.084,-4.8c1.824,0 2.717,-1.104 2.678,-3.312l-0.32,-18.336c-0.038,-2.208 -0.969,-3.312 -2.793,-3.312c-1.824,0 -2.717,1.104 -2.679,3.312l0.32,18.336c0.039,2.208 0.97,3.312 2.794,3.312Z" style="fill:#fff;fill-rule:nonzero;"/><path d="M54.428,485.255l13.968,0l0.084,4.8l-8.688,0l0.163,9.36l6.816,0l0.084,4.8l-6.816,0l0.256,14.64l-5.28,0l-0.587,-33.6Z" style="fill:#fff;fill-rule:nonzero;"/><path d="M69.98,485.255l14.4,0l0.084,4.8l-9.12,0l0.155,8.88l7.248,0l0.084,4.8l-7.248,0l0.18,10.32l9.12,0l0.084,4.8l-14.4,0l-0.587,-33.6Z" style="fill:#fff;fill-rule:nonzero;"/><path d="M93.999,519.335c-2.56,0 -4.509,-0.728 -5.846,-2.184c-1.338,-1.456 -2.03,-3.544 -2.077,-6.264l-0.034,-1.92l4.992,0l0.04,2.304c0.038,2.176 0.969,3.264 2.793,3.264c0.896,0 1.572,-0.264 2.026,-0.792c0.455,-0.528 0.672,-1.384 0.652,-2.568c-0.025,-1.408 -0.367,-2.648 -1.025,-3.72c-0.659,-1.072 -1.866,-2.36 -3.62,-3.864c-2.209,-1.92 -3.76,-3.656 -4.651,-5.208c-0.891,-1.552 -1.353,-3.304 -1.387,-5.256c-0.047,-2.656 0.589,-4.712 1.908,-6.168c1.318,-1.456 3.258,-2.184 5.818,-2.184c2.528,0 4.452,0.728 5.774,2.184c1.321,1.456 2.006,3.544 2.053,6.264l0.025,1.392l-4.992,0l-0.031,-1.728c-0.02,-1.152 -0.258,-1.992 -0.716,-2.52c-0.457,-0.528 -1.117,-0.792 -1.981,-0.792c-1.76,0 -2.622,1.072 -2.584,3.216c0.021,1.216 0.369,2.352 1.043,3.408c0.675,1.056 1.889,2.336 3.643,3.84c2.242,1.92 3.792,3.664 4.652,5.232c0.859,1.568 1.307,3.408 1.344,5.52c0.048,2.752 -0.595,4.864 -1.93,6.336c-1.334,1.472 -3.297,2.208 -5.889,2.208Z" style="fill:#fff;fill-rule:nonzero;"/><path d="M110.895,519.335c-2.56,0 -4.509,-0.728 -5.846,-2.184c-1.338,-1.456 -2.03,-3.544 -2.077,-6.264l-0.034,-1.92l4.992,0l0.04,2.304c0.038,2.176 0.969,3.264 2.793,3.264c0.896,0 1.572,-0.264 2.026,-0.792c0.455,-0.528 0.672,-1.384 0.652,-2.568c-0.025,-1.408 -0.367,-2.648 -1.025,-3.72c-0.659,-1.072 -1.866,-2.36 -3.62,-3.864c-2.209,-1.92 -3.76,-3.656 -4.651,-5.208c-0.891,-1.552 -1.353,-3.304 -1.387,-5.256c-0.047,-2.656 0.589,-4.712 1.908,-6.168c1.318,-1.456 3.258,-2.184 5.818,-2.184c2.528,0 4.452,0.728 5.774,2.184c1.321,1.456 2.006,3.544 2.053,6.264l0.025,1.392l-4.992,0l-0.031,-1.728c-0.02,-1.152 -0.258,-1.992 -0.716,-2.52c-0.457,-0.528 -1.117,-0.792 -1.981,-0.792c-1.76,0 -2.622,1.072 -2.584,3.216c0.021,1.216 0.369,2.352 1.043,3.408c0.675,1.056 1.889,2.336 3.643,3.84c2.242,1.92 3.792,3.664 4.652,5.232c0.859,1.568 1.307,3.408 1.344,5.52c0.048,2.752 -0.595,4.864 -1.93,6.336c-1.334,1.472 -3.297,2.208 -5.889,2.208Z" style="fill:#fff;fill-rule:nonzero;"/><path d="M120.332,485.255l5.28,0l0.587,33.6l-5.28,0l-0.587,-33.6Z" style="fill:#fff;fill-rule:nonzero;"/><path d="M136.815,519.335c-2.592,0 -4.589,-0.736 -5.991,-2.208c-1.401,-1.472 -2.126,-3.552 -2.172,-6.24l-0.309,-17.664c-0.047,-2.688 0.605,-4.768 1.955,-6.24c1.351,-1.472 3.322,-2.208 5.914,-2.208c2.592,0 4.589,0.736 5.99,2.208c1.402,1.472 2.126,3.552 2.173,6.24l0.309,17.664c0.046,2.688 -0.605,4.768 -1.956,6.24c-1.35,1.472 -3.321,2.208 -5.913,2.208Zm-0.084,-4.8c1.824,0 2.717,-1.104 2.678,-3.312l-0.32,-18.336c-0.038,-2.208 -0.969,-3.312 -2.793,-3.312c-1.824,0 -2.717,1.104 -2.679,3.312l0.32,18.336c0.039,2.208 0.97,3.312 2.794,3.312Z" style="fill:#fff;fill-rule:nonzero;"/><path d="M146.828,485.255l6.624,0l5.487,20.112l0.096,0l-0.351,-20.112l4.704,0l0.587,33.6l-5.424,0l-6.765,-24.528l-0.096,0l0.429,24.528l-4.704,0l-0.587,-33.6Z" style="fill:#fff;fill-rule:nonzero;"/><path d="M170.444,485.255l7.152,0l6.059,33.6l-5.28,0l-1.077,-6.672l0.002,0.096l-6,0l-0.845,6.576l-4.896,0l4.885,-33.6Zm6.152,22.464l-2.642,-16.608l-0.096,0l-2.014,16.608l4.752,0Z" style="fill:#fff;fill-rule:nonzero;"/><path d="M184.652,485.255l5.28,0l0.503,28.8l8.688,0l0.084,4.8l-13.968,0l-0.587,-33.6Z" style="fill:#fff;fill-rule:nonzero;"/></g></g></svg>